/* XPM */
static char *_[] = {
/* columns rows colors chars-per-pixel */
"70 35 68 1",
"  c #FFFF00",
". c #F3F300",
"X c #828200",
"o c #4C4C00",
"O c #191900",
"+ c #4D4D00",
"@ c #848400",
"# c #F4F400",
"$ c #D9D900",
"% c #2A2A00",
"& c #000000",
"* c #2D2D00",
"= c #DCDC00",
"- c #F0F000",
"; c #111100",
": c #121200",
"> c #898900",
", c #8A8A00",
"< c #FAFA00",
"1 c #1B1B00",
"2 c #6B6B00",
"3 c #DADA00",
"4 c #676700",
"5 c #1C1C00",
"6 c #FBFB00",
"7 c #A5A500",
"8 c #333300",
"9 c #FCFC00",
"0 c #F9F900",
"q c #282800",
"w c #A6A600",
"e c #737300",
"r c #9B9B00",
"t c #595900",
"y c #C9C900",
"u c #CACA00",
"i c #5A5A00",
"p c #3F3F00",
"a c #E6E600",
"s c #E8E800",
"d c #404000",
"f c #252500",
"g c #F1F100",
"h c #262600",
"j c #0C0C00",
"k c #0B0B00",
"l c #232300",
"z c #F2F200",
"x c #EFEF00",
"c c #3A3A00",
"v c #E9E900",
"b c #E5E500",
"n c #515100",
"m c #CDCD00",
"M c #696900",
"N c #A0A000",
"B c #9A9A00",
"V c #747400",
"C c #2E2E00",
"Z c #323200",
"A c #101000",
"S c #6A6A00",
"D c #DFDF00",
"F c #DDDD00",
"G c #505000",
"H c #1A1A00",
"J c #181800",
"K c #4B4B00",
/* pixels */
"                                                                      ",
"                                                                      ",
"                                                                      ",
"                                                                      ",
"                                                                      ",
"                                                                      ",
"                              .XoOO+@#                                ",
"                             $%&&&&&&*=                               ",
"                            -;&&&&&&&&:-                              ",
"                            >&&&&&&&&&&,                              ",
"                           <1&&&23$4&&&56                             ",
"                           7&&&89  0q&&&w                             ",
"                           e&&&r    r&&&e                             ",
"                           t&&&y    u&&&i                             ",
"                           p&&&a    s&&&d                             ",
"                           f&&&-    g&&&h                             ",
"                           j&&&<    <&&&j                             ",
"                           k&&&6    <&&&j                             ",
"                           l&&&z    x&&&h                             ",
"                           c&&&v    b&&&d                             ",
"                           n&&&m    y&&&i                             ",
"                           M&&&N    B&&&V                             ",
"                           B&&&C6  9Z&&&w                             ",
"                           #A&&&S332&&&5<                             ",
"                            e&&&&&&&&&&,                              ",
"                            D:&&&&&&&&;-                              ",
"                             F*&&&&&&%$                               ",
"                              #>GHJKX.                                ",
"                                                                      ",
"                                                                      ",
"                                                                      ",
"                                                                      ",
"                                                                      ",
"                                                                      ",
"                                                                      "
};
