/* XPM */
static char *_[] = {
/* columns rows colors chars-per-pixel */
"70 35 256 2",
"   c yellow",
".  c #E2E200",
"X  c #6F6F00",
"o  c #3D3D00",
"O  c #181800",
"+  c #0E0E00",
"@  c #353500",
"#  c #5C5C00",
"$  c #BBBB00",
"%  c #7C7C00",
"&  c #070700",
"*  c black",
"=  c #575700",
"-  c #EDED00",
";  c #969600",
":  c #4D4D00",
">  c #D8D800",
",  c #9E9E00",
"<  c #888800",
"1  c #0A0A00",
"2  c #7B7B00",
"3  c #CFCF00",
"4  c #DADA00",
"5  c #828200",
"6  c #141400",
"7  c #484800",
"8  c #666600",
"9  c #808000",
"0  c #1C1C00",
"q  c #5D5D00",
"w  c #393900",
"e  c #222200",
"r  c #0B0B00",
"t  c #CCCC00",
"y  c #DDDD00",
"u  c #C6C600",
"i  c #414100",
"p  c #717100",
"a  c #707000",
"s  c #E7E700",
"d  c #171700",
"f  c #030300",
"g  c #D5D500",
"h  c #F4F400",
"j  c #696900",
"k  c #F3F300",
"l  c #3C3C00",
"z  c #131300",
"x  c #EAEA00",
"c  c #F2F200",
"v  c #3A3A00",
"b  c #111100",
"n  c #C4C400",
"m  c #F5F500",
"M  c #3F3F00",
"N  c #1B1B00",
"B  c #D3D300",
"V  c #FAFA00",
"C  c #444400",
"Z  c #2B2B00",
"A  c #6E6E00",
"S  c #2E2E00",
"D  c #ECEC00",
"F  c #ADAD00",
"G  c #DCDC00",
"H  c #2A2A00",
"J  c #D4D400",
"K  c #7F7F00",
"L  c black",
"P  c black",
"I  c black",
"U  c black",
"Y  c black",
"T  c black",
"R  c black",
"E  c black",
"W  c black",
"Q  c black",
"!  c black",
"~  c black",
"^  c black",
"/  c black",
"(  c black",
")  c black",
"_  c black",
"`  c black",
"'  c black",
"]  c black",
"[  c black",
"{  c black",
"}  c black",
"|  c black",
" . c black",
".. c black",
"X. c black",
"o. c black",
"O. c black",
"+. c black",
"@. c black",
"#. c black",
"$. c black",
"%. c black",
"&. c black",
"*. c black",
"=. c black",
"-. c black",
";. c black",
":. c black",
">. c black",
",. c black",
"<. c black",
"1. c black",
"2. c black",
"3. c black",
"4. c black",
"5. c black",
"6. c black",
"7. c black",
"8. c black",
"9. c black",
"0. c black",
"q. c black",
"w. c black",
"e. c black",
"r. c black",
"t. c black",
"y. c black",
"u. c black",
"i. c black",
"p. c black",
"a. c black",
"s. c black",
"d. c black",
"f. c black",
"g. c black",
"h. c black",
"j. c black",
"k. c black",
"l. c black",
"z. c black",
"x. c black",
"c. c black",
"v. c black",
"b. c black",
"n. c black",
"m. c black",
"M. c black",
"N. c black",
"B. c black",
"V. c black",
"C. c black",
"Z. c black",
"A. c black",
"S. c black",
"D. c black",
"F. c black",
"G. c black",
"H. c black",
"J. c black",
"K. c black",
"L. c black",
"P. c black",
"I. c black",
"U. c black",
"Y. c black",
"T. c black",
"R. c black",
"E. c black",
"W. c black",
"Q. c black",
"!. c black",
"~. c black",
"^. c black",
"/. c black",
"(. c black",
"). c black",
"_. c black",
"`. c black",
"'. c black",
"]. c black",
"[. c black",
"{. c black",
"}. c black",
"|. c black",
" X c black",
".X c black",
"XX c black",
"oX c black",
"OX c black",
"+X c black",
"@X c black",
"#X c black",
"$X c black",
"%X c black",
"&X c black",
"*X c black",
"=X c black",
"-X c black",
";X c black",
":X c black",
">X c black",
",X c black",
"<X c black",
"1X c black",
"2X c black",
"3X c black",
"4X c black",
"5X c black",
"6X c black",
"7X c black",
"8X c black",
"9X c black",
"0X c black",
"qX c black",
"wX c black",
"eX c black",
"rX c black",
"tX c black",
"yX c black",
"uX c black",
"iX c black",
"pX c black",
"aX c black",
"sX c black",
"dX c black",
"fX c black",
"gX c black",
"hX c black",
"jX c black",
"kX c black",
"lX c black",
"zX c black",
"xX c black",
"cX c black",
"vX c black",
"bX c black",
"nX c black",
"mX c black",
"MX c black",
"NX c black",
"BX c black",
"VX c black",
"CX c black",
"ZX c black",
"AX c black",
"SX c black",
"DX c black",
"FX c black",
"GX c black",
"HX c black",
"JX c black",
"KX c black",
"LX c black",
"PX c black",
"IX c black",
"UX c black",
/* pixels */
"                                                                                                                                            ",
"                                                                                                                                            ",
"                                                                                                                                            ",
"                                                                                                                                            ",
"                                                                                                                                            ",
"                                                                                                                                            ",
"                                                                                                                                            ",
"                                                            . X o O + @ # $                                                                 ",
"                                                          % & * * * * * * * = -                                                             ",
"                                                        ; * * * * * * * * * * :                                                             ",
"                                                      > & * * * * * * * * * * * ,                                                           ",
"                                                      < * * * 1 2 3 4 5 6 * * * :                                                           ",
"                                                      7 * * * 8         9 * * * 0                                                           ",
"                                                      q w e r t         y * * * 6                                                           ",
"                                                                        u * * * i                                                           ",
"                                                                        p * * * a                                                           ",
"                                                                      s d * * f g                                                           ",
"                                                                    h @ * * * j                                                             ",
"                                                                  k l * * * z x                                                             ",
"                                                                c v * * * 1 u                                                               ",
"                                                              h l * * * b n                                                                 ",
"                                                            m M * * * N B                                                                   ",
"                                                          V C * * * Z .                                                                     ",
"                                                          A * * * S D                                                                       ",
"                                                        F * * * r G                                                                         ",
"                                                        H * * * * * * * * * * * *                                                           ",
"                                                      J * * * * * * * * * * * * *                                                           ",
"                                                      K * * * * * * * * * * * * *                                                           ",
"                                                      H * * * * * * * * * * * * *                                                           ",
"                                                                                                                                            ",
"                                                                                                                                            ",
"                                                                                                                                            ",
"                                                                                                                                            ",
"                                                                                                                                            ",
"                                                                                                                                            "
};
