/* XPM */
static char *_[] = {
/* columns rows colors chars-per-pixel */
"70 35 256 2",
"   c yellow",
".  c #C8C800",
"X  c #7F7F00",
"o  c #434300",
"O  c #0F0F00",
"+  c #292900",
"@  c #585800",
"#  c #A4A400",
"$  c #999900",
"%  c #020200",
"&  c black",
"*  c #525200",
"=  c #ECEC00",
"-  c #898900",
";  c #373700",
":  c #FDFD00",
">  c #EEEE00",
",  c #050500",
"<  c #929200",
"1  c #9D9D00",
"2  c #0A0A00",
"3  c #7E7E00",
"4  c #E1E100",
"5  c #B0B000",
"6  c #2F2F00",
"7  c #3D3D00",
"8  c #464600",
"9  c #666600",
"0  c #101000",
"q  c #9B9B00",
"w  c #6B6B00",
"e  c #404000",
"r  c #151500",
"t  c #CCCC00",
"y  c #DFDF00",
"u  c #363600",
"i  c #747400",
"p  c #F6F600",
"a  c #B9B900",
"s  c #0C0C00",
"d  c #121200",
"f  c #D8D800",
"g  c #656500",
"h  c #1C1C00",
"j  c #D5D500",
"k  c #5B5B00",
"l  c #E6E600",
"z  c #EDED00",
"x  c #CFCF00",
"c  c #717100",
"v  c #0E0E00",
"b  c #E2E200",
"n  c #626200",
"m  c #D4D400",
"M  c #242400",
"N  c #727200",
"B  c #4A4A00",
"V  c #2C2C00",
"C  c #C5C500",
"Z  c #444400",
"A  c #515100",
"S  c #646400",
"D  c #383800",
"F  c #878700",
"G  c #CDCD00",
"H  c #6C6C00",
"J  c #080800",
"K  c #E5E500",
"L  c #DBDB00",
"P  c #ABAB00",
"I  c #9E9E00",
"U  c #9F9F00",
"Y  c #6F6F00",
"T  c #181800",
"R  c #454500",
"E  c #777700",
"W  c #EAEA00",
"Q  c black",
"!  c black",
"~  c black",
"^  c black",
"/  c black",
"(  c black",
")  c black",
"_  c black",
"`  c black",
"'  c black",
"]  c black",
"[  c black",
"{  c black",
"}  c black",
"|  c black",
" . c black",
".. c black",
"X. c black",
"o. c black",
"O. c black",
"+. c black",
"@. c black",
"#. c black",
"$. c black",
"%. c black",
"&. c black",
"*. c black",
"=. c black",
"-. c black",
";. c black",
":. c black",
">. c black",
",. c black",
"<. c black",
"1. c black",
"2. c black",
"3. c black",
"4. c black",
"5. c black",
"6. c black",
"7. c black",
"8. c black",
"9. c black",
"0. c black",
"q. c black",
"w. c black",
"e. c black",
"r. c black",
"t. c black",
"y. c black",
"u. c black",
"i. c black",
"p. c black",
"a. c black",
"s. c black",
"d. c black",
"f. c black",
"g. c black",
"h. c black",
"j. c black",
"k. c black",
"l. c black",
"z. c black",
"x. c black",
"c. c black",
"v. c black",
"b. c black",
"n. c black",
"m. c black",
"M. c black",
"N. c black",
"B. c black",
"V. c black",
"C. c black",
"Z. c black",
"A. c black",
"S. c black",
"D. c black",
"F. c black",
"G. c black",
"H. c black",
"J. c black",
"K. c black",
"L. c black",
"P. c black",
"I. c black",
"U. c black",
"Y. c black",
"T. c black",
"R. c black",
"E. c black",
"W. c black",
"Q. c black",
"!. c black",
"~. c black",
"^. c black",
"/. c black",
"(. c black",
"). c black",
"_. c black",
"`. c black",
"'. c black",
"]. c black",
"[. c black",
"{. c black",
"}. c black",
"|. c black",
" X c black",
".X c black",
"XX c black",
"oX c black",
"OX c black",
"+X c black",
"@X c black",
"#X c black",
"$X c black",
"%X c black",
"&X c black",
"*X c black",
"=X c black",
"-X c black",
";X c black",
":X c black",
">X c black",
",X c black",
"<X c black",
"1X c black",
"2X c black",
"3X c black",
"4X c black",
"5X c black",
"6X c black",
"7X c black",
"8X c black",
"9X c black",
"0X c black",
"qX c black",
"wX c black",
"eX c black",
"rX c black",
"tX c black",
"yX c black",
"uX c black",
"iX c black",
"pX c black",
"aX c black",
"sX c black",
"dX c black",
"fX c black",
"gX c black",
"hX c black",
"jX c black",
"kX c black",
"lX c black",
"zX c black",
"xX c black",
"cX c black",
"vX c black",
"bX c black",
"nX c black",
"mX c black",
"MX c black",
"NX c black",
"BX c black",
"VX c black",
"CX c black",
"ZX c black",
"AX c black",
"SX c black",
"DX c black",
"FX c black",
"GX c black",
"HX c black",
"JX c black",
"KX c black",
"LX c black",
"PX c black",
"IX c black",
"UX c black",
/* pixels */
"                                                                                                                                            ",
"                                                                                                                                            ",
"                                                                                                                                            ",
"                                                                                                                                            ",
"                                                                                                                                            ",
"                                                                                                                                            ",
"                                                                                                                                            ",
"                                                                . X o O + @ #                                                               ",
"                                                              $ % & & & & & & * =                                                           ",
"                                                            - & & & & & & & & & ; :                                                         ",
"                                                          > , & & & & & & & & & & <                                                         ",
"                                                          1 & & & 2 3 4 5 6 & & & 7                                                         ",
"                                                          8 & & & 9       5 & & & 0                                                         ",
"                                                          q w e r t       y & & & u                                                         ",
"                                                                          i & & & 3                                                         ",
"                                                                    p a i s & & d f                                                         ",
"                                                                    g & & & & h j                                                           ",
"                                                                    e & & & & #                                                             ",
"                                                                    h & & & & & k l                                                         ",
"                                                                    . z x c 2 & & v b                                                       ",
"                                                                            w & & & n                                                       ",
"                                                                            m & & & M                                                       ",
"                                                          N B V v C         C & & & s                                                       ",
"                                                          Z & & & A         S & & & D                                                       ",
"                                                          F & & & % w G x H J & & & w                                                       ",
"                                                          K d & & & & & & & & & & s L                                                       ",
"                                                            P & & & & & & & & & & I                                                         ",
"                                                              $ v & & & & & & d U                                                           ",
"                                                                K Y 7 d T R E W                                                             ",
"                                                                                                                                            ",
"                                                                                                                                            ",
"                                                                                                                                            ",
"                                                                                                                                            ",
"                                                                                                                                            ",
"                                                                                                                                            "
};
