/* XPM */
static char *_[] = {
/* columns rows colors chars-per-pixel */
"70 35 256 2",
"   c yellow",
".  c #FBFB00",
"X  c #343400",
"o  c black",
"O  c #818100",
"+  c #CECE00",
"@  c #050500",
"#  c #F9F900",
"$  c #2C2C00",
"%  c #777700",
"&  c #C6C600",
"*  c #030300",
"=  c #020200",
"-  c #F6F600",
";  c #262600",
":  c #727200",
">  c #6D6D00",
",  c #292900",
"<  c #F7F700",
"1  c #BEBE00",
"2  c #010100",
"3  c #040400",
"4  c #CACA00",
"5  c #F2F200",
"6  c #1F1F00",
"7  c #7C7C00",
"8  c #636300",
"9  c #303000",
"0  c #FAFA00",
"q  c #B4B400",
"w  c #060600",
"e  c #D2D200",
"r  c #EDED00",
"t  c #191900",
"y  c #868600",
"u  c #585800",
"i  c #383800",
"p  c #FCFC00",
"a  c black",
"s  c black",
"d  c black",
"f  c black",
"g  c black",
"h  c black",
"j  c black",
"k  c black",
"l  c black",
"z  c black",
"x  c black",
"c  c black",
"v  c black",
"b  c black",
"n  c black",
"m  c black",
"M  c black",
"N  c black",
"B  c black",
"V  c black",
"C  c black",
"Z  c black",
"A  c black",
"S  c black",
"D  c black",
"F  c black",
"G  c black",
"H  c black",
"J  c black",
"K  c black",
"L  c black",
"P  c black",
"I  c black",
"U  c black",
"Y  c black",
"T  c black",
"R  c black",
"E  c black",
"W  c black",
"Q  c black",
"!  c black",
"~  c black",
"^  c black",
"/  c black",
"(  c black",
")  c black",
"_  c black",
"`  c black",
"'  c black",
"]  c black",
"[  c black",
"{  c black",
"}  c black",
"|  c black",
" . c black",
".. c black",
"X. c black",
"o. c black",
"O. c black",
"+. c black",
"@. c black",
"#. c black",
"$. c black",
"%. c black",
"&. c black",
"*. c black",
"=. c black",
"-. c black",
";. c black",
":. c black",
">. c black",
",. c black",
"<. c black",
"1. c black",
"2. c black",
"3. c black",
"4. c black",
"5. c black",
"6. c black",
"7. c black",
"8. c black",
"9. c black",
"0. c black",
"q. c black",
"w. c black",
"e. c black",
"r. c black",
"t. c black",
"y. c black",
"u. c black",
"i. c black",
"p. c black",
"a. c black",
"s. c black",
"d. c black",
"f. c black",
"g. c black",
"h. c black",
"j. c black",
"k. c black",
"l. c black",
"z. c black",
"x. c black",
"c. c black",
"v. c black",
"b. c black",
"n. c black",
"m. c black",
"M. c black",
"N. c black",
"B. c black",
"V. c black",
"C. c black",
"Z. c black",
"A. c black",
"S. c black",
"D. c black",
"F. c black",
"G. c black",
"H. c black",
"J. c black",
"K. c black",
"L. c black",
"P. c black",
"I. c black",
"U. c black",
"Y. c black",
"T. c black",
"R. c black",
"E. c black",
"W. c black",
"Q. c black",
"!. c black",
"~. c black",
"^. c black",
"/. c black",
"(. c black",
"). c black",
"_. c black",
"`. c black",
"'. c black",
"]. c black",
"[. c black",
"{. c black",
"}. c black",
"|. c black",
" X c black",
".X c black",
"XX c black",
"oX c black",
"OX c black",
"+X c black",
"@X c black",
"#X c black",
"$X c black",
"%X c black",
"&X c black",
"*X c black",
"=X c black",
"-X c black",
";X c black",
":X c black",
">X c black",
",X c black",
"<X c black",
"1X c black",
"2X c black",
"3X c black",
"4X c black",
"5X c black",
"6X c black",
"7X c black",
"8X c black",
"9X c black",
"0X c black",
"qX c black",
"wX c black",
"eX c black",
"rX c black",
"tX c black",
"yX c black",
"uX c black",
"iX c black",
"pX c black",
"aX c black",
"sX c black",
"dX c black",
"fX c black",
"gX c black",
"hX c black",
"jX c black",
"kX c black",
"lX c black",
"zX c black",
"xX c black",
"cX c black",
"vX c black",
"bX c black",
"nX c black",
"mX c black",
"MX c black",
"NX c black",
"BX c black",
"VX c black",
"CX c black",
"ZX c black",
"AX c black",
"SX c black",
"DX c black",
"FX c black",
"GX c black",
"HX c black",
"JX c black",
"KX c black",
"LX c black",
"PX c black",
"IX c black",
"UX c black",
/* pixels */
"                                                                                                                                            ",
"                                                                                                                                            ",
"                                                                                                                                            ",
"                                                                                                                                            ",
"                                                                                                                                            ",
"                                                                                                                                            ",
"                                                                    . X o o o                                                               ",
"                                                                    O o o o o                                                               ",
"                                                                  + @ o o o o                                                               ",
"                                                                # $ o o o o o                                                               ",
"                                                                % o o o o o o                                                               ",
"                                                              & * o = o o o o                                                               ",
"                                                            - ; o o : o o o o                                                               ",
"                                                            > o o , < o o o o                                                               ",
"                                                          1 2 o 3 4   o o o o                                                               ",
"                                                        5 6 o o 7     o o o o                                                               ",
"                                                        8 o o 9 0     o o o o                                                               ",
"                                                      q o o w e       o o o o                                                               ",
"                                                    r t o o y         o o o o                                                               ",
"                                                    u o o i p         o o o o                                                               ",
"                                                    o o o o o o o o o o o o o o o o                                                         ",
"                                                    o o o o o o o o o o o o o o o o                                                         ",
"                                                    o o o o o o o o o o o o o o o o                                                         ",
"                                                    o o o o o o o o o o o o o o o o                                                         ",
"                                                                      o o o o                                                               ",
"                                                                      o o o o                                                               ",
"                                                                      o o o o                                                               ",
"                                                                      o o o o                                                               ",
"                                                                                                                                            ",
"                                                                                                                                            ",
"                                                                                                                                            ",
"                                                                                                                                            ",
"                                                                                                                                            ",
"                                                                                                                                            ",
"                                                                                                                                            "
};
