/* XPM */
static char *_[] = {
/* columns rows colors chars-per-pixel */
"70 35 256 2",
"   c yellow",
".  c #EAEA00",
"X  c black",
"o  c #C1C100",
"O  c #989800",
"+  c #6E6E00",
"@  c #454500",
"#  c #B8B800",
"$  c #1C1C00",
"%  c #E2E200",
"&  c #F2F200",
"*  c #0D0D00",
"=  c #C9C900",
"-  c #222200",
";  c #8E8E00",
":  c #515100",
">  c #151500",
",  c #202000",
"<  c #4E4E00",
"1  c #878700",
"2  c #F6F600",
"3  c #A0A000",
"4  c #242400",
"5  c #C2C200",
"6  c #767600",
"7  c #020200",
"8  c #C5C500",
"9  c #4D4D00",
"0  c #252500",
"q  c #F5F500",
"w  c #0E0E00",
"e  c #8D8D00",
"r  c #D0D000",
"t  c #E5E500",
"y  c #474700",
"u  c #888800",
"i  c #575700",
"p  c #2A2A00",
"a  c #D4D400",
"s  c #6D6D00",
"d  c #525200",
"f  c #D6D600",
"g  c #F4F400",
"h  c #0C0C00",
"j  c #6A6A00",
"k  c #434300",
"l  c #282800",
"z  c #BBBB00",
"x  c #D1D100",
"c  c #303000",
"v  c #333300",
"b  c #FEFE00",
"n  c #616100",
"m  c #595900",
"M  c #969600",
"N  c #4A4A00",
"B  c #A9A900",
"V  c #E9E900",
"C  c #A2A200",
"Z  c #464600",
"A  c #BFBF00",
"S  c #EEEE00",
"D  c #1D1D00",
"F  c #040400",
"G  c #2E2E00",
"H  c #B3B300",
"J  c #1E1E00",
"K  c #4F4F00",
"L  c #F3F300",
"P  c #858500",
"I  c #4B4B00",
"U  c #3C3C00",
"Y  c #717100",
"T  c #ABAB00",
"R  c #FDFD00",
"E  c black",
"W  c black",
"Q  c black",
"!  c black",
"~  c black",
"^  c black",
"/  c black",
"(  c black",
")  c black",
"_  c black",
"`  c black",
"'  c black",
"]  c black",
"[  c black",
"{  c black",
"}  c black",
"|  c black",
" . c black",
".. c black",
"X. c black",
"o. c black",
"O. c black",
"+. c black",
"@. c black",
"#. c black",
"$. c black",
"%. c black",
"&. c black",
"*. c black",
"=. c black",
"-. c black",
";. c black",
":. c black",
">. c black",
",. c black",
"<. c black",
"1. c black",
"2. c black",
"3. c black",
"4. c black",
"5. c black",
"6. c black",
"7. c black",
"8. c black",
"9. c black",
"0. c black",
"q. c black",
"w. c black",
"e. c black",
"r. c black",
"t. c black",
"y. c black",
"u. c black",
"i. c black",
"p. c black",
"a. c black",
"s. c black",
"d. c black",
"f. c black",
"g. c black",
"h. c black",
"j. c black",
"k. c black",
"l. c black",
"z. c black",
"x. c black",
"c. c black",
"v. c black",
"b. c black",
"n. c black",
"m. c black",
"M. c black",
"N. c black",
"B. c black",
"V. c black",
"C. c black",
"Z. c black",
"A. c black",
"S. c black",
"D. c black",
"F. c black",
"G. c black",
"H. c black",
"J. c black",
"K. c black",
"L. c black",
"P. c black",
"I. c black",
"U. c black",
"Y. c black",
"T. c black",
"R. c black",
"E. c black",
"W. c black",
"Q. c black",
"!. c black",
"~. c black",
"^. c black",
"/. c black",
"(. c black",
"). c black",
"_. c black",
"`. c black",
"'. c black",
"]. c black",
"[. c black",
"{. c black",
"}. c black",
"|. c black",
" X c black",
".X c black",
"XX c black",
"oX c black",
"OX c black",
"+X c black",
"@X c black",
"#X c black",
"$X c black",
"%X c black",
"&X c black",
"*X c black",
"=X c black",
"-X c black",
";X c black",
":X c black",
">X c black",
",X c black",
"<X c black",
"1X c black",
"2X c black",
"3X c black",
"4X c black",
"5X c black",
"6X c black",
"7X c black",
"8X c black",
"9X c black",
"0X c black",
"qX c black",
"wX c black",
"eX c black",
"rX c black",
"tX c black",
"yX c black",
"uX c black",
"iX c black",
"pX c black",
"aX c black",
"sX c black",
"dX c black",
"fX c black",
"gX c black",
"hX c black",
"jX c black",
"kX c black",
"lX c black",
"zX c black",
"xX c black",
"cX c black",
"vX c black",
"bX c black",
"nX c black",
"mX c black",
"MX c black",
"NX c black",
"BX c black",
"VX c black",
"CX c black",
"ZX c black",
"AX c black",
"SX c black",
"DX c black",
"FX c black",
"GX c black",
"HX c black",
"JX c black",
"KX c black",
"LX c black",
"PX c black",
"IX c black",
"UX c black",
/* pixels */
"                                                                                                                                            ",
"                                                                                                                                            ",
"                                                                                                                                            ",
"                                                                                                                                            ",
"                                                                                                                                            ",
"                                                                                                                                            ",
"                                                                                                                                            ",
"                                                                                                                                            ",
"                                                          . X X X X X X X X X X X X                                                         ",
"                                                          o X X X X X X X X X X X X                                                         ",
"                                                          O X X X X X X X X X X X X                                                         ",
"                                                          + X X X X X X X X X X X X                                                         ",
"                                                          @ X X X #                                                                         ",
"                                                          $ X X X %                                                                         ",
"                                                        & X X X *                                                                           ",
"                                                        = X X X - ; : > , < 1 2                                                             ",
"                                                        3 X X X X X X X X X X 4 5                                                           ",
"                                                        6 X X X X X X X X X X X 7 8                                                         ",
"                                                        9 X X X X X X X X X X X X 0 q                                                       ",
"                                                        4 X X X w e r t O y X X X X u                                                       ",
"                                                        u i p 4 a           s X X X d                                                       ",
"                                                                            f X X X 4                                                       ",
"                                                                            g X X X h                                                       ",
"                                                        j k l * z           x X X X c                                                       ",
"                                                        9 X X X v b         n X X X m                                                       ",
"                                                        M X X X X N B V C Z X X X X A                                                       ",
"                                                        S D X X X X X X X X X X X Z                                                         ",
"                                                          8 F X X X X X X X X X G %                                                         ",
"                                                            H J X X X X X X X K L                                                           ",
"                                                              q P I - * U Y T R                                                             ",
"                                                                                                                                            ",
"                                                                                                                                            ",
"                                                                                                                                            ",
"                                                                                                                                            ",
"                                                                                                                                            "
};
