/* XPM */
static char *_[] = {
/* columns rows colors chars-per-pixel */
"70 35 256 2",
"   c yellow",
".  c #D0D000",
"X  c #7E7E00",
"o  c #494900",
"O  c #141400",
"+  c #1A1A00",
"@  c #434300",
"#  c #979700",
"$  c #FDFD00",
"%  c #989800",
"&  c #060600",
"*  c black",
"=  c #323200",
"-  c #E9E900",
";  c #676700",
":  c #464600",
">  c #FEFE00",
",  c #C5C500",
"<  c #A8A800",
"1  c #4A4A00",
"2  c #505000",
"3  c #EEEE00",
"4  c #B1B100",
"5  c #282800",
"6  c #585800",
"7  c #CFCF00",
"8  c #3D3D00",
"9  c #B8B800",
"0  c #0B0B00",
"q  c #222200",
"w  c #393900",
"e  c #606000",
"r  c #808000",
"t  c #B4B400",
"y  c #636300",
"u  c #010100",
"i  c #F5F500",
"p  c #484800",
"a  c #1D1D00",
"s  c #FAFA00",
"d  c #818100",
"f  c #3C3C00",
"g  c #0E0E00",
"h  c #2D2D00",
"j  c #5F5F00",
"k  c #C8C800",
"l  c #2C2C00",
"z  c #2B2B00",
"x  c #383800",
"c  c #040400",
"v  c #7F7F00",
"b  c #FCFC00",
"n  c #111100",
"m  c #858500",
"M  c #090900",
"N  c #070700",
"B  c #D8D800",
"V  c #0F0F00",
"C  c #D5D500",
"Z  c #777700",
"A  c #696900",
"S  c #767600",
"D  c #575700",
"F  c #DCDC00",
"G  c #C7C700",
"H  c #717100",
"J  c #B6B600",
"K  c #AFAF00",
"L  c #4E4E00",
"P  c #7B7B00",
"I  c #262600",
"U  c #020200",
"Y  c #5E5E00",
"T  c #BEBE00",
"R  c #E2E200",
"E  c #8F8F00",
"W  c #161600",
"Q  c #6F6F00",
"!  c #999900",
"~  c #0A0A00",
"^  c #E0E000",
"/  c #F7F700",
"(  c #333300",
")  c #8A8A00",
"_  c #F6F600",
"`  c #868600",
"'  c #A5A500",
"]  c #616100",
"[  c #292900",
"{  c #0D0D00",
"}  c #D3D300",
"|  c black",
" . c black",
".. c black",
"X. c black",
"o. c black",
"O. c black",
"+. c black",
"@. c black",
"#. c black",
"$. c black",
"%. c black",
"&. c black",
"*. c black",
"=. c black",
"-. c black",
";. c black",
":. c black",
">. c black",
",. c black",
"<. c black",
"1. c black",
"2. c black",
"3. c black",
"4. c black",
"5. c black",
"6. c black",
"7. c black",
"8. c black",
"9. c black",
"0. c black",
"q. c black",
"w. c black",
"e. c black",
"r. c black",
"t. c black",
"y. c black",
"u. c black",
"i. c black",
"p. c black",
"a. c black",
"s. c black",
"d. c black",
"f. c black",
"g. c black",
"h. c black",
"j. c black",
"k. c black",
"l. c black",
"z. c black",
"x. c black",
"c. c black",
"v. c black",
"b. c black",
"n. c black",
"m. c black",
"M. c black",
"N. c black",
"B. c black",
"V. c black",
"C. c black",
"Z. c black",
"A. c black",
"S. c black",
"D. c black",
"F. c black",
"G. c black",
"H. c black",
"J. c black",
"K. c black",
"L. c black",
"P. c black",
"I. c black",
"U. c black",
"Y. c black",
"T. c black",
"R. c black",
"E. c black",
"W. c black",
"Q. c black",
"!. c black",
"~. c black",
"^. c black",
"/. c black",
"(. c black",
"). c black",
"_. c black",
"`. c black",
"'. c black",
"]. c black",
"[. c black",
"{. c black",
"}. c black",
"|. c black",
" X c black",
".X c black",
"XX c black",
"oX c black",
"OX c black",
"+X c black",
"@X c black",
"#X c black",
"$X c black",
"%X c black",
"&X c black",
"*X c black",
"=X c black",
"-X c black",
";X c black",
":X c black",
">X c black",
",X c black",
"<X c black",
"1X c black",
"2X c black",
"3X c black",
"4X c black",
"5X c black",
"6X c black",
"7X c black",
"8X c black",
"9X c black",
"0X c black",
"qX c black",
"wX c black",
"eX c black",
"rX c black",
"tX c black",
"yX c black",
"uX c black",
"iX c black",
"pX c black",
"aX c black",
"sX c black",
"dX c black",
"fX c black",
"gX c black",
"hX c black",
"jX c black",
"kX c black",
"lX c black",
"zX c black",
"xX c black",
"cX c black",
"vX c black",
"bX c black",
"nX c black",
"mX c black",
"MX c black",
"NX c black",
"BX c black",
"VX c black",
"CX c black",
"ZX c black",
"AX c black",
"SX c black",
"DX c black",
"FX c black",
"GX c black",
"HX c black",
"JX c black",
"KX c black",
"LX c black",
"PX c black",
"IX c black",
"UX c black",
/* pixels */
"                                                                                                                                            ",
"                                                                                                                                            ",
"                                                                                                                                            ",
"                                                                                                                                            ",
"                                                                                                                                            ",
"                                                                                                                                            ",
"                                                                                                                                            ",
"                                                                . X o O + @ # $                                                             ",
"                                                              % & * * * * * * = -                                                           ",
"                                                            ; * * * * * * * * * : >                                                         ",
"                                                          , * * * * * * * * * * * <                                                         ",
"                                                          1 * * * 2 . 3 4 5 * * * 6                                                         ",
"                                                        7 * * * 8         9 0 q w e                                                         ",
"                                                        r * * * t                                                                           ",
"                                                        y * * u i                                                                           ",
"                                                        p * * a s d f g h j k                                                               ",
"                                                        l * * z x * * * * * c v b                                                           ",
"                                                        n * * * * * * * * * * * m                                                           ",
"                                                        M * * * * * * * * * * * N B                                                         ",
"                                                        q * * * V X C . Z 0 * * * A                                                         ",
"                                                        f * * * S         ; * * * f                                                         ",
"                                                        D * * * F         G * * * n                                                         ",
"                                                        H * * * J         B * * * +                                                         ",
"                                                        K * * * L         P * * * @                                                         ",
"                                                        $ I * * U Y T R E W * * * Q                                                         ",
"                                                          ! * * * * * * * * * * ~ ^                                                         ",
"                                                          / ( * * * * * * * * * )                                                           ",
"                                                            _ 6 * * * * * * & ` b                                                           ",
"                                                                ' ] [ { x ; }                                                               ",
"                                                                                                                                            ",
"                                                                                                                                            ",
"                                                                                                                                            ",
"                                                                                                                                            ",
"                                                                                                                                            ",
"                                                                                                                                            "
};
