/* XPM */
static char *_[] = {
/* columns rows colors chars-per-pixel */
"70 35 256 2",
"   c yellow",
".  c #B3B300",
"X  c #585800",
"o  c #353500",
"O  c #111100",
"+  c #595900",
"@  c #B7B700",
"#  c #E0E000",
"$  c #424200",
"%  c black",
"&  c #464600",
"*  c #E3E300",
"=  c #F9F900",
"-  c #333300",
";  c #393900",
":  c #FBFB00",
">  c #838300",
",  c #0C0C00",
"<  c #6F6F00",
"1  c #CDCD00",
"2  c #D2D200",
"3  c #717100",
"4  c #868600",
"5  c #404000",
"6  c #727200",
"7  c #D3D300",
"8  c #121200",
"9  c #373700",
"0  c #CECE00",
"q  c #CBCB00",
"w  c #3D3D00",
"e  c #6D6D00",
"r  c #929200",
"t  c #DEDE00",
"y  c #1A1A00",
"u  c #0D0D00",
"i  c #747400",
"p  c #D0D000",
"a  c #737300",
"s  c #1B1B00",
"d  c #E7E700",
"f  c #EBEB00",
"g  c #4C4C00",
"h  c #515100",
"j  c #EDED00",
"k  c #F8F800",
"l  c #2B2B00",
"z  c #2F2F00",
"x  c #EAEA00",
"c  c #3B3B00",
"v  c #363600",
"b  c #E2E200",
"n  c #E5E500",
"m  c #1F1F00",
"M  c #030300",
"N  c #565600",
"B  c #C7C700",
"V  c #141400",
"C  c #959500",
"Z  c #6C6C00",
"A  c #555500",
"S  c #505000",
"D  c #BCBC00",
"F  c #AFAF00",
"G  c #4B4B00",
"H  c #E9E900",
"J  c #0F0F00",
"K  c #2A2A00",
"L  c #A2A200",
"P  c #A6A600",
"I  c #2D2D00",
"U  c #5F5F00",
"Y  c #5C5C00",
"T  c #040400",
"R  c #5B5B00",
"E  c #C5C500",
"W  c #5D5D00",
"Q  c #BABA00",
"!  c #696900",
"~  c #FCFC00",
"^  c #666600",
"/  c #020200",
"(  c #6B6B00",
")  c #F5F500",
"_  c #D8D800",
"`  c #676700",
"'  c #383800",
"]  c #101000",
"[  c #616100",
"{  c black",
"}  c black",
"|  c black",
" . c black",
".. c black",
"X. c black",
"o. c black",
"O. c black",
"+. c black",
"@. c black",
"#. c black",
"$. c black",
"%. c black",
"&. c black",
"*. c black",
"=. c black",
"-. c black",
";. c black",
":. c black",
">. c black",
",. c black",
"<. c black",
"1. c black",
"2. c black",
"3. c black",
"4. c black",
"5. c black",
"6. c black",
"7. c black",
"8. c black",
"9. c black",
"0. c black",
"q. c black",
"w. c black",
"e. c black",
"r. c black",
"t. c black",
"y. c black",
"u. c black",
"i. c black",
"p. c black",
"a. c black",
"s. c black",
"d. c black",
"f. c black",
"g. c black",
"h. c black",
"j. c black",
"k. c black",
"l. c black",
"z. c black",
"x. c black",
"c. c black",
"v. c black",
"b. c black",
"n. c black",
"m. c black",
"M. c black",
"N. c black",
"B. c black",
"V. c black",
"C. c black",
"Z. c black",
"A. c black",
"S. c black",
"D. c black",
"F. c black",
"G. c black",
"H. c black",
"J. c black",
"K. c black",
"L. c black",
"P. c black",
"I. c black",
"U. c black",
"Y. c black",
"T. c black",
"R. c black",
"E. c black",
"W. c black",
"Q. c black",
"!. c black",
"~. c black",
"^. c black",
"/. c black",
"(. c black",
"). c black",
"_. c black",
"`. c black",
"'. c black",
"]. c black",
"[. c black",
"{. c black",
"}. c black",
"|. c black",
" X c black",
".X c black",
"XX c black",
"oX c black",
"OX c black",
"+X c black",
"@X c black",
"#X c black",
"$X c black",
"%X c black",
"&X c black",
"*X c black",
"=X c black",
"-X c black",
";X c black",
":X c black",
">X c black",
",X c black",
"<X c black",
"1X c black",
"2X c black",
"3X c black",
"4X c black",
"5X c black",
"6X c black",
"7X c black",
"8X c black",
"9X c black",
"0X c black",
"qX c black",
"wX c black",
"eX c black",
"rX c black",
"tX c black",
"yX c black",
"uX c black",
"iX c black",
"pX c black",
"aX c black",
"sX c black",
"dX c black",
"fX c black",
"gX c black",
"hX c black",
"jX c black",
"kX c black",
"lX c black",
"zX c black",
"xX c black",
"cX c black",
"vX c black",
"bX c black",
"nX c black",
"mX c black",
"MX c black",
"NX c black",
"BX c black",
"VX c black",
"CX c black",
"ZX c black",
"AX c black",
"SX c black",
"DX c black",
"FX c black",
"GX c black",
"HX c black",
"JX c black",
"KX c black",
"LX c black",
"PX c black",
"IX c black",
"UX c black",
/* pixels */
"                                                                                                                                            ",
"                                                                                                                                            ",
"                                                                                                                                            ",
"                                                                                                                                            ",
"                                                                                                                                            ",
"                                                                                                                                            ",
"                                                              . X o O O o + @                                                               ",
"                                                          # $ % % % % % % % % & *                                                           ",
"                                                        = - % % % % % % % % % % ; :                                                         ",
"                                                        > % % % , < 1 2 3 , % % % 4                                                         ",
"                                                        5 % % % 6         6 % % % $                                                         ",
"                                                        O % % % 2         7 % % % 8                                                         ",
"                                                        9 % % % 0         q % % % w                                                         ",
"                                                        4 % % % 3         e % % % r                                                         ",
"                                                        t y % % u i 2 p a , % % s d                                                         ",
"                                                          f g % % % % % % % % h j                                                           ",
"                                                            k l % % % % % % z k                                                             ",
"                                                          x c % % % % % % % % v b                                                           ",
"                                                        n m % % M N B B N M % % V *                                                         ",
"                                                        C % % % Z         A % % % C                                                         ",
"                                                        S % % % D         F % % % G                                                         ",
"                                                        8 % % % H         x % % % J                                                         ",
"                                                        K % % % L         P % % % I                                                         ",
"                                                        U % % % S         A % % % Y                                                         ",
"                                                        F % % % T R E 1 W T % % % Q                                                         ",
"                                                          6 % % % % % % % % % % !                                                           ",
"                                                          ~ ^ M % % % % % % / ( )                                                           ",
"                                                              _ ` ' V ] ' [ q                                                               ",
"                                                                                                                                            ",
"                                                                                                                                            ",
"                                                                                                                                            ",
"                                                                                                                                            ",
"                                                                                                                                            ",
"                                                                                                                                            ",
"                                                                                                                                            "
};
