/* XPM */
static char *_[] = {
/* columns rows colors chars-per-pixel */
"70 35 256 2",
"   c yellow",
".  c #CBCB00",
"X  c #616100",
"o  c #353500",
"O  c #0D0D00",
"+  c #232300",
"@  c #505000",
"#  c #858500",
"$  c #F4F400",
"%  c #F7F700",
"&  c #717100",
"*  c #030300",
"=  c black",
"-  c #212100",
";  c #BCBC00",
":  c #767600",
">  c #B9B900",
",  c #CFCF00",
"<  c #040400",
"1  c #FEFE00",
"2  c #676700",
"3  c #161600",
"4  c #8C8C00",
"5  c #E1E100",
"6  c #BBBB00",
"7  c #5A5A00",
"8  c #020200",
"9  c #C4C400",
"0  c #3F3F00",
"q  c #7D7D00",
"w  c #4C4C00",
"e  c #7B7B00",
"r  c #171700",
"t  c #D7D700",
"y  c #B6B600",
"u  c #535300",
"i  c #101000",
"p  c #DBDB00",
"a  c #2C2C00",
"s  c #383800",
"d  c #6C6C00",
"f  c #191900",
"g  c #D2D200",
"h  c #D8D800",
"j  c #828200",
"k  c #0F0F00",
"l  c #0E0E00",
"z  c #C2C200",
"x  c #010100",
"c  c #686800",
"v  c #070700",
"b  c #F3F300",
"n  c #5F5F00",
"m  c #292900",
"M  c #131300",
"N  c #565600",
"B  c #272700",
"V  c #3C3C00",
"C  c #818100",
"Z  c #F9F900",
"A  c #1B1B00",
"S  c #1F1F00",
"D  c #B1B100",
"F  c #666600",
"G  c #626200",
"H  c #3B3B00",
"J  c #0B0B00",
"K  c #B8B800",
"L  c #3A3A00",
"P  c #989800",
"I  c #282800",
"U  c #EEEE00",
"Y  c #D1D100",
"T  c #4F4F00",
"R  c #EAEA00",
"E  c #A0A000",
"W  c #5B5B00",
"Q  c #FBFB00",
"!  c #1E1E00",
"~  c #ECEC00",
"^  c #DFDF00",
"/  c #5E5E00",
"(  c #EFEF00",
")  c #F8F800",
"_  c #898900",
"`  c #3E3E00",
"'  c #121200",
"]  c #6B6B00",
"[  c black",
"{  c black",
"}  c black",
"|  c black",
" . c black",
".. c black",
"X. c black",
"o. c black",
"O. c black",
"+. c black",
"@. c black",
"#. c black",
"$. c black",
"%. c black",
"&. c black",
"*. c black",
"=. c black",
"-. c black",
";. c black",
":. c black",
">. c black",
",. c black",
"<. c black",
"1. c black",
"2. c black",
"3. c black",
"4. c black",
"5. c black",
"6. c black",
"7. c black",
"8. c black",
"9. c black",
"0. c black",
"q. c black",
"w. c black",
"e. c black",
"r. c black",
"t. c black",
"y. c black",
"u. c black",
"i. c black",
"p. c black",
"a. c black",
"s. c black",
"d. c black",
"f. c black",
"g. c black",
"h. c black",
"j. c black",
"k. c black",
"l. c black",
"z. c black",
"x. c black",
"c. c black",
"v. c black",
"b. c black",
"n. c black",
"m. c black",
"M. c black",
"N. c black",
"B. c black",
"V. c black",
"C. c black",
"Z. c black",
"A. c black",
"S. c black",
"D. c black",
"F. c black",
"G. c black",
"H. c black",
"J. c black",
"K. c black",
"L. c black",
"P. c black",
"I. c black",
"U. c black",
"Y. c black",
"T. c black",
"R. c black",
"E. c black",
"W. c black",
"Q. c black",
"!. c black",
"~. c black",
"^. c black",
"/. c black",
"(. c black",
"). c black",
"_. c black",
"`. c black",
"'. c black",
"]. c black",
"[. c black",
"{. c black",
"}. c black",
"|. c black",
" X c black",
".X c black",
"XX c black",
"oX c black",
"OX c black",
"+X c black",
"@X c black",
"#X c black",
"$X c black",
"%X c black",
"&X c black",
"*X c black",
"=X c black",
"-X c black",
";X c black",
":X c black",
">X c black",
",X c black",
"<X c black",
"1X c black",
"2X c black",
"3X c black",
"4X c black",
"5X c black",
"6X c black",
"7X c black",
"8X c black",
"9X c black",
"0X c black",
"qX c black",
"wX c black",
"eX c black",
"rX c black",
"tX c black",
"yX c black",
"uX c black",
"iX c black",
"pX c black",
"aX c black",
"sX c black",
"dX c black",
"fX c black",
"gX c black",
"hX c black",
"jX c black",
"kX c black",
"lX c black",
"zX c black",
"xX c black",
"cX c black",
"vX c black",
"bX c black",
"nX c black",
"mX c black",
"MX c black",
"NX c black",
"BX c black",
"VX c black",
"CX c black",
"ZX c black",
"AX c black",
"SX c black",
"DX c black",
"FX c black",
"GX c black",
"HX c black",
"JX c black",
"KX c black",
"LX c black",
"PX c black",
"IX c black",
"UX c black",
/* pixels */
"                                                                                                                                            ",
"                                                                                                                                            ",
"                                                                                                                                            ",
"                                                                                                                                            ",
"                                                                                                                                            ",
"                                                                                                                                            ",
"                                                                  . X o O + @ # $                                                           ",
"                                                              % & * = = = = = = - ;                                                         ",
"                                                              : = = = = = = = = = = >                                                       ",
"                                                            , < = = = = = = = = = = - 1                                                     ",
"                                                            2 = = = 3 4 5 6 7 8 = = = 9                                                     ",
"                                                            0 = = = q         w = = = e                                                     ",
"                                                            r = = = t         y = = = u                                                     ",
"                                                            i = = = .         p = = = a                                                     ",
"                                                            s = = = d         : = = = f                                                     ",
"                                                            X = = = O e g h j k = = = l                                                     ",
"                                                            z x = = = = = = = = = = = <                                                     ",
"                                                              c = = = = = = = = = = = v                                                     ",
"                                                              b n = = = = = = o m = = M                                                     ",
"                                                                  > N B O V C Z A = = S                                                     ",
"                                                                              b = = = V                                                     ",
"                                                                              D = = = F                                                     ",
"                                                            G H + J K         L = = = P                                                     ",
"                                                            u = = = I D U Y T = = = < R                                                     ",
"                                                            E = = = = = = = = = = = W                                                       ",
"                                                            Q s = = = = = = = = = ! ~                                                       ",
"                                                              ^ + = = = = = = = / (                                                         ",
"                                                                ) _ ` 3 ' ` ] >                                                             ",
"                                                                                                                                            ",
"                                                                                                                                            ",
"                                                                                                                                            ",
"                                                                                                                                            ",
"                                                                                                                                            ",
"                                                                                                                                            ",
"                                                                                                                                            "
};
