/* XPM */
static char *change[] = {
/* columns rows colors chars-per-pixel */
"140 35 185 2",
"   c #FFFF00",
".  c #FEFE00",
"X  c #ACAC00",
"o  c #747400",
"O  c #484800",
"+  c #1C1C00",
"@  c #101000",
"#  c #3A3A00",
"$  c #666600",
"%  c #A6A600",
"&  c #000000",
"*  c #DCDC00",
"=  c #414100",
"-  c #424200",
";  c #A3A300",
":  c #0A0A00",
">  c #090900",
",  c #C7C700",
"<  c #E1E100",
"1  c #0B0B00",
"2  c #212100",
"3  c #F2F200",
"4  c #4D4D00",
"5  c #030300",
"6  c #6D6D00",
"7  c #C5C500",
"8  c #EFEF00",
"9  c #CECE00",
"0  c #808000",
"q  c #282800",
"w  c #939300",
"e  c #B8B800",
"r  c #010100",
"t  c #BDBD00",
"y  c #EAEA00",
"u  c #151500",
"i  c #313100",
"p  c #FAFA00",
"a  c #898900",
"s  c #3B3B00",
"d  c #0F0F00",
"f  c #292900",
"g  c #676700",
"h  c #C0C000",
"j  c #575700",
"k  c #070700",
"l  c #181800",
"z  c #383800",
"x  c #838300",
"c  c #F7F700",
"v  c #BABA00",
"b  c #555500",
"n  c #1A1A00",
"m  c #202000",
"M  c #5B5B00",
"N  c #DFDF00",
"B  c #ECEC00",
"V  c #6B6B00",
"C  c #2F2F00",
"Z  c #131300",
"A  c #BBBB00",
"S  c #929200",
"D  c #1E1E00",
"F  c #4F4F00",
"G  c #959500",
"H  c #7C7C00",
"J  c #656500",
"K  c #AAAA00",
"L  c #1F1F00",
"P  c #5F5F00",
"I  c #9F9F00",
"U  c #2C2C00",
"Y  c #232300",
"T  c #E5E500",
"R  c #757500",
"E  c #E9E900",
"W  c #909000",
"Q  c #141400",
"!  c #D8D800",
"~  c #D2D200",
"^  c #C3C300",
"/  c #EBEB00",
"(  c #464600",
")  c #545400",
"_  c #797900",
"`  c #A9A900",
"'  c #242400",
"]  c #EDED00",
"[  c #B2B200",
"{  c #404000",
"}  c #5C5C00",
"|  c #303000",
" . c #121200",
".. c #535300",
"X. c #515100",
"o. c #E0E000",
"O. c #2A2A00",
"+. c #363600",
"@. c #B5B500",
"#. c #B7B700",
"$. c #AFAF00",
"%. c #E2E200",
"&. c #474700",
"*. c #080800",
"=. c #777700",
"-. c #6C6C00",
";. c #050500",
":. c #C4C400",
">. c #B0B000",
",. c #BEBE00",
"<. c #252500",
"1. c #969600",
"2. c #DBDB00",
"3. c #171700",
"4. c #F6F600",
"5. c #0C0C00",
"6. c #111100",
"7. c #878700",
"8. c #7E7E00",
"9. c #5E5E00",
"0. c #8F8F00",
"q. c #989800",
"w. c #646400",
"e. c #222200",
"r. c #D3D300",
"t. c #AEAE00",
"y. c #020200",
"u. c #323200",
"i. c #D9D900",
"p. c #D5D500",
"a. c #CFCF00",
"s. c #DDDD00",
"d. c #4B4B00",
"f. c #BCBC00",
"g. c #FDFD00",
"h. c #F9F900",
"j. c #A1A100",
"k. c #F4F400",
"l. c #F1F100",
"z. c #262600",
"x. c #616100",
"c. c #A5A500",
"v. c #3E3E00",
"b. c #0D0D00",
"n. c #F5F500",
"m. c #A0A000",
"M. c #DADA00",
"N. c #3C3C00",
"B. c #CBCB00",
"V. c #868600",
"C. c #E7E700",
"Z. c #4E4E00",
"A. c #8E8E00",
"S. c #D6D600",
"D. c #060600",
"F. c #FBFB00",
"G. c #ABAB00",
"H. c #7D7D00",
"J. c #686800",
"K. c #040400",
"L. c #A2A200",
"P. c #858500",
"I. c #4C4C00",
"U. c #949400",
"Y. c #272700",
"T. c #393900",
"R. c #D1D100",
"E. c #343400",
"W. c #585800",
"Q. c #565600",
"!. c #CACA00",
"~. c #373700",
"^. c #6F6F00",
"/. c #2E2E00",
"(. c #191900",
"). c #F8F800",
"_. c #595900",
"`. c #0E0E00",
"'. c #3F3F00",
"]. c #767600",
"[. c #626200",
"{. c #1D1D00",
"}. c #979700",
"|. c #F3F300",
" X c #9C9C00",
/* pixels */
"                                                                                                                                                                                                                                                                                        ",
"                                                                                                                                                                                                                                                                                        ",
"                                                                                                                                                                                                                                                                                        ",
"                                                                                                                                                                                                                                                                                        ",
"                                                                                                                                                                                                                                                                                        ",
"                                                                                                                                                                                                                                                                                        ",
"                                                                                                                                                                                                                                                                                        ",
"                                                . X o O + @ # $ %               & & & &                                                                                                                                                                                                 ",
"                                              * = & & & & & & & & - *           & & & &                                                                                                                                                                                                 ",
"                                            ; : & & & & & & & & & & > ,         & & & &                                                                                                                                                                                                 ",
"                                          < 1 & & & & & & & & & & & & 2 3       & & & &                                                                                                                                                                                                 ",
"                                          4 & & & 5 6 7 8 9 0 q & & & & w       & & & &                                                                                                                                                                                                 ",
"                                        e & & & r t           y u & & & i       & & & & p a s d f g y             h j f d k l z x c         & & & &   v b n m M N             B V C Z b A   & & & &           . S O u D F G .                                                           ",
"                                        H & & & J               K L P I N       & & & & U & & & & & Y T         R & & & & & & & & z E       & & & & W 5 & & & & Q !         ~ m & & & & k ^ & & & &         / ( & & & & & & O /                                                         ",
"                                        ) & & & t                               & & & & & & & & & & & _       ` & & ' e ] [ { & & & }       & & & & & & & & & & & g       . | & & & & & &  .& & & &         ..& & & & & & & & X.                                                        ",
"                                        U & & & o.                              & & & &  .e T ) & & & O.      +.& & @.      #.& & & L       & & & & Z $.%.&.& & & '       ` & & & *.=.* -.;.& & & &       :.& & & D >.,.<.& & r ~                                                       ",
"                                        : & & & c                               & & & & 1.    2.& & & 3.                    4.& & & 5.      & & & & 1.    9 & & & 6.      ..& & & 7.      8.& & & &       9.& & & 0.    q.& & & w.                                                      ",
"                                        e.& & & *                               & & & & r.    4.& & & k               y t.R f & & & &       & & & & %.    3 & & & y.      u.& & & i.      p.& & & &       z & & & a.    s.& & & {                                                       ",
"                                        d.& & & f.                              & & & & B     g.& & & &         h.j.&.5 & & & & & & &       & & & & 4.    p & & & &       6.& & & k.      l.& & & &       Q & & & & & & & & & & z.                                                      ",
"                                        o & & & x.              c.L P I N       & & & &         & & & &       B v.& & & u =.~ & & & &       & & & & g.      & & & &       5.& & & 3       < & & & &       b.& & & & & & & & & & 5.                                                      ",
"                                        K & & & y.^           < d & & & z       & & & &         & & & &       $ & & & x.4.  n.& & & &       & & & &         & & & &       f & & & !       m.& & & &       U & & & M.                                                                    ",
"                                        . N.& & & ;.=.B.3 B.V.q & & & & `       & & & &         & & & &       ' & & & 2.    C.& & & & g.    & & & &         & & & &       Z.& & & 7.      P & & & &       ..& & & A.                                                                    ",
"                                          S.D.& & & & & & & & & & & & <.F.      & & & &         & & & &       u & & & 9     0.& & & & B     & & & &         & & & &       G.& & & > H.2.J.K.& & & &       e & & & + L.B P.L P I N                                                       ",
"                                            1.;.& & & & & & & & & & l *         & & & &         & & & &       Z.& & & I.2.U.6.& & & & i.    & & & &         & & & &       F.' & & & & & & Y.& & & &         T.& & & & & & & & & =.                                                      ",
"                                              R.u.& & & & & & & & u.r.          & & & &         & & & &       2.5.& & & & & & D & & & %     & & & &         & & & &         o.2 & & & & u s.& & & K.        l.d.& & & & & & & J.                                                        ",
"                                                F.m.V v.6.Z E.W.#.              & & & &         & & & &         o.} e.> q Q.!.R.& & & ~.    & & & &         & & & &           %.^./.(.w.~ ).& & & 6.          g.1._.q `.'.].t.g.                                                        ",
"                                                                                                                                                                                          i.& & & O.                                                                                    ",
"                                                                                                                                                                          U P I N     y v N.& & & [.                                                                                    ",
"                                                                                                                                                                          d.& & & & & & & & & & *.*                                                                                     ",
"                                                                                                                                                                          < {.& & & & & & & & *.}.                                                                                      ",
"                                                                                                                                                                            |. X( f Z D.m '.-.<                                                                                         ",
"                                                                                                                                                                                                                                                                                        ",
"                                                                                                                                                                                                                                                                                        ",
"                                                                                                                                                                                                                                                                                        ",
"                                                                                                                                                                                                                                                                                        "
};
