/* XPM */
static char *ClubK[] = {
/* columns rows colors chars-per-pixel */
"71 96 5 1",
"  c black",
". c red",
"X c yellow",
"o c cyan",
"O c gray100",
/* pixels */
"OO                                                                   OO",
"O OOOOOOOOOOOOOOOOOOOOOOOOOOOOOOOOOOOOOOOOOOOOOOOOOOOOOOOOOOOOOOOOOOO O",
" OOOOOOOOOOOOOOOOOOOOOOOOOOOOOOOOOOOOOOOOOOOOOOOOOOOOOOOOOOOOOOOOOOOOO ",
" OOOOOOOOOOOOOOOOOOOOOOOOOOOOOOOOOOOOOOOOOOOOOOOOOOOOOOOOOOOOOOOOOOOOO ",
" O    O    OOOOOOOOOOOOOOOOOOOOOOOOOOOOOOOOOOOOOOOOOOOOOOOOOOOOOOOOOOO ",
" O    O    OOOOOOOOOOOOOOOOOOOOOOOOOOOOOOOOOOOOOOOOOOOOOOOOOOOOOOOOOOO ",
" OO  OO  OOOOOOOOOOOOOOOOOOOOOOOOOOOOOOOOOOOOOOOOOOOOOOOOOOOOOOOOOOOOO ",
" OO  O  OOOOOOOOOOOOOOOOOOOOOOOOOOOOOOOOOOOOOOOOOOOOOOOOOOOOOOOOOOOOOO ",
" OO    OOOOOOOOOOOOOOOOOOOOOOOOOOOOOOOOOOOOOOOOOOOOOOOOOOOOOOOOOOOOOOO ",
" OO   OOOOOOOOOOOOOOOOOOOOOOOOOOOOOOOOOOOOOOOOOOOOOOOOOOOOOOOOOOOOOOOO ",
" OO    OOOOOOOOOOOOOOOOOOOOOOOOOOOOOOOOOOOOOOOOOOOOOOOOOOOOOOOOOOOOOOO ",
" OO  O  OOOO                                               OOOOOOOOOOO ",
" OO  OO  OOO OOOOOOOOOOOOOOOO XXX XXX XXX XXXXXXXX OOOOOOO OOOOOOOOOOO ",
" OO  OOO  OO OOOOOOO   OOOOOOO X   X   X   XX XXX OOOOOOOO OOOOOOOOOOO ",
" O    O    O OOOOOO     OOOOOOO ............   X OOOOOOOOO OOOOOOOOOOO ",
" O    O    O OOOOO       OOOOOOO            ... OOOOOOOO O OOOOOOOOOOO ",
" OOOOOOOOOOO OOOOO       OOOOOOO                OOOOOOO    OOOOOOOOOOO ",
" OOOOOOOOOOO OOOOO       OOOOOO  OOOOOOOO O     OOOOOO O . OOOOOOOOOOO ",
" OOOO   OOOO OOOOOO     OOOOOO O OOOOOOOO O O   OOOOOO O . OOOOOOOOOOO ",
" OOO     OOO OOO   O   O   OOO O    O     O O O OOOOOO O . OOOOOOOOOOO ",
" OOO     OOO OO             OO     O   O  O O O OOOOOO O . OOOOOOOOOOO ",
" OO O   O OO O               O O OOO OOOO O O O OOOOOO O . OOOOOOOOOOO ",
" O         O O               O O OOO OOOO O O O OOOOOO O . OOOOOOOOOOO ",
" O         O O               O O OOO OOOO O O O OOOOOO O . OOOOOOOOOOO ",
" O         O OO     O O     OO O OO   OOO O O O OOOOOO O . OOOOOOOOOOO ",
" OO  O O  OO OOO   OO OO   OO OO   OOO  O O O O   OOOO O . OOOOOOOOOOO ",
" OOOOo oOOOO OOOOOOO   OOOOOO    OO   OOO O O O OO OOO O . OOOOOOOOOOO ",
" OOOO   OOOO OOOOOO     OOOOOO O OOOOOOOO O OO O O  OO O . OOOOOOOOOOO ",
" OOOOOOOOOOO OOOOOOOOOOOOOOO   O O OOO O  O O   O  .   O . OOOOOOOOOOO ",
" OOOOOOOOOOO OOOOOOOOOOOOOO OO O O O O O O  O O O .... O . OOOOOOOOOOO ",
" OOOOOOOOOOO OOOOOOOOOOOOOO O OO O O O O  O OOO  .X... O . OOOOOOOOOOO ",
" OOOOOOOOOOO OOOOOOOOOOO    OOO O O . O OO .   ..XX... O . OOOOOOOOOOO ",
" OOOOOOOOOOO OOOOOOOO            . ... .  .... .....X  O . OOOOOOOOOOO ",
" OOOOOOOOOOO OOOOO   .. XX  O  X  ..........  .X.... O O . OOOOOOOOOOO ",
" OOOOOOOOOOO OOOO ...... XX     X   ......   .XX..X OO O . OOOOOOOOOOO ",
" OOOOOOOOOOO OO  .O.O.O.O XX  O X X   ..   X ..... OO  O . OOOOOOOOOOO ",
" OOOOOOOOOOO O   ......... XX    X X      X ....X OO   O . OOOOOOOOOOO ",
" OOOOOOOOOOO .   O.O.O.O.O. XX   X XX    XX .X... O    O . OOOOOOOOOOO ",
" OOOOOOOOOOO .   ..........  X.   X  X  X  .XX.. OO    O . OOOOOOOOOOO ",
" OOOOOOOOOOO .   .O.O.O.O.O   X.  X XXXXXX ....X O  .  O . OOOOOOOOOOO ",
" OOOOOOOOOOO .   .....    .  . X   X   .   ..... O     O . OOOOOOOOOOO ",
" OOOOOOOOOOO  XX  .O. OOOO      X  X XXXXX .X.X OO  .  O . OOOOOOOOOOO ",
" OOOOOOOOOOO XXXX .. OO  OO  .. X  X   .  .XX.. O      O . OOOOOOOOOOO ",
" OOOOOOOOOOO  XX   . O .. O      X  X XXX ....X O        . OOOOOOOOOOO ",
" OOOOOOOOOOO         O .. O  ... X  X  .  ..... O   OO OO  OOOOOOOOOOO ",
" OOOOOOOOOOO  ..     OO  OO       X X XXX ..X.X O  OOOO    OOOOOOOOOOO ",
" OOOOOOOOOOO          OOOO                .XX.. O  O  OOO  OOOOOOOOOOO ",
" OOOOOOOOOOO  OO OO       .. OOOO ...      ...X O  OOO     OOOOOOOOOOO ",
" OOOOOOOOOOO     OOO  O X...      ... OOOO ..       OO OO  OOOOOOOOOOO ",
" OOOOOOOOOOO  OOO  O  O ..XX.                OOOO          OOOOOOOOOOO ",
" OOOOOOOOOOO    OOOO  O X.X.. XXX X X       OO  OO     ..  OOOOOOOOOOO ",
" OOOOOOOOOOO  OO OO   O .....  .  X  X ...  O .. O         OOOOOOOOOOO ",
" OOOOOOOOOOO .        O X.... XXX X  X      O .. O .   XX  OOOOOOOOOOO ",
" OOOOOOOOOOO . O      O ..XX.  .   X  X ..  OO  OO .. XXXX OOOOOOOOOOO ",
" OOOOOOOOOOO . O  .  OO X.X. XXXXX X  X      OOOO .O.  XX  OOOOOOOOOOO ",
" OOOOOOOOOOO . O     O .....   .   X   X .  .    .....   . OOOOOOOOOOO ",
" OOOOOOOOOOO . O  .  O X.... XXXXXX X  .X   O.O.O.O.O.   . OOOOOOOOOOO ",
" OOOOOOOOOOO . O    OO ..XX.  X  X  X   .X  ..........   . OOOOOOOOOOO ",
" OOOOOOOOOOO . O    O ...X. XX    XX X   XX .O.O.O.O.O   . OOOOOOOOOOO ",
" OOOOOOOOOOO . O   OO X.... X      X X    XX .........   O OOOOOOOOOOO ",
" OOOOOOOOOOO . O  OO ..... X   ..   X X O  XX O.O.O.O.  OO OOOOOOOOOOO ",
" OOOOOOOOOOO . O OO X..XX.   ......   X     XX ...... OOOO OOOOOOOOOOO ",
" OOOOOOOOOOO . O O ....X.  ..........  X  O  XX ..   OOOOO OOOOOOOOOOO ",
" OOOOOOOOOOO . O  X..... ....  . ... .            OOOOOOOO OOOOOOOOOOO ",
" OOOOOOOOOOO . O ...XX..   . OO O . O O OOO    OOOOOOOOOOO OOOOOOOOOOO ",
" OOOOOOOOOOO . O ...X.  OOO O  O O O O OO O OOOOOOOOOOOOOO OOOOOOOOOOO ",
" OOOOOOOOOOO . O .... O O O  O O O O O O OO OOOOOOOOOOOOOO OOOOOOOOOOO ",
" OOOOOOOOOOO . O   .  O   O O  O OOO O O   OOOOOOOOOOOOOOO OOOOOOOOOOO ",
" OOOOOOOOOOO . O OO  O O OO O OOOOOOOO O OOOOOO     OOOOOO OOOO   OOOO ",
" OOOOOOOOOOO . O OOO OO O O O OOO   OO    OOOOOO   OOOOOOO OOOOO OOOOO ",
" OOOOOOOOOOO . O OOOO   O O O O  OOO   OO OO   OO OO   OOO OO  O O  OO ",
" OOOOOOOOOOO . O OOOOOO O O O OOO   OO O OO     O O     OO O         O ",
" OOOOOOOOOOO . O OOOOOO O O O OOOO OOO O O               O O         O ",
" OOOOOOOOOOO . O OOOOOO O O O OOOO OOO O O               O O         O ",
" OOOOOOOOOOO . O OOOOOO O O O OOOO OOO O O               O OO O   O OO ",
" OOOOOOOOOOO . O OOOOOO O O O  O   O     OO             OO OOO     OOO ",
" OOOOOOOOOOO . O OOOOOO O O O     O    O OOO   O   O   OOO OOO     OOO ",
" OOOOOOOOOOO . O OOOOOO   O O OOOOOOOO O OOOOOO     OOOOOO OOOO   OOOO ",
" OOOOOOOOOOO . O OOOOOO     O OOOOOOOO  OOOOOO       OOOOO OOOOOOOOOOO ",
" OOOOOOOOOOO    OOOOOOO                OOOOOOO       OOOOO OOOOOOOOOOO ",
" OOOOOOOOOOO O OOOOOOOO ...            OOOOOOO       OOOOO O    O    O ",
" OOOOOOOOOOO OOOOOOOOO X   ............ OOOOOOO     OOOOOO O    O    O ",
" OOOOOOOOOOO OOOOOOOO XXX XX   X   X   X OOOOOOO   OOOOOOO OO  OOO  OO ",
" OOOOOOOOOOO OOOOOOO XXXXXXXX XXX XXX XXX OOOOOOOOOOOOOOOO OOO  OO  OO ",
" OOOOOOOOOOO                                               OOOO  O  OO ",
" OOOOOOOOOOOOOOOOOOOOOOOOOOOOOOOOOOOOOOOOOOOOOOOOOOOOOOOOOOOOOOO    OO ",
" OOOOOOOOOOOOOOOOOOOOOOOOOOOOOOOOOOOOOOOOOOOOOOOOOOOOOOOOOOOOOOOO   OO ",
" OOOOOOOOOOOOOOOOOOOOOOOOOOOOOOOOOOOOOOOOOOOOOOOOOOOOOOOOOOOOOOO    OO ",
" OOOOOOOOOOOOOOOOOOOOOOOOOOOOOOOOOOOOOOOOOOOOOOOOOOOOOOOOOOOOOO  O  OO ",
" OOOOOOOOOOOOOOOOOOOOOOOOOOOOOOOOOOOOOOOOOOOOOOOOOOOOOOOOOOOOO  OO  OO ",
" OOOOOOOOOOOOOOOOOOOOOOOOOOOOOOOOOOOOOOOOOOOOOOOOOOOOOOOOOOO    O    O ",
" OOOOOOOOOOOOOOOOOOOOOOOOOOOOOOOOOOOOOOOOOOOOOOOOOOOOOOOOOOO    O    O ",
" OOOOOOOOOOOOOOOOOOOOOOOOOOOOOOOOOOOOOOOOOOOOOOOOOOOOOOOOOOOOOOOOOOOOO ",
" OOOOOOOOOOOOOOOOOOOOOOOOOOOOOOOOOOOOOOOOOOOOOOOOOOOOOOOOOOOOOOOOOOOOO ",
"O OOOOOOOOOOOOOOOOOOOOOOOOOOOOOOOOOOOOOOOOOOOOOOOOOOOOOOOOOOOOOOOOOOO O",
"OO                                                                   OO"
};
