/* XPM */
static char *ClubJ[] = {
/* columns rows colors chars-per-pixel */
"71 96 6 1",
"  c black",
". c red",
"X c green",
"o c yellow",
"O c cyan",
"+ c gray100",
/* pixels */
"++                                                                   ++",
"+ +++++++++++++++++++++++++++++++++++++++++++++++++++++++++++++++++++ +",
" +++++++++++++++++++++++++++++++++++++++++++++++++++++++++++++++++++++ ",
" +++++++++++++++++++++++++++++++++++++++++++++++++++++++++++++++++++++ ",
" +++++    ++++++++++++++++++++++++++++++++++++++++++++++++++++++++++++ ",
" +++++    ++++++++++++++++++++++++++++++++++++++++++++++++++++++++++++ ",
" ++++++  +++++++++++++++++++++++++++++++++++++++++++++++++++++++++++++ ",
" ++++++  +++++++++++++++++++++++++++++++++++++++++++++++++++++++++++++ ",
" ++++++  +++++++++++++++++++++++++++++++++++++++++++++++++++++++++++++ ",
" ++++++  +++++++++++++++++++++++++++++++++++++++++++++++++++++++++++++ ",
" ++++++  +++++++++++++++++++++++++++++++++++++++++++++++++++++++++++++ ",
" ++++++  +++                                               +++++++++++ ",
" ++  ++  +++ ++++++++  .. ... . .. . ... . +++++++++++++++ +++++++++++ ",
" ++  ++  +++  ++++++++  .. .. . .. . .. . ++++++   +++++++ +++++++++++ ",
" ++      +++ . +++++++   ..   .    .   . ++++++     ++++++ +++++++++++ ",
" +++    ++++ .. +++++ XX ..............  +++++       +++++ +++++++++++ ",
" +++++++++++ ... ++++ X                 ++++++       +++++ +++++++++++ ",
" +++++++++++      +++XX  ++++++++ o o o ++++++       +++++ +++++++++++ ",
" ++++   ++++ ooo +++ XX  ++++++++ o o o +++++++     ++++++ +++++++++++ ",
" +++     +++  oo +++   o    +   + o o o ++++   +   +   +++ +++++++++++ ",
" +++     +++ ooo +++++ o   +   +  o o o +++             ++ +++++++++++ ",
" ++ +   + ++  oo +++++ o +++ ++++ o o o ++               + +++++++++++ ",
" +         + ooo ++++  o +++ ++++ o o o ++               + +++++++++++ ",
" +         +  oo +++ o o +++ ++++ o o o ++               + +++++++++++ ",
" +         + ooo +++ o o ++   +++ o o o  ++     + +     ++ +++++++++++ ",
" ++  + +  ++   o +++   o ++++++++ o o  oo ++   ++ ++   +++ +++++++++++ ",
" ++++O O++++ ooo ++ oo o+ +   +++ o   oo  ++++++   +++++++ +++++++++++ ",
" ++++   ++++   o ++ o oo  ++++++  o oo      +++     ++++++ +++++++++++ ",
" +++++++++++ ooo ++ ooo  . ++++ . o  o   + + +++++++++++++ +++++++++++ ",
" +++++++++++ ooo  ++   . ..    ... ooo  +  +.  ++++++++++  +++++++++++ ",
" +++++++++++  o ++  . .  ....  ...       o +...  +++++++ o +++++++++++ ",
" +++++++++++ + ++++  . . .oo.   .  ++  + o +..o.+  ++++ oo +++++++++++ ",
" +++++++++++      + . .  .... +   ++  + oo +.ooo.+     ooo +++++++++++ ",
" +++++++++++ ++  ++  . . .oo. ++ ++  + ooo +oo.oo+     ooo +++++++++++ ",
" +++++++++++   o ++ . .  ....  +++  + oo   +.ooo.+     ooo +++++++++++ ",
" +++++++++++ + o ++  . . .oo.   +  +. oooo +..o..+     ooo +++++++++++ ",
" +++++++++++  oo ++ . .  .... +   +. oo    +.....+     ooo +++++++++++ ",
" +++++++++++ + o + . .   .oo.  + +  oooooo +..o..+     ooo +++++++++++ ",
" +++++++++++  oo    .    .... . + . o o    +.ooo.+     ooo +++++++++++ ",
" +++++++++++ ooo        .oo. o . . ooooooo +oo.oo+     ooo +++++++++++ ",
" +++++++++++ ooo  +   + ....  o . o o      +.ooo.   .. ooo +++++++++++ ",
" +++++++++++ ooo +++ ++ .oo. ooo ooooooooo +..o.. ..oo ooo +++++++++++ ",
" +++++++++++ ooo + +++  ....    oo o       +    ...... ooo +++++++++++ ",
" +++++++++++ ooo  + + + .oo. ooooooooooooo  ++ ..oo... ooo +++++++++++ ",
" +++++++++++ ooo + + +  ....  o. o   o .o +++ ......   ooo +++++++++++ ",
" +++++++++++ ooo  + + +.oo. ooo . +++ .  ++++ .oo..  + ooo +++++++++++ ",
" +++++++++++ ooo + + + ....  ooo +   + +++++ ..... + + ooo +++++++++++ ",
" +++++++++++ ooo  + +  .oo. o   + ... + +++  .oo. + +  ooo +++++++++++ ",
" +++++++++++ ooo      .oo.   ++ + ... +  oo .oo.       ooo +++++++++++ ",
" +++++++++++ ooo + + ..... ++++  +   + ooo  .... + + + ooo +++++++++++ ",
" +++++++++++ ooo +  ..oo. ++++  . +++ . ooo .oo.+ + +  ooo +++++++++++ ",
" +++++++++++ ooo   ...... +++ o. o   o .o  ....  + + + ooo +++++++++++ ",
" +++++++++++ ooo ...oo.. +++ ooooooooooooo .oo. + + +  ooo +++++++++++ ",
" +++++++++++ ooo ......            o oo    ....  +++ + ooo +++++++++++ ",
" +++++++++++ ooo oo.. ..o..+ ooooooooo ooo .oo. ++ +++ ooo +++++++++++ ",
" +++++++++++ ooo ..   .ooo.+      o o . o  .... +   +  ooo +++++++++++ ",
" +++++++++++ ooo     +oo.oo+ ooooooo . . o .oo.        ooo +++++++++++ ",
" +++++++++++ ooo     +.ooo.+    o o . + . ....    .    oo  +++++++++++ ",
" +++++++++++ ooo     +..o..+ oooooo  + +  .oo.   . . + o + +++++++++++ ",
" +++++++++++ ooo     +.....+    oo .+   + ....  . . ++ oo  +++++++++++ ",
" +++++++++++ ooo     +..o..+ oooo .+  +   .oo. . .  ++ o + +++++++++++ ",
" +++++++++++ ooo     +.ooo.+   oo +  +++  ....  . . ++ o   +++++++++++ ",
" +++++++++++ ooo     +oo.oo+ ooo +  ++ ++ .oo. . .  ++  ++ +++++++++++ ",
" +++++++++++ ooo     +.ooo.+ oo +  ++   + ....  . . +      +++++++++++ ",
" +++++++++++ oo ++++  +.o..+ o    ++  .   .oo. . .  ++++ + +++++++++++ ",
" +++++++++++ o +++++++  ...+ o       ...  ....  . .  ++ o  +++++++++++ ",
" +++++++++++  ++++++++++  .+  +  ooo ...    .. .   ++  ooo +++++++++++ ",
" +++++++++++ +++++++++++++ + +   o  o . ++++ .  ooo ++ ooo +++++++++++ ",
" +++++++++++ ++++++     +++      oo o  ++++++  oo o ++ o   ++++   ++++ ",
" +++++++++++ +++++++   ++++++  oo   o +++   + +o oo ++ ooo +++++ +++++ ",
" +++++++++++ +++   ++ ++   ++ oo  o o ++++++++ o   +++ o   ++  + +  ++ ",
" +++++++++++ ++     + +     ++  o o o +++   ++ o o +++ ooo +         + ",
" +++++++++++ +               ++ o o o ++++ +++ o o +++ oo  +         + ",
" +++++++++++ +               ++ o o o ++++ +++ o  ++++ ooo +         + ",
" +++++++++++ +               ++ o o o ++++ +++ o +++++ oo  ++ +   + ++ ",
" +++++++++++ ++             +++ o o o  +   +   o +++++ ooo +++     +++ ",
" +++++++++++ +++   +   +   ++++ o o o +   +    o   +++ oo  +++     +++ ",
" +++++++++++ ++++++     +++++++ o o o ++++++++  XX +++ ooo ++++   ++++ ",
" +++++++++++ +++++       ++++++ o o o ++++++++  XX+++      +++++++++++ ",
" +++++++++++ +++++       ++++++                 X ++++ ... +++++++++++ ",
" +++++++++++ +++++       +++++  .............. XX +++++ .. ++++    +++ ",
" +++++++++++ ++++++     ++++++ .   .    .   ..   +++++++ . +++      ++ ",
" +++++++++++ +++++++   ++++++ . .. . .. . .. ..  ++++++++  +++  ++  ++ ",
" +++++++++++ +++++++++++++++ . ... . .. . ... ..  ++++++++ +++  ++  ++ ",
" +++++++++++                                               +++  ++++++ ",
" +++++++++++++++++++++++++++++++++++++++++++++++++++++++++++++  ++++++ ",
" +++++++++++++++++++++++++++++++++++++++++++++++++++++++++++++  ++++++ ",
" +++++++++++++++++++++++++++++++++++++++++++++++++++++++++++++  ++++++ ",
" +++++++++++++++++++++++++++++++++++++++++++++++++++++++++++++  ++++++ ",
" +++++++++++++++++++++++++++++++++++++++++++++++++++++++++++++  ++++++ ",
" ++++++++++++++++++++++++++++++++++++++++++++++++++++++++++++    +++++ ",
" ++++++++++++++++++++++++++++++++++++++++++++++++++++++++++++    +++++ ",
" +++++++++++++++++++++++++++++++++++++++++++++++++++++++++++++++++++++ ",
" +++++++++++++++++++++++++++++++++++++++++++++++++++++++++++++++++++++ ",
"+ +++++++++++++++++++++++++++++++++++++++++++++++++++++++++++++++++++ +",
"++                                                                   ++"
};
