/* XPM */
static char *ClubQ[] = {
/* columns rows colors chars-per-pixel */
"71 96 5 1",
"  c black",
". c red",
"X c yellow",
"o c cyan",
"O c gray100",
/* pixels */
"OO                                                                   OO",
"O OOOOOOOOOOOOOOOOOOOOOOOOOOOOOOOOOOOOOOOOOOOOOOOOOOOOOOOOOOOOOOOOOOO O",
" OOOOOOOOOOOOOOOOOOOOOOOOOOOOOOOOOOOOOOOOOOOOOOOOOOOOOOOOOOOOOOOOOOOOO ",
" OOOOOOOOOOOOOOOOOOOOOOOOOOOOOOOOOOOOOOOOOOOOOOOOOOOOOOOOOOOOOOOOOOOOO ",
" OOO     OOOOOOOOOOOOOOOOOOOOOOOOOOOOOOOOOOOOOOOOOOOOOOOOOOOOOOOOOOOOO ",
" OO       OOOOOOOOOOOOOOOOOOOOOOOOOOOOOOOOOOOOOOOOOOOOOOOOOOOOOOOOOOOO ",
" OO  OOO  OOOOOOOOOOOOOOOOOOOOOOOOOOOOOOOOOOOOOOOOOOOOOOOOOOOOOOOOOOOO ",
" OO  OOO  OOOOOOOOOOOOOOOOOOOOOOOOOOOOOOOOOOOOOOOOOOOOOOOOOOOOOOOOOOOO ",
" OO  OOO  OOOOOOOOOOOOOOOOOOOOOOOOOOOOOOOOOOOOOOOOOOOOOOOOOOOOOOOOOOOO ",
" OO  OOO  OOOOOOOOOOOOOOOOOOOOOOOOOOOOOOOOOOOOOOOOOOOOOOOOOOOOOOOOOOOO ",
" OO  OOO  OOOOOOOOOOOOOOOOOOOOOOOOOOOOOOOOOOOOOOOOOOOOOOOOOOOOOOOOOOOO ",
" OO  OOO  OO                                               OOOOOOOOOOO ",
" OO  OOO  OO XXXXXXXXXX.  .O O O  O OOOOOOOOOOOOOOOOOOOOOO OOOOOOOOOOO ",
" OO  OOO  OO  XXXXXXXXX.  .O  O O   OOOOOOOOOOOO   OOOOOOO OOOOOOOOOOO ",
" OO       OO O XXXXX  X.  .O OO  O  OOOOOOOOOOO     OOOOOO OOOOOOOOOOO ",
" OOO     OOO OO XXXX X..  .O O OO O OOOOOOOOOO       OOOOO OOOOOOOOOOO ",
" OOOOOO   OO OO XXXXX..  ..O  OOOO   OOOOOOOOO       OOOOO OOOOOOOOOOO ",
" OOOOOOO  OO OOO XXXX..  .OO OOOOOO  OOOOOOOOO       OOOOO OOOOOOOOOOO ",
" OOOO   OOOO OOO X  X.   .OO   O    . OOOOOOOOO     OOOOOO OOOOOOOOOOO ",
" OOO     OOO OOO X X..  ..O O  OO   . OOOOOO   O   O   OOO OOOOOOOOOOO ",
" OOO     OOO OO XXX..   .OO OOO OOO  . OOOO             OO OOOOOOOOOOO ",
" OO O   O OO OO XXX..  ..O OOOO OOO  . OOO               O OOOOOOOOOOO ",
" O         O O X  ..  ..OO OOOO OOO   . OO               O OOOOOOOOOOO ",
" O         O  XX ..   .OO OOOO   OO . .. O               O OOOOOOOOOOO ",
" O         O O  ..   ..OO OOOOOOOOO .. .. O     O O     OO OOOOOOOOOOO ",
" OO  O O  OO OOO    ..OO . OOO   O   .  .. O   OO OO   OOO OOOOOOOOOOO ",
" OOOOo oOOOO OOOO   .OOO  . OOO OO    .  .. OOOO   OOOOOOO OOOOOOOOOOO ",
" OOOO   OOOO OOO   ..OO  X   OOOO X    .  .. OO     OOOOOO OOOOOOOOOOO ",
" OOOOOOOOOOO OO   ..O  .X.X X    X .XX. ..  . OOOOOOOOOOOO OOOOOOOOOOO ",
" OOOOOOOOOOO O   ..O OO .X..X X X..XX. O ..  . OOO  OOOOOO OOOOOOOOOOO ",
" OOOOOOOOOOO    .        .XX.....XXX.     .. . OO ..  OOOO OOOOOOOOOOO ",
" OOOOOOOOOOO   .XXX     O  .XXXXXX.. O O X . . O .  .. OOO OOOOOOOOOOO ",
" OOOOOOOOOOO  XX XXX OO OO   .   .  OO  X X . O ..... OOOO OOOOOOOOOOO ",
" OOOOOOOOOOO XXXX X X O O   O ... O    XXX   OOO   . O   O OOOOOOOOOOO ",
" OOOOOOOOOOO ..... XXX    O O .X. O O X X   X OOOOO O XXX  OOOOOOOOOOO ",
" OOOOOOOOOOO ...... XX X  O O ... O  XXX .  X  O   O XX  O OOOOOOOOOOO ",
" OOOOOOOOOOO .......  XXXX     .    X X ..  X   XXX     OO OOOOOOOOOOO ",
" OOOOOOOOOOO X X X ...  X XXXX   XXXX   X.  X  XXX O OOO O OOOOOOOOOOO ",
" OOOOOOOOOOO  X X X X ..   XXXXXXXX     X..  X     OO    O OOOOOOOOOOO ",
" OOOOOOOOOOO X X        ..X          X  X..   .. .  O OO O OOOOOOOOOOO ",
" OOOOOOOOOOO  X  XXXXXXX  ..X    X  X  X.... .OO.        O OOOOOOOOOOO ",
" OOOOOOOOOOO X XXX     XXX ..     X X  X... X .O.. . OOO O OOOOOOOOOOO ",
" OOOOOOOOOOO  XX   X X   XX .X     X   X.. XX  ....     OO OOOOOOOOOOO ",
" OOOOOOOOOOO .   X X X X  XX .    X X  X.. X XX .OO. . OOO OOOOOOOOOOO ",
" OOOOOOOOOOO ..  X      XX X .X  X   X X. XX     .O..   OO OOOOOOOOOOO ",
" OOOOOOOOOOO .O.  .....    XX . X      X. X XX .. .... . O OOOOOOOOOOO ",
" OOOOOOOOOOO .OO. .OOO.. XX X      XX     X    .OO .OO.    OOOOOOOOOOO ",
" OOOOOOOOOOO  .... O  O.    X ... .... XX X XX .O O .O.. . OOOOOOOOOOO ",
" OOOOOOOOOOO . ..O. O O. XX X XXX .... .. X    .O  O ....  OOOOOOOOOOO ",
" OOOOOOOOOOO    .OO. OO.    X      XX     X XX ..OOO. .OO. OOOOOOOOOOO ",
" OOOOOOOOOOO O . .... .. XX X .X X      . XX    .....  .O. OOOOOOOOOOO ",
" OOOOOOOOOOO OO   ..O.     XX .X  X   X X. X XX      X  .. OOOOOOOOOOO ",
" OOOOOOOOOOO OOO . .OO. XX X ..X   X X   . XX  X X X X   . OOOOOOOOOOO ",
" OOOOOOOOOOO OO     ....  XX ..X    X    X. XX   X X   XX  OOOOOOOOOOO ",
" OOOOOOOOOOO O OOO . ..O. X ...X   X X    .. XXX     XXX X OOOOOOOOOOO ",
" OOOOOOOOOOO O        .OO. ....X   X  XX  X..  XXXXXXX  X  OOOOOOOOOOO ",
" OOOOOOOOOOO O OO O  . ..   ..X   X         X..        X X OOOOOOOOOOO ",
" OOOOOOOOOOO O    OO     X  ..X     XXXXXXXX   .. X X X X  OOOOOOOOOOO ",
" OOOOOOOOOOO O OOO O XXX  X  .X   XXXX   XXXX X  ... X X X OOOOOOOOOOO ",
" OOOOOOOOOOO OO     XXX   X  .. XXX    .     XXXX  ....... OOOOOOOOOOO ",
" OOOOOOOOOOO O  XX O   O  X  . XXX  O ... O O  X XX ...... OOOOOOOOOOO ",
" OOOOOOOOOOO  XXX O OOOOO X   X X O O .X. O O    XXX ..... OOOOOOOOOOO ",
" OOOOOOOOOOO O   O .   OOO   XXX    O ... O   O O X X XXXX OOOOOOOOOOO ",
" OOOOOOOOOOO OOOO ..... O . X X  OO  .   .   OO OO XXX XX  OOOOOOOOOOO ",
" OOOOOOOOOOO OOO ..  . O . . X O O ..XXXXXX.  O     XXX.   OOOOOOOOOOO ",
" OOOOOOOOOOO OOOO  .. OO . ..     .XXX.....XX.        .    OOOOOOOOOOO ",
" OOOOOOOOOOO OOOOOO  OOO .  .. O .XX..X X X..X. OO O..   O OOOOOOOOOOO ",
" OOOOOOOOOOO OOOOOOOOOOOO .  .. .XX. X    X X.X.  O..   OO OOOOOOOOOOO ",
" OOOOOOOOOOO OOOOOO     OO ..  .    X OOOO   X  OO..   OOO OOOO   OOOO ",
" OOOOOOOOOOO OOOOOOO   OOOO ..  .    OO OOO .  OOO.   OOOO OOOOo oOOOO ",
" OOOOOOOOOOO OOO   OO OO   O ..  .   O   OOO . OO..    OOO OO  O O  OO ",
" OOOOOOOOOOO OO     O O     O .. .. OOOOOOOOO OO..   ..  O O         O ",
" OOOOOOOOOOO O               O .. . OO   OOOO OO.   .. XX  O         O ",
" OOOOOOOOOOO O               OO .   OOO OOOO OO..  ..  X O O         O ",
" OOOOOOOOOOO O               OOO .  OOO OOOO O..  ..XXX OO OO O   O OO ",
" OOOOOOOOOOO OO             OOOO .  OOO OOO OO.   ..XXX OO OOO     OOO ",
" OOOOOOOOOOO OOO   O   O   OOOOOO .   OO  O O..  ..X X OOO OOO     OOO ",
" OOOOOOOOOOO OOOOOO     OOOOOOOOO .    O   OO.   .X  X OOO OOOO   OOOO ",
" OOOOOOOOOOO OOOOO       OOOOOOOOO  OOOOOO OO.  ..XXXX OOO OO  OOOOOOO ",
" OOOOOOOOOOO OOOOO       OOOOOOOOO   OOOO  O..  ..XXXXX OO OO   OOOOOO ",
" OOOOOOOOOOO OOOOO       OOOOOOOOOO O OO O O.  ..X XXXX OO OOO     OOO ",
" OOOOOOOOOOO OOOOOO     OOOOOOOOOOO  O  OO O.  .X  XXXXX O OO       OO ",
" OOOOOOOOOOO OOOOOOO   OOOOOOOOOOOO   O O  O.  .XXXXXXXXX  OO  OOO  OO ",
" OOOOOOOOOOO OOOOOOOOOOOOOOOOOOOOOO O  O O O.  .XXXXXXXXXX OO  OOO  OO ",
" OOOOOOOOOOO                                               OO  OOO  OO ",
" OOOOOOOOOOOOOOOOOOOOOOOOOOOOOOOOOOOOOOOOOOOOOOOOOOOOOOOOOOOO  OOO  OO ",
" OOOOOOOOOOOOOOOOOOOOOOOOOOOOOOOOOOOOOOOOOOOOOOOOOOOOOOOOOOOO  OOO  OO ",
" OOOOOOOOOOOOOOOOOOOOOOOOOOOOOOOOOOOOOOOOOOOOOOOOOOOOOOOOOOOO  OOO  OO ",
" OOOOOOOOOOOOOOOOOOOOOOOOOOOOOOOOOOOOOOOOOOOOOOOOOOOOOOOOOOOO  OOO  OO ",
" OOOOOOOOOOOOOOOOOOOOOOOOOOOOOOOOOOOOOOOOOOOOOOOOOOOOOOOOOOOO  OOO  OO ",
" OOOOOOOOOOOOOOOOOOOOOOOOOOOOOOOOOOOOOOOOOOOOOOOOOOOOOOOOOOOO       OO ",
" OOOOOOOOOOOOOOOOOOOOOOOOOOOOOOOOOOOOOOOOOOOOOOOOOOOOOOOOOOOOO     OOO ",
" OOOOOOOOOOOOOOOOOOOOOOOOOOOOOOOOOOOOOOOOOOOOOOOOOOOOOOOOOOOOOOOOOOOOO ",
" OOOOOOOOOOOOOOOOOOOOOOOOOOOOOOOOOOOOOOOOOOOOOOOOOOOOOOOOOOOOOOOOOOOOO ",
"O OOOOOOOOOOOOOOOOOOOOOOOOOOOOOOOOOOOOOOOOOOOOOOOOOOOOOOOOOOOOOOOOOOO O",
"OO                                                                   OO"
};
