/* XPM */
static char *DiamondJ[] = {
/* columns rows colors chars-per-pixel */
"71 96 5 1",
"  c black",
". c red",
"X c yellow",
"o c magenta",
"O c gray100",
/* pixels */
"OO                                                                   OO",
"O OOOOOOOOOOOOOOOOOOOOOOOOOOOOOOOOOOOOOOOOOOOOOOOOOOOOOOOOOOOOOOOOOOO O",
" OOOOOOOOOOOOOOOOOOOOOOOOOOOOOOOOOOOOOOOOOOOOOOOOOOOOOOOOOOOOOOOOOOOOO ",
" OOOOOOOOOOOOOOOOOOOOOOOOOOOOOOOOOOOOOOOOOOOOOOOOOOOOOOOOOOOOOOOOOOOOO ",
" OOOOO....OOOOOOOOOOOOOOOOOOOOOOOOOOOOOOOOOOOOOOOOOOOOOOOOOOOOOOOOOOOO ",
" OOOOO....OOOOOOOOOOOOOOOOOOOOOOOOOOOOOOOOOOOOOOOOOOOOOOOOOOOOOOOOOOOO ",
" OOOOOO..OOOOOOOOOOOOOOOOOOOOOOOOOOOOOOOOOOOOOOOOOOOOOOOOOOOOOOOOOOOOO ",
" OOOOOO..OOOOOOOOOOOOOOOOOOOOOOOOOOOOOOOOOOOOOOOOOOOOOOOOOOOOOOOOOOOOO ",
" OOOOOO..OOOOOOOOOOOOOOOOOOOOOOOOOOOOOOOOOOOOOOOOOOOOOOOOOOOOOOOOOOOOO ",
" OOOOOO..OOOOOOOOOOOOOOOOOOOOOOOOOOOOOOOOOOOOOOOOOOOOOOOOOOOOOOOOOOOOO ",
" OOOOOO..OOOOOOOOOOOOOOOOOOOOOOOOOOOOOOOOOOOOOOOOOOOOOOOOOOOOOOOOOOOOO ",
" OOOOOO..OOO                                               OOOOOOOOOOO ",
" OO..OO..OOO OOOOOOOOO .O...O..O..O..O..O.  OOOOOOOOOOOOOO OOOOOOOOOOO ",
" OO..OO..OOO OOOOOOOOOO .O..O..O..O..O.O.  OOOOOOO.OOOOOOO OOOOOOOOOOO ",
" OO......OOO OOOOOOOOOOO .OOO..OOOO..OO.  OOOOOOO...OOOOOO OOOOOOOOOOO ",
" OOO....OOOO  OOOOOOOOOOO .............. OOOOOOO.....OOOOO OOOOOOOOOOO ",
" OOOOOOOOOOO   OOOOOOOOOO                OOOOOOo.....oOOOO OOOOOOOOOOO ",
" OOOOOOOOOOO  X OOOOOOOOO     X OOOOOOOO  OOOOo.......oOOO OOOOOOOOOOO ",
" OOOOO.OOOOO  X OOOOOOOOO   X X OOOOOOOO  OOOOo.......oOOO OOOOOOOOOOO ",
" OOOO...OOOO  X OOOOOOOOO X X X O   O    X OO...........OO OOOOOOOOOOO ",
" OOOo...oOOO  X OOOO OOOO X X X  O   O   X O.............O OOOOOOOOOOO ",
" OOo.....oOO  X OOO  OOOO X X X OOOO OOO X OO...........OO OOOOOOOOOOO ",
" OO.......OO  X O  X OOOO X X X OOOO OOO X OOOo.......oOOO OOOOOOOOOOO ",
" OOo.....oOO     XX OOOOO X X X OOOO OOO X OOOo.......oOOO OOOOOOOOOOO ",
" OOOo...oOOO .XXX   OOOOO X X X OOO   OO X OOOOo.....oOOOO OOOOOOOOOOO ",
" OOOO...OOOO  X    OOOOOO X X X OOOOOOOO X   OOO.....OOOOO OOOOOOOOOOO ",
" OOOOO.OOOOO .X  OOOOOO  XX X X OOO   O OX XX OOO...OOOOOO OOOOOOOOOOO ",
" OOOOOOOOOOO  X OOOOOO XX X X X  OOOOOO  XX X OOOO.OOOOOOO OOOOOOOOOOO ",
" OOOOOOOOOOO .X OOOOOO X  X  X .O OOOO O. XXX OOOOOOOOOOO  OOOOOOOOOOO ",
" OOOOOOOOOOO  X OOOOOO XXX XX ....    ....     OOOOOOOOO . OOOOOOOOOOO ",
" OOOOOOOOOOO .X OOOOOO        ...........  O X   OOOOOO X  OOOOOOOOOOO ",
" OOOOOOOOOOO  X OOOO  .   O     .......      X O   OOOO X. OOOOOOOOOOO ",
" OOOOOOOOOOO .X OO   X .    O             O  X   XX  OO X  OOOOOOOOOOO ",
" OOOOOOOOOOO  X       X .     O         O    X O XX .   X. OOOOOOOOOOO ",
" OOOOOOOOOOO .X        X .      O O O O   .  X    X ... X  OOOOOOOOOOO ",
" OOOOOOOOOOO  X   .     X .             . .  XX O XX  . X. OOOOOOOOOOO ",
" OOOOOOOOOOO    O  .     X .  . . . . . . . O X    XXX  X  OOOOOOOOOOO ",
" OOOOOOOOOOO OO O X .     X .  .X.X.X.X.X.X O XX O   XX X. OOOOOOOOOOO ",
" OOOOOOOOOOO    O  X .     X .  . . . . . . O  XX  O    X  OOOOOOOOOOO ",
" OOOOOOOOOOO OO   X X .     X .   . . . . . O   XXX   O X. OOOOOOOOOOO ",
" OOOOOOOOOOO    .. X   X     X .  . . . . . O  O  XXX   X  OOOOOOOOOOO ",
" OOOOOOOOOOO O  O. X XX .     X .  .X.X.X.X O  O O  XXX X. OOOOOOOOOOO ",
" OOOOOOOOOOO  X ... X   .X     X .  . . . . O  O  X     X  OOOOOOOOOOO ",
" OOOOOOOOOOO  X OO. X X .X.     X .   . . . O  O    X . X. OOOOOOOOOOO ",
" OOOOOOOOOOO .X ... X   .X.X  O  X .  . . . O  O XX X O X  OOOOOOOOOOO ",
" OOOOOOOOOOO  X OO. X X .X.      .X .  .X.X    O   X .. X. OOOOOOOOOOO ",
" OOOOOOOOOOO .X ... X   .X  O   X..X .  . .     XX X .O X  OOOOOOOOOOO ",
" OOOOOOOOOOO  X OO. X X .      . X..X .  .  O     X ... X. OOOOOOOOOOO ",
" OOOOOOOOOOO .X ... X     O     . X..X .      . X X .OO X  OOOOOOOOOOO ",
" OOOOOOOOOOO  X O. X X      . .  . X..X   O  X.   X ... X. OOOOOOOOOOO ",
" OOOOOOOOOOO .X .. X   O    X.X.  . X.      .X. X X .OO X  OOOOOOOOOOO ",
" OOOOOOOOOOO  X O X XX O  O . . .  . X  O  X.X.   X ... X. OOOOOOOOOOO ",
" OOOOOOOOOOO .X . X    O  O . . .   . X     .X. X X .OO X  OOOOOOOOOOO ",
" OOOOOOOOOOO  X     X  O  O . . . .  . X     X.   X ... X  OOOOOOOOOOO ",
" OOOOOOOOOOO .X XXX  O O  O X.X.X.X.  . X     . XX X .O  O OOOOOOOOOOO ",
" OOOOOOOOOOO  X   XXX  O  O . . . . .  . X     X   X ..    OOOOOOOOOOO ",
" OOOOOOOOOOO .X O   XXX   O . . . . .   . X     . X X   OO OOOOOOOOOOO ",
" OOOOOOOOOOO  X    O  XX  O . . . . . .  . X     . X  O    OOOOOOOOOOO ",
" OOOOOOOOOOO .X XX   O XX O X.X.X.X.X.X.  . X     . X O OO OOOOOOOOOOO ",
" OOOOOOOOOOO  X  XXX    X O . . . . . . .  . X     .  O    OOOOOOOOOOO ",
" OOOOOOOOOOO .X .  XX O XX  . .             . X     .   X  OOOOOOOOOOO ",
" OOOOOOOOOOO  X ... X    X  .   O O O O      . X        X. OOOOOOOOOOO ",
" OOOOOOOOOOO .X   . XX O X    O         O     . X       X  OOOOOOOOOOO ",
" OOOOOOOOOOO  X OO  XX   X  O             O    . X   OO X. OOOOOOOOOOO ",
" OOOOOOOOOOO .X OOOO   O X      .......     O   .  OOOO X  OOOOOOOOOOO ",
" OOOOOOOOOOO  X OOOOOO   X O  ...........        OOOOOO X. OOOOOOOOOOO ",
" OOOOOOOOOOO . OOOOOOOOO     ....    .... XX XXX OOOOOO X  OOOOOOOOOOO ",
" OOOOOOOOOOO  OOOOOOOOOOO XXX .O OOOO O. X  X  X OOOOOO X. OOOOOOOOOOO ",
" OOOOOOOOOOO OOOOOOO.OOOO X XX  OOOOOO  X X X XX OOOOOO X  OOOOOOOOOOO ",
" OOOOOOOOOOO OOOOOO...OOO XX XO O   OOO X X XX  OOOOOO  X. OOOOO.OOOOO ",
" OOOOOOOOOOO OOOOO.....OOO   X OOOOOOOO X X X OOOOOO    X  OOOO...OOOO ",
" OOOOOOOOOOO OOOOo.....oOOOO X OO   OOO X X X OOOOO   XXX. OOOo...oOOO ",
" OOOOOOOOOOO OOOo.......oOOO X OOO OOOO X X X OOOOO XX     OOo.....oOO ",
" OOOOOOOOOOO OOOo.......oOOO X OOO OOOO X X X OOOO X  O X  OO.......OO ",
" OOOOOOOOOOO OO...........OO X OOO OOOO X X X OOOO  OOO X  OOo.....oOO ",
" OOOOOOOOOOO O.............O X   O   O  X X X OOOO OOOO X  OOOo...oOOO ",
" OOOOOOOOOOO OO...........OO X    O   O X X X OOOOOOOOO X  OOOO...OOOO ",
" OOOOOOOOOOO OOOo.......oOOOO  OOOOOOOO X X   OOOOOOOOO X  OOOOO.OOOOO ",
" OOOOOOOOOOO OOOo.......oOOOO  OOOOOOOO X     OOOOOOOOO X  OOOOOOOOOOO ",
" OOOOOOOOOOO OOOOo.....oOOOOOO                OOOOOOOOOO   OOOOOOOOOOO ",
" OOOOOOOOOOO OOOOO.....OOOOOOO .............. OOOOOOOOOOO  OOOO....OOO ",
" OOOOOOOOOOO OOOOOO...OOOOOOO  .OO..OOOO..OOO. OOOOOOOOOOO OOO......OO ",
" OOOOOOOOOOO OOOOOOO.OOOOOOO  .O.O..O..O..O..O. OOOOOOOOOO OOO..OO..OO ",
" OOOOOOOOOOO OOOOOOOOOOOOOO  .O..O..O..O..O...O. OOOOOOOOO OOO..OO..OO ",
" OOOOOOOOOOO                                               OOO..OOOOOO ",
" OOOOOOOOOOOOOOOOOOOOOOOOOOOOOOOOOOOOOOOOOOOOOOOOOOOOOOOOOOOOO..OOOOOO ",
" OOOOOOOOOOOOOOOOOOOOOOOOOOOOOOOOOOOOOOOOOOOOOOOOOOOOOOOOOOOOO..OOOOOO ",
" OOOOOOOOOOOOOOOOOOOOOOOOOOOOOOOOOOOOOOOOOOOOOOOOOOOOOOOOOOOOO..OOOOOO ",
" OOOOOOOOOOOOOOOOOOOOOOOOOOOOOOOOOOOOOOOOOOOOOOOOOOOOOOOOOOOOO..OOOOOO ",
" OOOOOOOOOOOOOOOOOOOOOOOOOOOOOOOOOOOOOOOOOOOOOOOOOOOOOOOOOOOOO..OOOOOO ",
" OOOOOOOOOOOOOOOOOOOOOOOOOOOOOOOOOOOOOOOOOOOOOOOOOOOOOOOOOOOO....OOOOO ",
" OOOOOOOOOOOOOOOOOOOOOOOOOOOOOOOOOOOOOOOOOOOOOOOOOOOOOOOOOOOO....OOOOO ",
" OOOOOOOOOOOOOOOOOOOOOOOOOOOOOOOOOOOOOOOOOOOOOOOOOOOOOOOOOOOOOOOOOOOOO ",
" OOOOOOOOOOOOOOOOOOOOOOOOOOOOOOOOOOOOOOOOOOOOOOOOOOOOOOOOOOOOOOOOOOOOO ",
"O OOOOOOOOOOOOOOOOOOOOOOOOOOOOOOOOOOOOOOOOOOOOOOOOOOOOOOOOOOOOOOOOOOO O",
"OO                                                                   OO"
};
