/* XPM */
static char *DiamondK[] = {
/* columns rows colors chars-per-pixel */
"71 96 6 1",
"  c black",
". c red",
"X c yellow",
"o c blue",
"O c magenta",
"+ c gray100",
/* pixels */
"++                                                                   ++",
"+ +++++++++++++++++++++++++++++++++++++++++++++++++++++++++++++++++++ +",
" +++++++++++++++++++++++++++++++++++++++++++++++++++++++++++++++++++++ ",
" +++++++++++++++++++++++++++++++++++++++++++++++++++++++++++++++++++++ ",
" +....+....+++++++++++++++++++++++++++++++++++++++++++++++++++++++++++ ",
" +....+....+++++++++++++++++++++++++++++++++++++++++++++++++++++++++++ ",
" ++..++..+++++++++++++++++++++++++++++++++++++++++++++++++++++++++++++ ",
" ++..+..++++++++++++++++++++++++++++++++++++++++++++++++++++++++++++++ ",
" ++....+++++++++++++++++++++++++++++++++++++++++++++++++++++++++++++++ ",
" ++...++++++++++++++++++++++++++++++++++++++++++++++++++++++++++++++++ ",
" ++....+++++++++++++++++++++++++++++++++++++++++++++++++++++++++++++++ ",
" ++..+..++++                                               +++++++++++ ",
" ++..++..+++ +++++++++++++ XXXX XXX XXXXXXXXXXXXX ++++++++ +++++++++++ ",
" ++..+++..++ +++++++.++++++ XX   X   XX XXXXXXXX +++   ++  +++++++++++ ",
" +....+....+ ++++++...++++++ ........X   XX XXX +++ X ++ . +++++++++++ ",
" +....+....+ +++++.....+++++         ....X   X  ++ XX ++ . +++++++++++ ",
" +++++++++++ ++++O.....O+++++            ..... +++ XX ++ . +++++++++++ ",
" +++++++++++ +++O.......O++++ ++++++  +        ++ XX +     +++++++++++ ",
" +++++.+++++ +++O.......O++++ +  +++ + +       ++ X ++.+.+ +++++++++++ ",
" ++++...++++ ++...........+++   + ++ + + + + + ++  +++.+.+ +++++++++++ ",
" +++O...O+++ +.............++o++++++ + + + + + ++ X ++ + + +++++++++++ ",
" ++O.....O++ ++...........++ +++++++ + + + + + ++ XX +     +++++++++++ ",
" ++.......++ +++O.......O++ ++++++++ + + + + + +++ XX ++ . +++++++++++ ",
" ++O.....O++ +++O.......O++  o+++++++ + + + + + ++ XX ++ . +++++++++++ ",
" +++O...O+++ ++++O.....O+++++    + ++ + + + + + +++ X ++ . +++++++++++ ",
" ++++...++++ +++++.....++++++ ++   +++ + + + + + +++   + . +++++++++++ ",
" +++++.+++++ ++++++...++++++++  +++++++ + + + + + ++++++ . +++++++++++ ",
" +++++++++++ +++++++.++++++++ ++++++   ++ + + + + ++++++ . +++++++++++ ",
" +++++++++++ ++   +++++++++++  ++++ +++ + + + + + ++++++ . +++++++++++ ",
" +++++++++++ + + +   +++++  + +++++ +  ++ + + + + ++++++ . +++++++++++ ",
" +++++++++++ +  + + + +++ +  ++++++  +++ + + + + +++++++ . +++++++++++ ",
" +++++++++++   + + + + ++ ++++++++++                ++++ . +++++++++++ ",
" +++++++++++  + + +++++  X +++++        XX +++ XX ++       +++++++++++ ",
" +++++++++++ + + ++++     X           +  XX +   XX ++ XX + +++++++++++ ",
" +++++++++++ ++ ++     ..  X   ..    +  + XX   + XX +  XX  +++++++++++ ",
" +++++++++++ +++  .  X ..   X . ..                    + X+ +++++++++++ ",
" +++++++++++ +  ..... X  +  X .. .  XXXXXXXXXXXXXX         +++++++++++ ",
" +++++++++++  .....  X X  ..   ..  + + + + + + ++ X        +++++++++++ ",
" +++++++++++ ....  XXXX X .. X   +++++++++++++++ X ..  ++  +++++++++++ ",
" +++++++++++ ..  XXXX    X   X +++           ++ X X ..  +  +++++++++++ ",
" +++++++++++ . XXXX      X + X +  XXXXXXXXXX + X  .X ..    +++++++++++ ",
" +++++++++++  XXX     +  X   X  XX        X + X XX .X ..   +++++++++++ ",
" +++++++++++ XXX    +++   X    X    .... X ++ X  XX .X ..  +++++++++++ ",
" +++++++++++ XX ..   +++  X   X   ...... X + X    X        +++++++++++ ",
" +++++++++++ X . ..   ++  X   X         X ++ X     .X .X . +++++++++++ ",
" +++++++++++  XX. ..   +   X  X ....... X + X    X .X .X . +++++++++++ ",
" +++++++++++  .XX. ..   +  X  X        X ++ X  ..X .       +++++++++++ ",
" +++++++++++ .. .XX.           X +++++ X           .XX. .. +++++++++++ ",
" +++++++++++ ... .   X..  X ++ X +++++ X   X     .. .XX. . +++++++++++ ",
" +++++++++++       . X..  X ++ X       X   X  +   .. .XX.  +++++++++++ ",
" +++++++++++ . X. X. X    X +  ........ X  X   +   .. .XX  +++++++++++ ",
" +++++++++++ . X. X.     X ++           X   X  ++   .. . X +++++++++++ ",
" +++++++++++        X    X + X ......   X   X  +++   .. XX +++++++++++ ",
" +++++++++++  .. X. XX  X ++ X ....    X    X   +++    XXX +++++++++++ ",
" +++++++++++   .. X. XX X + X        XX  X   X  +     XXX  +++++++++++ ",
" +++++++++++    .. X.  X + XXXXXXXXXX    X   X      XXXX . +++++++++++ ",
" +++++++++++  +  .. X X ++           +++ X   X    XXXX  .. +++++++++++ ",
" +++++++++++  ++  .. X +++++++++++++++   X .. X XXXX  .... +++++++++++ ",
" +++++++++++        X ++ + + + + + +  ..   ..  X X  .....  +++++++++++ ",
" +++++++++++         XXXXXXXXXXXXXX  . .. X  +  X .....  + +++++++++++ ",
" +++++++++++ +X +                    .. . X   .. X  .  +++ +++++++++++ ",
" +++++++++++  XX  + XX +   XX +  +    ..   X  ..     +  ++ +++++++++++ ",
" +++++++++++ + XX ++ XX   + XX  +           X     ++++   + +++++++++++ ",
" +++++++++++       ++ XX +++ XX        +++++ X  +++++ + +  +++++++++++ ",
" +++++++++++ . ++++                ++++++++++ ++ + + + +   +++++++++++ ",
" +++++++++++ . +++++++ + + + + +++  ++++++  + +++ + + +  + +++++++++++ ",
" +++++++++++ . ++++++ + + + + ++  + +++++ +  +++++   + + + +++++++++++ ",
" +++++++++++ . ++++++ + + + + + +++ ++++  +++++++++++   ++ +++++++++++ ",
" +++++++++++ . ++++++ + + + + ++   ++++++ ++++++++.+++++++ +++++++++++ ",
" +++++++++++ . ++++++ + + + + + +++++++  ++++++++...++++++ +++++.+++++ ",
" +++++++++++ . +   +++ + + + + + +++   ++ ++++++.....+++++ ++++...++++ ",
" +++++++++++ . ++ X +++ + + + + + ++ +    +++++O.....O++++ +++O...O+++ ",
" +++++++++++ . ++ XX ++ + + + + + +++++++o  ++O.......O+++ ++O.....O++ ",
" +++++++++++ . ++ XX +++ + + + + + ++++++++ ++O.......O+++ ++.......++ ",
" +++++++++++     + XX ++ + + + + + +++++++ ++...........++ ++O.....O++ ",
" +++++++++++ + + ++ X ++ + + + + + ++++++o++.............+ +++O...O+++ ",
" +++++++++++ +.+.+++  ++ + + + + + ++ +   +++...........++ ++++...++++ ",
" +++++++++++ +.+.++ X ++       + + +++  + ++++O.......O+++ +++++.+++++ ",
" +++++++++++     + XX ++        +  ++++++ ++++O.......O+++ +++++++++++ ",
" +++++++++++ . ++ XX +++ .....            +++++O.....O++++ +++++++++++ ",
" +++++++++++ . ++ XX ++  X   X....         +++++.....+++++ +....+....+ ",
" +++++++++++ . ++ X +++ XXX XX   X........ ++++++...++++++ +....+....+ ",
" +++++++++++  ++   +++ XXXXXXXX XX   X   XX ++++++.+++++++ ++..+++..++ ",
" +++++++++++ ++++++++ XXXXXXXXXXXXX XXX XXXX +++++++++++++ +++..++..++ ",
" +++++++++++                                               ++++..+..++ ",
" +++++++++++++++++++++++++++++++++++++++++++++++++++++++++++++++....++ ",
" ++++++++++++++++++++++++++++++++++++++++++++++++++++++++++++++++...++ ",
" +++++++++++++++++++++++++++++++++++++++++++++++++++++++++++++++....++ ",
" ++++++++++++++++++++++++++++++++++++++++++++++++++++++++++++++..+..++ ",
" +++++++++++++++++++++++++++++++++++++++++++++++++++++++++++++..++..++ ",
" +++++++++++++++++++++++++++++++++++++++++++++++++++++++++++....+....+ ",
" +++++++++++++++++++++++++++++++++++++++++++++++++++++++++++....+....+ ",
" +++++++++++++++++++++++++++++++++++++++++++++++++++++++++++++++++++++ ",
" +++++++++++++++++++++++++++++++++++++++++++++++++++++++++++++++++++++ ",
"+ +++++++++++++++++++++++++++++++++++++++++++++++++++++++++++++++++++ +",
"++                                                                   ++"
};
