/* XPM */
static char *DiamondQ[] = {
/* columns rows colors chars-per-pixel */
"71 96 5 1",
"  c black",
". c red",
"X c yellow",
"o c magenta",
"O c gray100",
/* pixels */
"OO                                                                   OO",
"O OOOOOOOOOOOOOOOOOOOOOOOOOOOOOOOOOOOOOOOOOOOOOOOOOOOOOOOOOOOOOOOOOOO O",
" OOOOOOOOOOOOOOOOOOOOOOOOOOOOOOOOOOOOOOOOOOOOOOOOOOOOOOOOOOOOOOOOOOOOO ",
" OOOOOOOOOOOOOOOOOOOOOOOOOOOOOOOOOOOOOOOOOOOOOOOOOOOOOOOOOOOOOOOOOOOOO ",
" OOO.....OOOOOOOOOOOOOOOOOOOOOOOOOOOOOOOOOOOOOOOOOOOOOOOOOOOOOOOOOOOOO ",
" OO.......OOOOOOOOOOOOOOOOOOOOOOOOOOOOOOOOOOOOOOOOOOOOOOOOOOOOOOOOOOOO ",
" OO..OOO..OOOOOOOOOOOOOOOOOOOOOOOOOOOOOOOOOOOOOOOOOOOOOOOOOOOOOOOOOOOO ",
" OO..OOO..OOOOOOOOOOOOOOOOOOOOOOOOOOOOOOOOOOOOOOOOOOOOOOOOOOOOOOOOOOOO ",
" OO..OOO..OOOOOOOOOOOOOOOOOOOOOOOOOOOOOOOOOOOOOOOOOOOOOOOOOOOOOOOOOOOO ",
" OO..OOO..OOOOOOOOOOOOOOOOOOOOOOOOOOOOOOOOOOOOOOOOOOOOOOOOOOOOOOOOOOOO ",
" OO..OOO..OOOOOOOOOOOOOOOOOOOOOOOOOOOOOOOOOOOOOOOOOOOOOOOOOOOOOOOOOOOO ",
" OO..OOO..OO                                               OOOOOOOOOOO ",
" OO..OOO..OO O XXXXXXXXX .. OO O O  X OOOOOOOOOOOOOOOOOOOO OOOOOOOOOOO ",
" OO..OOO..OO OO XXXXX  X .. O O O O XX OOOOOOOOOOO.OOOOOOO OOOOOOOOOOO ",
" OO.......OO OO XXXXXXXX .. OOO  O   X OOOOOOOOOO...OOOOOO OOOOOOOOOOO ",
" OOO.....OOO OOO XXXX  X .. OO OO O   X OOOOOOOO.....OOOOO OOOOOOOOOOO ",
" OOOOOO...OO OOO XXXXXX  . O  OOOO     X OOOOOOo.....oOOOO OOOOOOOOOOO ",
" OOOOOOO..OO OOO XXX  X ..  OOOOOOO .  X OOOOOo.......oOOO OOOOOOOOOOO ",
" OOOOO.OOOOO OOO XXXXX  . OO   O    .   X OOOOo.......oOOO OOOOOOOOOOO ",
" OOOO...OOOO OOO XX  X .. O O   O   ..  X OOO...........OO OOOOOOOOOOO ",
" OOOo...oOOO OOO XXXX  .  OOOOO OOO ..   X O.............O OOOOOOOOOOO ",
" OOo.....oOO OO XX  X .. O OOOO OOO ...  X OO...........OO OOOOOOOOOOO ",
" OO.......OO OO XXXX  . O O OOO OOO ...  X OOOo.......oOOO OOOOOOOOOOO ",
" OOo.....oOO O XX X  .. O  OOO   OO ...  X OOOo.......oOOO OOOOOOOOOOO ",
" OOOo...oOOO OO XX  .. OO OOOOOOOOO ....  X OOOo.....oOOOO OOOOOOOOOOO ",
" OOOO...OOOO OOO   .. OO . OOO   O X ...  X OOOO.....OOOOO OOOOOOOOOOO ",
" OOOOO.OOOOO OOOO .. OOO  . OOO OO X  ..  X OOOOO...OOOOOO OOOOOOOOOOO ",
" OOOOOOOOOOO OOO .. OOO XX   OOOO XX O .  X OOOOOO.OOOOOOO OOOOOOOOOOO ",
" OOOOOOOOOOO OO ..     O XXX      XX O    X OOOOOOOOOOOOOO OOOOOOOOOOO ",
" OOOOOOOOOOO O ..  O    O    XXXX   O     X OOOOOO   OOOOO OOOOOOOOOOO ",
" OOOOOOOOOOO  ..  O O    OOOO    OOO   O  X OOOO  XX  OOOO OOOOOOOOOOO ",
" OOOOOOOOOOO .. O  O        OOOOOO   O   X  OOOO X  XX O O OOOOOOOOOOO ",
" OOOOOOOOOOO . X O    O  O          O O   X OOO XXXXX OO   OOOOOOOOOOO ",
" OOOOOOOOOOO    X O     O O    O     O   O X OOO   X OO X  OOOOOOOOOOO ",
" OOOOOOOOOOO   X X O    O O O O O O     O XX  OOOOO  O XX  OOOOOOOOOOO ",
" OOOOOOOOOOO  X   X OO   O    O O      O XX    OOOOO  X  O OOOOOOOOOOO ",
" OOOOOOOOOOO X  .  X  O        O     OO X X  O  OOO     OO OOOOOOOOOOO ",
" OOOOOOOOOOO   .  X XX   X         OO  X  X O    O OOO   O OOOOOOOOOOO ",
" OOOOOOOOOOO  .  X .  XX    OOOOOOO  XX   X O     OO   O O OOOOOOOOOOO ",
" OOOOOOOOOOO .  X   .O  XXX        XX   . X O    X OO O  O OOOOOOOOOOO ",
" OOOOOOOOOOO   X  .  .O    XXXXXXXX  X  . X  O  XX  OO O O OOOOOOOOOOO ",
" OOOOOOOOOOO  X  X .  .O. X        XXX  .O X   XX    O O O OOOOOOOOOOO ",
" OOOOOOOOOOO X   X  . O.O  X     XX  X  .O XX XX O O  O OO OOOOOOOOOOO ",
" OOOOOOOOOOO O O  X . .O.O X O.  XXXXX  .O. XXX        OOO OOOOOOOOOOO ",
" OOOOOOOOOOO      X . O.O  X O.  X   X  .  . X   O O O  OO OOOOOOOOOOO ",
" OOOOOOOOOOO O O O X  .O.O X O.  XXXXX   .. X  X         O OOOOOOOOOOO ",
" OOOOOOOOOOO       X .O.O  X          ...X. X . X  O O O   OOOOOOOOOOO ",
" OOOOOOOOOOO O O O  X .O.O X .........XXX. X  O. X         OOOOOOOOOOO ",
" OOOOOOOOOOO         X .O  X .XXX......... X O.O. X  O O O OOOOOOOOOOO ",
" OOOOOOOOOOO   O O O  X . X .X...          X  O.O. X       OOOOOOOOOOO ",
" OOOOOOOOOOO O         X  X ..   XXXXX  .O X O.O.  X O O O OOOOOOOOOOO ",
" OOOOOOOOOOO OO  O O O   X .  .  X   X  .O X  O.O . X      OOOOOOOOOOO ",
" OOOOOOOOOOO OOO        XXX .O.  XXXXX  .O X O.O. . X  O O OOOOOOOOOOO ",
" OOOOOOOOOOO OO O  O O XX XX O.  X  XX     X  O.O .  X   X OOOOOOOOOOO ",
" OOOOOOOOOOO O O O    XX   X  .  XXX        X .O.  . X  X  OOOOOOOOOOO ",
" OOOOOOOOOOO O O OO  XX  O  X .  X  XXXXXXXX    O.  .  X   OOOOOOOOOOO ",
" OOOOOOOOOOO O  O OO X    O X .   XX        XXX  O.   X  . OOOOOOOOOOO ",
" OOOOOOOOOOO O O   OO     O X   XX  OOOOOOO    XX  . X  .  OOOOOOOOOOO ",
" OOOOOOOOOOO O   OOO O    O X  X  OO         X   XX X  .   OOOOOOOOOOO ",
" OOOOOOOOOOO OO     OOO  O  X X OO     O        O  X  .  X OOOOOOOOOOO ",
" OOOOOOOOOOO O  X  OOOOO    XX O      O O    O   OO X   X  OOOOOOOOOOO ",
" OOOOOOOOOOO  XX O  OOOOO  XX O     O O O O O O    O X X   OOOOOOOOOOO ",
" OOOOOOOOOOO  X OO X   OOO X O   O     O    O O     O X    OOOOOOOOOOO ",
" OOOOOOOOOOO   OO XXXXX OOO X   O O          O  O    O X . OOOOOOOOOOO ",
" OOOOOOOOOOO O O XX  X OOOO  X   O   OOOOOO        O  O .. OOOOOOOOOOO ",
" OOOOOOOOOOO OOOO  XX  OOOO X  O   OOO    OOOO    O O  ..  OOOOOOOOOOO ",
" OOOOOOOOOOO OOOOO   OOOOOO X     O   XXXX    O    O  .. O OOOOOOOOOOO ",
" OOOOOOOOOOO OOOOOOOOOOOOOO X    O XX      XXX O     .. OO OOOOOOOOOOO ",
" OOOOOOOOOOO OOOOOOO.OOOOOO X  . O XX OOOO   XX OOO .. OOO OOOOOOOOOOO ",
" OOOOOOOOOOO OOOOOO...OOOOO X  ..  X OO OOO .  OOO .. OOOO OOOOO.OOOOO ",
" OOOOOOOOOOO OOOOO.....OOOO X  ... X O   OOO . OO ..   OOO OOOO...OOOO ",
" OOOOOOOOOOO OOOOo.....oOOO X  .... OOOOOOOOO OO ..  XX OO OOOo...oOOO ",
" OOOOOOOOOOO OOOo.......oOOO X  ... OO   OOO  O ..  X XX O OOo.....oOO ",
" OOOOOOOOOOO OOOo.......oOOO X  ... OOO OOO O O .  XXXX OO OO.......OO ",
" OOOOOOOOOOO OO...........OO X  ... OOO OOOO O .. X  XX OO OOo.....oOO ",
" OOOOOOOOOOO O.............O X   .. OOO OOOOO  .  XXXX OOO OOOo...oOOO ",
" OOOOOOOOOOO OO...........OOO X  ..   O   O O .. X  XX OOO OOOO...OOOO ",
" OOOOOOOOOOO OOOo.......oOOOO X   .    O   OO .  XXXXX OOO OOOOO.OOOOO ",
" OOOOOOOOOOO OOOo.......oOOOOO X  . OOOOOOO  .. X  XXX OOO OO..OOOOOOO ",
" OOOOOOOOOOO OOOOo.....oOOOOOO X     OOOO  O .  XXXXXX OOO OO...OOOOOO ",
" OOOOOOOOOOO OOOOO.....OOOOOOOO X   O OO OO .. X  XXXX OOO OOO.....OOO ",
" OOOOOOOOOOO OOOOOO...OOOOOOOOOO X   O  OOO .. XXXXXXXX OO OO.......OO ",
" OOOOOOOOOOO OOOOOOO.OOOOOOOOOOO XX O O O O .. X  XXXXX OO OO..OOO..OO ",
" OOOOOOOOOOO OOOOOOOOOOOOOOOOOOOO X  O O OO .. XXXXXXXXX O OO..OOO..OO ",
" OOOOOOOOOOO                                               OO..OOO..OO ",
" OOOOOOOOOOOOOOOOOOOOOOOOOOOOOOOOOOOOOOOOOOOOOOOOOOOOOOOOOOOO..OOO..OO ",
" OOOOOOOOOOOOOOOOOOOOOOOOOOOOOOOOOOOOOOOOOOOOOOOOOOOOOOOOOOOO..OOO..OO ",
" OOOOOOOOOOOOOOOOOOOOOOOOOOOOOOOOOOOOOOOOOOOOOOOOOOOOOOOOOOOO..OOO..OO ",
" OOOOOOOOOOOOOOOOOOOOOOOOOOOOOOOOOOOOOOOOOOOOOOOOOOOOOOOOOOOO..OOO..OO ",
" OOOOOOOOOOOOOOOOOOOOOOOOOOOOOOOOOOOOOOOOOOOOOOOOOOOOOOOOOOOO..OOO..OO ",
" OOOOOOOOOOOOOOOOOOOOOOOOOOOOOOOOOOOOOOOOOOOOOOOOOOOOOOOOOOOO.......OO ",
" OOOOOOOOOOOOOOOOOOOOOOOOOOOOOOOOOOOOOOOOOOOOOOOOOOOOOOOOOOOOO.....OOO ",
" OOOOOOOOOOOOOOOOOOOOOOOOOOOOOOOOOOOOOOOOOOOOOOOOOOOOOOOOOOOOOOOOOOOOO ",
" OOOOOOOOOOOOOOOOOOOOOOOOOOOOOOOOOOOOOOOOOOOOOOOOOOOOOOOOOOOOOOOOOOOOO ",
"O OOOOOOOOOOOOOOOOOOOOOOOOOOOOOOOOOOOOOOOOOOOOOOOOOOOOOOOOOOOOOOOOOOO O",
"OO                                                                   OO"
};
