/* XPM */
static char *Diamond_[] = {
/* columns rows colors chars-per-pixel */
"71 96 2 1",
"  c red",
". c gray100",
/* pixels */
"..                                                                   ..",
". ................................................................... .",
" ..................................................................... ",
" ..................................................................... ",
" ....     ............................................................ ",
" ...       ........................................................... ",
" ...  ...  ........................................................... ",
" ...  ...  ........................................................... ",
" ...  ...  ........................................................... ",
" ...  ...  ........................................................... ",
" ...       .......... ........................... .................... ",
" ....      .........   .........................   ................... ",
" ........  ........     .......................     .................. ",
" .......   .......       .....................       ................. ",
" ....     .......         ...................         ................ ",
" ....    ........         ...................         ................ ",
" ...............           .................           ............... ",
" ..............             ...............             .............. ",
" ..... .........           .................           ............... ",
" ....   .........         ...................         ................ ",
" ...     ........         ...................         ................ ",
" ..       ........       .....................       ................. ",
" ..       .........     .......................     .................. ",
" ..       ..........   .........................   ................... ",
" ...     ............ ........................... .................... ",
" ....   .............................................................. ",
" ..... ............................................................... ",
" ..................................................................... ",
" ..................................................................... ",
" ..................................................................... ",
" .................... ........................... .................... ",
" ...................   .........................   ................... ",
" ..................     .......................     .................. ",
" .................       .....................       ................. ",
" ................         ...................         ................ ",
" ................         ...................         ................ ",
" ...............           .................           ............... ",
" ..............             ...............             .............. ",
" ...............           .................           ............... ",
" ................         ...................         ................ ",
" ................         ......... .........         ................ ",
" .................       .........   .........       ................. ",
" ..................     .........     .........     .................. ",
" ...................   .........       .........   ................... ",
" .................... .........         ......... .................... ",
" ..............................         .............................. ",
" .............................           ............................. ",
" ............................             ............................ ",
" .............................           ............................. ",
" ..............................         .............................. ",
" ..............................         .............................. ",
" .................... ..........       .......... .................... ",
" ...................   ..........     ..........   ................... ",
" ..................     ..........   ..........     .................. ",
" .................       .......... ..........       ................. ",
" ................         ...................         ................ ",
" ................         ...................         ................ ",
" ...............           .................           ............... ",
" ..............             ...............             .............. ",
" ...............           .................           ............... ",
" ................         ...................         ................ ",
" ................         ...................         ................ ",
" .................       .....................       ................. ",
" ..................     .......................     .................. ",
" ...................   .........................   ................... ",
" .................... ........................... .................... ",
" ..................................................................... ",
" ..................................................................... ",
" ..................................................................... ",
" ............................................................... ..... ",
" ..............................................................   .... ",
" .................... ........................... ............     ... ",
" ...................   .........................   ..........       .. ",
" ..................     .......................     .........       .. ",
" .................       .....................       ........       .. ",
" ................         ...................         ........     ... ",
" ................         ...................         .........   .... ",
" ...............           .................           ......... ..... ",
" ..............             ...............             .............. ",
" ...............           .................           ............... ",
" ................         ...................         ........    .... ",
" ................         ...................         .......     .... ",
" .................       .....................       .......   ....... ",
" ..................     .......................     ........  ........ ",
" ...................   .........................   .........      .... ",
" .................... ........................... ..........       ... ",
" ...........................................................  ...  ... ",
" ...........................................................  ...  ... ",
" ...........................................................  ...  ... ",
" ...........................................................  ...  ... ",
" ...........................................................       ... ",
" ............................................................     .... ",
" ..................................................................... ",
" ..................................................................... ",
". ................................................................... .",
"..                                                                   .."
};
