/* XPM */
static char *HeartK[] = {
/* columns rows colors chars-per-pixel */
"71 96 5 1",
"  c black",
". c red",
"X c yellow",
"o c magenta",
"O c gray100",
/* pixels */
"OO                                                                   OO",
"O OOOOOOOOOOOOOOOOOOOOOOOOOOOOOOOOOOOOOOOOOOOOOOOOOOOOOOOOOOOOOOOOOOO O",
" OOOOOOOOOOOOOOOOOOOOOOOOOOOOOOOOOOOOOOOOOOOOOOOOOOOOOOOOOOOOOOOOOOOOO ",
" OOOOOOOOOOOOOOOOOOOOOOOOOOOOOOOOOOOOOOOOOOOOOOOOOOOOOOOOOOOOOOOOOOOOO ",
" O....O....OOOOOOOOOOOOOOOOOOOOOOOOOOOOOOOOOOOOOOOOOOOOOOOOOOOOOOOOOOO ",
" O....O....OOOOOOOOOOOOOOOOOOOOOOOOOOOOOOOOOOOOOOOOOOOOOOOOOOOOOOOOOOO ",
" OO..OO..OOOOOOOOOOOOOOOOOOOOOOOOOOOOOOOOOOOOOOOOOOOOOOOOOOOOOOOOOOOOO ",
" OO..O..OOOOOOOOOOOOOOOOOOOOOOOOOOOOOOOOOOOOOOOOOOOOOOOOOOOOOOOOOOOOOO ",
" OO....OOOOOOOOOOOOOOOOOOOOOOOOOOOOOOOOOOOOOOOOOOOOOOOOOOOOOOOOOOOOOOO ",
" OO...OOOOOOOOOOOOOOOOOOOOOOOOOOOOOOOOOOOOOOOOOOOOOOOOOOOOOOOOOOOOOOOO ",
" OO....OOOOOOOOOOOOOOOOOOOOOOOOOOOOOOOOOOOOOOOOOOOOOOOOOOOOOOOOOOOOOOO ",
" OO..O..OOOO                                               OOOOOOOOOOO ",
" OO..OO..OOO OOOOOOOOOOOOOOO X XXX XXX XXX XXXXXX OOOOOOOO OOOOOOOOOOO ",
" OO..OOO..OO OOO...oOOOo...OO   X   X   X   X  X OOOOOOOOO OOOOOOOOOOO ",
" O....O....O OO.....oOo.....OO XXXXXXXXXXXX XX  OO  OOOOOO OOOOOOOOOOO ",
" O....O....O O.......O.......OO .........XXXXX OO XX OOOOO OOOOOOOOOOO ",
" OOOOOOOOOOO O...............OO          ..... OO XX   OOO OOOOOOOOOOO ",
" OOOOOOOOOOO O...............OO OOOOOOOO          X OO  OO OOOOOOOOOOO ",
" OO..oOo..OO O...............OO OOOOOOOO O O O OO X OO X O OOOOOOOOOOO ",
" O....O....O Oo.............oO     O     O O O   XX    X O OOOOOOOOOOO ",
" O.........O OOo...........oO O   O   O  O O O   XX  OO OO OOOOOOOOOOO ",
" O.........O OOo...........oO O OOO OOOO O O O O XX OOO OO OOOOOOOOOOO ",
" Oo.......oO OOOo..........OO O OOO OOOO O O O OO       OO OOOOOOOOOOO ",
" OO.......OO OOOO.........OOO O OOO OOOO O O OO OO .... OO OOOOOOOOOOO ",
" OOO.....OOO OOOOO.......OOO O OOO   OOOO O O O O        O OOOOOOOOOOO ",
" OOOO...OOOO OOOOOO.....OOOO O OOOOOOOOOO OO O O  . . . .  OOOOOOOOOOO ",
" OOOOO.OOOOO OOOOOOO...OOOOOO  O O   OOOOO O O O .......   OOOOOOOOOOO ",
" OOOOOOOOOOO OOOOOOOO.OOO     OO OOOOOO O O O OO  ..... OO OOOOOOOOOOO ",
" OOOOOOOOOOO OOOOOOOOOO   .  OO O OOO O O O OOO OO   . O.. OOOOOOOOOOO ",
" OOOOOOOOOOO OOOOOOO       .   OO O O O   OOO  O OOO   ..  OOOOOOOOOOO ",
" OOOOOOOOOOO OOOOO   . OO  .. O  OO O OO O   OOOOO  .      OOOOOOOOOOO ",
" OOOOOOOOOOO OOO  OO . OOO  ..  OO  O  O XX OO OO . . X    OOOOOOOOOOO ",
" OOOOOOOOOOO O   O O . O OO  ..   X  O  XXX O OO .X .   X  OOOOOOOOOOO ",
" OOOOOOOOOOO  XX. O O . O OO ..  X X  XXXX OOOO .X .     X OOOOOOOOOOO ",
" OOOOOOOOOOO X...  OO . OOOO  ..  X  XXXXX  OOO X. . X     OOOOOOOOOOO ",
" OOOOOOOOOOO ..     OO . O OO ...   XXXXXX OOO X. .  .XX   OOOOOOOOOOO ",
" OOOOOOOOOOO .     . O .. O O  ..  XXXXXX OO O . ..    XX  OOOOOOOOOOO ",
" OOOOOOOOOOO  X   ... O .. OOO ... XXXXX  O OO  ..    ..XX OOOOOOOOOOO ",
" OOOOOOOOOOO X..X   .. O ... O  . XXXXX . OOO  ..    ....X OOOOOOOOOOO ",
" OOOOOOOOOOO ..XXX.     O  ..  O  XXXXX  OO  ..     ..X. X OOOOOOOOOOO ",
" OOOOOOOOOOO .XXX .XX    OO                ..      .....XX OOOOOOOOOOO ",
" OOOOOOOOOOO XXX .   X     OOOOO...........       ..X. XX  OOOOOOOOOOO ",
" OOOOOOOOOOO XXX .XXXX X OOOO.             O     .....XXX  OOOOOOOOOOO ",
" OOOOOOOOOOO XXX .   X X OOOOOOOOO .... OOOO    ..X. XXX   OOOOOOOOOOO ",
" OOOOOOOOOOO XXX .XXXX X OOOOOOO   O... O O    .X...XXX    OOOOOOOOOOO ",
" OOOOOOOOOOO  XXX .XX           O     .  O       . XXX   . OOOOOOOOOOO ",
" OOOOOOOOOOO   XXXX         OOO  XXXXX  OO    .. XXXX   .  OOOOOOOOOOO ",
" OOOOOOOOOOO .  X     XXXXX OOO  X . X OO O XXXXXXXX    .. OOOOOOOOOOO ",
" OOOOOOOOOOO ..    XXXXXXXX O OO X . X  OOO XXXXX     X  . OOOOOOOOOOO ",
" OOOOOOOOOOO  .   XXXX ..    OO  XXXXX  OOO         XXXX   OOOOOOOOOOO ",
" OOOOOOOOOOO .   XXX .       O  .     O           XX. XXX  OOOOOOOOOOO ",
" OOOOOOOOOOO    XXX...X.      O ...O   OOOOOOO X XXXX. XXX OOOOOOOOOOO ",
" OOOOOOOOOOO   XXX .X..     OOO .... OOOOOOOOO X X   . XXX OOOOOOOOOOO ",
" OOOOOOOOOOO  XXX.....                   .OOOO X XXXX. XXX OOOOOOOOOOO ",
" OOOOOOOOOOO  XX .X..       ...........OOOOO     X   . XXX OOOOOOOOOOO ",
" OOOOOOOOOOO XX.....      ..                OO    XX. XXX. OOOOOOOOOOO ",
" OOOOOOOOOOO X .X..     ..  OO  XXXXX  O  ..  O     .XXX.. OOOOOOOOOOO ",
" OOOOOOOOOOO X....    ..  OOO . XXXXX .  O ... O ..   X..X OOOOOOOOOOO ",
" OOOOOOOOOOO XX..    ..  OO O  XXXXX ... OOO .. O ...   X  OOOOOOOOOOO ",
" OOOOOOOOOOO  XX    .. . O OO XXXXXX  ..  O O .. O .     . OOOOOOOOOOO ",
" OOOOOOOOOOO   XX.  . .X OOO XXXXXX   ... OO O . OO     .. OOOOOOOOOOO ",
" OOOOOOOOOOO     X . .X OOO  XXXXX  X  ..  OOOO . OO  ...X OOOOOOOOOOO ",
" OOOOOOOOOOO X     . X. OOOO XXXX  X X  .. OO O . O O .XX  OOOOOOOOOOO ",
" OOOOOOOOOOO  X   . X. OO O XXX  O  X   ..  OO O . O O   O OOOOOOOOOOO ",
" OOOOOOOOOOO    X . . OO OO XX O  O  OO  ..  OOO . OO  OOO OOOOOOOOOOO ",
" OOOOOOOOOOO      .  OOOOO   O OO O OO  O ..  OO .   OOOOO OOOOOOOOOOO ",
" OOOOOOOOOOO  ..   OOO O  OOO   O O O OO   .       OOOOOOO OOOOOOOOOOO ",
" OOOOOOOOOOO ..O .    O OOO O O O OOO O OO  .   OOOOOOOOOO OOOOOOOOOOO ",
" OOOOOOOOOOO OO .....  OO O O O OOOOOO OO     OOO.OOOOOOOO OOOOOOOOOOO ",
" OOOOOOOOOOO   ....... O O O OOOOO   O O  OOOOOO...OOOOOOO OOOOO.OOOOO ",
" OOOOOOOOOOO  . . . .  O O OO OOOOOOOOOO O OOOO.....OOOOOO OOOO...OOOO ",
" OOOOOOOOOOO O        O O O O OOOO   OOO O OOO.......OOOOO OOO.....OOO ",
" OOOOOOOOOOO OO .... OO OO O O OOOO OOO O OOO.........OOOO OO.......OO ",
" OOOOOOOOOOO OO       OO O O O OOOO OOO O OO..........oOOO Oo.......oO ",
" OOOOOOOOOOO OO OOO XX O O O O OOOO OOO O Oo...........oOO O.........O ",
" OOOOOOOOOOO OO OO  XX   O O O  O   O   O Oo...........oOO O.........O ",
" OOOOOOOOOOO O X    XX   O O O     O     Oo.............oO O....O....O ",
" OOOOOOOOOOO O X OO X OO O O O OOOOOOOO OO...............O OO..oOo..OO ",
" OOOOOOOOOOO OO  OO X          OOOOOOOO OO...............O OOOOOOOOOOO ",
" OOOOOOOOOOO OOO   XX OO .....          OO...............O OOOOOOOOOOO ",
" OOOOOOOOOOO OOOOO XX OO XXXXX......... OO.......O.......O O....O....O ",
" OOOOOOOOOOO OOOOOO  OO  XX XXXXXXXXXXXX OO.....oOo.....OO O....O....O ",
" OOOOOOOOOOO OOOOOOOOO X  X   X   X   X   OO...oOOOo...OOO OO..OOO..OO ",
" OOOOOOOOOOO OOOOOOOO XXXXXX XXX XXX XXX X OOOOOOOOOOOOOOO OOO..OO..OO ",
" OOOOOOOOOOO                                               OOOO..O..OO ",
" OOOOOOOOOOOOOOOOOOOOOOOOOOOOOOOOOOOOOOOOOOOOOOOOOOOOOOOOOOOOOOO....OO ",
" OOOOOOOOOOOOOOOOOOOOOOOOOOOOOOOOOOOOOOOOOOOOOOOOOOOOOOOOOOOOOOOO...OO ",
" OOOOOOOOOOOOOOOOOOOOOOOOOOOOOOOOOOOOOOOOOOOOOOOOOOOOOOOOOOOOOOO....OO ",
" OOOOOOOOOOOOOOOOOOOOOOOOOOOOOOOOOOOOOOOOOOOOOOOOOOOOOOOOOOOOOO..O..OO ",
" OOOOOOOOOOOOOOOOOOOOOOOOOOOOOOOOOOOOOOOOOOOOOOOOOOOOOOOOOOOOO..OO..OO ",
" OOOOOOOOOOOOOOOOOOOOOOOOOOOOOOOOOOOOOOOOOOOOOOOOOOOOOOOOOOO....O....O ",
" OOOOOOOOOOOOOOOOOOOOOOOOOOOOOOOOOOOOOOOOOOOOOOOOOOOOOOOOOOO....O....O ",
" OOOOOOOOOOOOOOOOOOOOOOOOOOOOOOOOOOOOOOOOOOOOOOOOOOOOOOOOOOOOOOOOOOOOO ",
" OOOOOOOOOOOOOOOOOOOOOOOOOOOOOOOOOOOOOOOOOOOOOOOOOOOOOOOOOOOOOOOOOOOOO ",
"O OOOOOOOOOOOOOOOOOOOOOOOOOOOOOOOOOOOOOOOOOOOOOOOOOOOOOOOOOOOOOOOOOOO O",
"OO                                                                   OO"
};
