/* XPM */
static char *HeartJ[] = {
/* columns rows colors chars-per-pixel */
"71 96 6 1",
"  c black",
". c red",
"X c yellow",
"o c blue",
"O c magenta",
"+ c gray100",
/* pixels */
"++                                                                   ++",
"+ +++++++++++++++++++++++++++++++++++++++++++++++++++++++++++++++++++ +",
" +++++++++++++++++++++++++++++++++++++++++++++++++++++++++++++++++++++ ",
" +++++++++++++++++++++++++++++++++++++++++++++++++++++++++++++++++++++ ",
" +++++....++++++++++++++++++++++++++++++++++++++++++++++++++++++++++++ ",
" +++++....++++++++++++++++++++++++++++++++++++++++++++++++++++++++++++ ",
" ++++++..+++++++++++++++++++++++++++++++++++++++++++++++++++++++++++++ ",
" ++++++..+++++++++++++++++++++++++++++++++++++++++++++++++++++++++++++ ",
" ++++++..+++++++++++++++++++++++++++++++++++++++++++++++++++++++++++++ ",
" ++++++..+++++++++++++++++++++++++++++++++++++++++++++++++++++++++++++ ",
" ++++++..+++++++++++++++++++++++++++++++++++++++++++++++++++++++++++++ ",
" ++++++..+++                                               +++++++++++ ",
" ++..++..+++ +++++++++ ..+...+.+..+.+...+. +++++++++++++++ +++++++++++ ",
" ++..++..+++  ++   ++++ ..+..+.+..+.+..+. ++...O+++O...+++ +++++++++++ ",
" ++......+++ . ++ X ++++ ..+++.++++.+++.  +.....O+O.....++ +++++++++++ ",
" +++....++++ . ++ XX +++ ..............  +.......+.......+ +++++++++++ ",
" +++++++++++ . ++ XX +++                 +...............+ +++++++++++ ",
" +++++++++++     + XX +++ X X X X +++++ ++...............+ +++++++++++ ",
" ++..O+O..++ +.+.++ X +++ X X X X ++  + ++...............+ +++++++++++ ",
" +....+....+ +.+.+++  ++ X X X X +  + + ++O.............O+ +++++++++++ ",
" +.........+ + + ++ X ++ X X X X ++++++o+++O...........O++ +++++++++++ ",
" +.........+     + XX ++ X X X X +++++++ ++O...........O++ +++++++++++ ",
" +O.......O+ . ++ XX +++ X X X X ++++++++ ++..........O+++ +++++++++++ ",
" ++.......++ . ++ XX +++ X X X X +++  +o  +++.........++++ +++++++++++ ",
" +++.....+++ . ++ X ++++ X X X X +   ++ ++++++.......+++++ +++++++++++ ",
" ++++...++++ . +   +++   X X X X ++++++ +++++++.....++++++ +++++++++++ ",
" +++++.+++++ . ++++++ XXX  X X X ++++   ++++++++...+++ +++ +++++++++++ ",
" +++++++++++ . +++++ XX X X X  X ++++++ +++++++++.++  .  + +++++++++++ ",
" +++++++++++ . +++++ X XX X X X ...++++      +++++++ ... + +++++++++++ ",
" +++++++++++ . +++++ XX  XX X  .....   XX XXX +++++++ . ++ +++++++++++ ",
" +++++++++++ . ++++++ XXXX X  ......... XX  X ++++    . ++ +++++++++++ ",
" +++++++++++ . ++++++       XX  .......  XXXX +++ +++ . ++ +++++++++++ ",
" +++++++++++ . ++++  .+. XXXXXXX      XXX XX  ++ +++++   + +++++++++++ ",
" +++++++++++ . ++      .+  XXXXXXXXXXXXXXX  +.   ++  + + + +++++++++++ ",
" +++++++++++ .   ++..    .+   XXXXXXXXX   +...    ++     + +++++++++++ ",
" +++++++++++ . ..++++..    .+.         .+...    .. ++ ++ + +++++++++++ ",
" +++++++++++     ..++++..    .+.+.+.+.+...    ..+++      + +++++++++++ ",
" +++++++++++ XXX   ..++++..    .       .    ..++++.   + ++ +++++++++++ ",
" +++++++++++ XX XXX  ..++++..   . +++ .   ..++++..  ++  ++ +++++++++++ ",
" +++++++++++ X XXX XX  ..++++..  . + .  ..++++..  X + +  + +++++++++++ ",
" +++++++++++    X XX.    ..++++.  . .  .++++..  XXX ++++   +++++++++++ ",
" +++++++++++ +++ XX.  XXX  ..+++.  .  .++++.  XXXXX + +    +++++++++++ ",
" +++++++++++  +++ .  XXXXXX ..+++.   .+++.. XXXXXXX ++++   +++++++++++ ",
" +++++++++++ ++ +   X         .+++. .+++.         X + +    +++++++++++ ",
" +++++++++++  ++++ XX +++++++ ..++   ++.. +++++++ X ++++   +++++++++++ ",
" +++++++++++   + + XX +     +  .. +++ ..  +     + X + +    +++++++++++ ",
" +++++++++++   ++++ X + XX    +  +   +  +    XX + X ++++   +++++++++++ ",
" +++++++++++    + + X + XX  ++  + ... +  ++  XX + X + +    +++++++++++ ",
" +++++++++++    + + X + XX  ++  + ... +  ++  XX + X + +  . +++++++++++ ",
" +++++++++++   ++++ X + XX    +  +   +  +    XX + X ++  .X +++++++++++ ",
" +++++++++++    + + X +     +  .. +++ ..  +     + XX   .XX +++++++++++ ",
" +++++++++++   ++++ X +++++++ ..++   ++.. +++++++ XX  .XX  +++++++++++ ",
" +++++++++++    + + X         .+++. .+++.         X  .XX   +++++++++++ ",
" +++++++++++   ++++ XXXXXXX ..+++.   .+++.. XXXXXX  .XX    +++++++++++ ",
" +++++++++++    + + XXXXX  .++++.  .  .+++..  XXX  .XX     +++++++++++ ",
" +++++++++++   ++++ XXX  ..++++.  . .  .++++..    .XX   XX +++++++++++ ",
" +++++++++++ +  + + X  ..++++..  . + .  ..++++..  XX   XXX +++++++++++ ",
" +++++++++++ ++  ++  ..++++..   . +++ .   ..++++..   XX XX +++++++++++ ",
" +++++++++++ ++ +   .++++..    .       .    ..++++..    X  +++++++++++ ",
" +++++++++++ +      +++..    ...+.+.+.+.+.    ..++++..     +++++++++++ ",
" +++++++++++ + ++ ++ ..    ...+.         .+.    ..++++.. . +++++++++++ ",
" +++++++++++ +     ++    ...+   XXXXXXXXX   +.    ..++   . +++++++++++ ",
" +++++++++++ + + +  ++   .+  XXXXXXXXXXXXXXX  +.      ++ . +++++++++++ ",
" +++++++++++ +   +++++ ++  XX  XX      XXXXXXX .+.  ++++ . +++++++++++ ",
" +++++++++++ ++ . +++ +++ XXXXX  ......  XX       ++++++ . +++++++++++ ",
" +++++++++++ ++ .    ++++ X  XXX    .....  X XXXX ++++++ . +++++++++++ ",
" +++++++++++ ++ . +++++++ XXX X ++++  ..  X XX  XX +++++ . +++++++++++ ",
" +++++++++++ + ... +++++++   +  ++++++  X X X XX X +++++ . +++++++++++ ",
" +++++++++++ +  .  ++.+++++++++ +++++++ X X X X XX +++++ . +++++++++++ ",
" +++++++++++ +++ +++...++++++++   +++++X X X  XXX ++++++ . +++++.+++++ ",
" +++++++++++ ++++++.....+++++++ ++++++ X X X X   +++   + . ++++...++++ ",
" +++++++++++ +++++.......++++++ ++   + X X X X ++++ X ++ . +++.....+++ ",
" +++++++++++ ++++.........+++   +  +++ X X X X +++ XX ++ . ++.......++ ",
" +++++++++++ +++O..........++ ++++++++ X X X X +++ XX ++ . +O.......O+ ",
" +++++++++++ ++O...........O++ +++++++ X X X X ++ XX +     +.........+ ",
" +++++++++++ ++O...........O+++ ++++++ X X X X ++ X ++ + + +.........+ ",
" +++++++++++ +O.............O++ + +  + X X X X ++  +++.+.+ +....+....+ ",
" +++++++++++ +...............++ +  ++ X X X X +++ X ++.+.+ ++..O+O..++ ",
" +++++++++++ +...............++ +++++ X X X X +++ XX +     +++++++++++ ",
" +++++++++++ +...............+                 +++ XX ++ . +++++++++++ ",
" +++++++++++ +.......+.......+  .............. +++ XX ++ . ++++....+++ ",
" +++++++++++ ++.....O+O.....+  .+++.++++.+++.. ++++ X ++ . +++......++ ",
" +++++++++++ +++...O+++O...++ .+..+.+..+.+..+.. ++++   ++  +++..++..++ ",
" +++++++++++ +++++++++++++++ .+...+.+..+.+...+.. +++++++++ +++..++..++ ",
" +++++++++++                                               +++..++++++ ",
" +++++++++++++++++++++++++++++++++++++++++++++++++++++++++++++..++++++ ",
" +++++++++++++++++++++++++++++++++++++++++++++++++++++++++++++..++++++ ",
" +++++++++++++++++++++++++++++++++++++++++++++++++++++++++++++..++++++ ",
" +++++++++++++++++++++++++++++++++++++++++++++++++++++++++++++..++++++ ",
" +++++++++++++++++++++++++++++++++++++++++++++++++++++++++++++..++++++ ",
" ++++++++++++++++++++++++++++++++++++++++++++++++++++++++++++....+++++ ",
" ++++++++++++++++++++++++++++++++++++++++++++++++++++++++++++....+++++ ",
" +++++++++++++++++++++++++++++++++++++++++++++++++++++++++++++++++++++ ",
" +++++++++++++++++++++++++++++++++++++++++++++++++++++++++++++++++++++ ",
"+ +++++++++++++++++++++++++++++++++++++++++++++++++++++++++++++++++++ +",
"++                                                                   ++"
};
