/* XPM */
static char *HeartQ[] = {
/* columns rows colors chars-per-pixel */
"71 96 5 1",
"  c black",
". c red",
"X c yellow",
"o c magenta",
"O c gray100",
/* pixels */
"OO                                                                   OO",
"O OOOOOOOOOOOOOOOOOOOOOOOOOOOOOOOOOOOOOOOOOOOOOOOOOOOOOOOOOOOOOOOOOOO O",
" OOOOOOOOOOOOOOOOOOOOOOOOOOOOOOOOOOOOOOOOOOOOOOOOOOOOOOOOOOOOOOOOOOOOO ",
" OOOOOOOOOOOOOOOOOOOOOOOOOOOOOOOOOOOOOOOOOOOOOOOOOOOOOOOOOOOOOOOOOOOOO ",
" OOO.....OOOOOOOOOOOOOOOOOOOOOOOOOOOOOOOOOOOOOOOOOOOOOOOOOOOOOOOOOOOOO ",
" OO.......OOOOOOOOOOOOOOOOOOOOOOOOOOOOOOOOOOOOOOOOOOOOOOOOOOOOOOOOOOOO ",
" OO..OOO..OOOOOOOOOOOOOOOOOOOOOOOOOOOOOOOOOOOOOOOOOOOOOOOOOOOOOOOOOOOO ",
" OO..OOO..OOOOOOOOOOOOOOOOOOOOOOOOOOOOOOOOOOOOOOOOOOOOOOOOOOOOOOOOOOOO ",
" OO..OOO..OOOOOOOOOOOOOOOOOOOOOOOOOOOOOOOOOOOOOOOOOOOOOOOOOOOOOOOOOOOO ",
" OO..OOO..OOOOOOOOOOOOOOOOOOOOOOOOOOOOOOOOOOOOOOOOOOOOOOOOOOOOOOOOOOOO ",
" OO..OOO..OOOOOOOOOOOOOOOOOOOOOOOOOOOOOOOOOOOOOOOOOOOOOOOOOOOOOOOOOOOO ",
" OO..OOO..OO                                               OOOOOOOOOOO ",
" OO..OOO..OO OOOOOOOOOOO  O O OO   .XXXXX OOOOOOOOOOOOOOOO OOOOOOOOOOO ",
" OO..OOO..OO OOOOOOOOOO  O O O O   .X XX OOO...oOOOo...OOO OOOOOOOOOOO ",
" OO.......OO OOOOOOOOO    O  OOO   .XXXX OO.....oOo.....OO OOOOOOOOOOO ",
" OOO.....OOO OOOOOOOOO X O OO OOO  .X X OO.......O.......O OOOOOOOOOOO ",
" OOOOOO...OO OOOOOOOO  X  OOOO  O  ..XX OO...............O OOOOOOOOOOO ",
" OOOOOOO..OO OOOOOOOO X. OOOOOOO    .XX OO...............O OOOOOOOOOOO ",
" OOOOOOOOOOO OOOOOOO  X.    O   O   ..XX O...............O OOOOOOOOOOO ",
" OO..oOo..OO OOOOOOO X..   O   O     ..X Oo.............oO OOOOOOOOOOO ",
" O....O....O OOOOOO  X.. OOO OOOO O   . OOOo...........oOO OOOOOOOOOOO ",
" O.........O OOOOOO X..X OOO OOOO O    OOOOo...........oOO OOOOOOOOOOO ",
" O.........O OOOOOO X..X OOO OOOO OO    OOOO..........oOOO OOOOOOOOOOO ",
" Oo.......oO OOOOOO X..X OO   OOOO O     OOOO.........OOOO OOOOOOOOOOO ",
" OO.......OO OOOOO X..XX OOOOOOOOO OO     OOOO.......OOOOO OOOOOOOOOOO ",
" OOO.....OOO OOOOO X..X   O   OOO X OO     OOOO.....OOOOOO OOOOOOOOOOO ",
" OOOO...OOOO OOOOO X..  X OO OOO XX OOO      OOO...OOOOOOO OOOOOOOOOOO ",
" OOOOO.OOOOO OOOOO X. X  X OOOO XX   OOO       OO.OOOOOOOO OOOOOOOOOOO ",
" OOOOOOOOOOO OOOOO X OX   X    XX   X OOO      OOOOOOOOOOO OOOOOOOOOOO ",
" OOOOOOOOOOO OOOOO  XO X   XXXX    X O OOO    OOOO  O  OOO OOOOOOOOOOO ",
" OOOOOOOOOOO OOOO  X X.OX         X.OX   OOO OOOO XX XX OO OOOOOOOOOOO ",
" OOOOOOOOOOO OOO XXXX XO XX    XXX OX        OOOO X... OOO OOOOOOOOOOO ",
" OOOOOOOOOOO OO   X  X X.O XXXX O.XX    OOOOO OOOO X.XX OO OOOOOOOOOOO ",
" OOOOOOOOOOO O XXXXXXXX XXX.O .XXX  O  OO O O  O    XX O O OOOOOOOOOOO ",
" OOOOOOOOOOO     X   XX    XXXX    X  O OOOO .. XXX   X  O OOOOOOOOOOO ",
" OOOOOOOOOOO XXXXXXXXX  OO     X   X  OOOO  .. XXX OO  X O OOOOOOOOOOO ",
" OOOOOOOOOOO    X    X O O      X X  O O  ..      OOO XX O OOOOOOOOOOO ",
" OOOOOOOOOOO XXXXXXXX  O    OO  X X  OO ... XXX O     X OO OOOOOOOOOOO ",
" OOOOOOOOOOO  X X   X   O  OO O  X  O O .. X... O . O  OOO OOOOOOOOOOO ",
" OOOOOOOOOOO XXXXXXXX O O .  OO  X  OO .. X..X.  O  O  OOO OOOOOOOOOOO ",
" OOOOOOOOOOO   X X  X   O X.. OO X O O .. X...   O O OO OO OOOOOOOOOOO ",
" OOOOOOOOOOO XXXXXXXX  O  XX.. O   OO .. X..X.  O  O OO OO OOOOOOOOOOO ",
" OOOOOOOOOOO  X    X  O  X XX.     OO .. X.... O   OO   OO OOOOOOOOOOO ",
" OOOOOOOOOOO XXXXXXX  O  X  X.  XX    .. X.X.. O O OOO . O OOOOOOOOOOO ",
" OOOOOOOOOOO  X  XX   O  X. XX.   XXX  . X..   O   O  ...  OOOOOOOOOOO ",
" OOOOOOOOOOO XXXXX .   O X. X.. X    XX     ..  O   ...... OOOOOOOOOOO ",
" OOOOOOOOOOO    X .. O O X  XX. X XXX  XX ...X O O ......  OOOOOOOOOOO ",
" OOOOOOOOOOO XXX ...  O  X XX. X X...X   ..XXX   O ....  X OOOOOOOOOOO ",
" OOOOOOOOOOO X  .... O   XXX..   X...X X .XX X  O  ... XXX OOOOOOOOOOO ",
" OOOOOOOOOOO  ...... O O X... XX  XXX X .XX  X O O .. X    OOOOOOOOOOO ",
" OOOOOOOOOOO ......   O  ..     XX    X ..X .X O   . XXXXX OOOOOOOOOOO ",
" OOOOOOOOOOO  ...  O   O   ..X .  XXX   .XX .X  O   XX  X  OOOOOOOOOOO ",
" OOOOOOOOOOO O . OOO O O ..X.X ..    XX  .X  X  O  XXXXXXX OOOOOOOOOOO ",
" OOOOOOOOOOO OO   OO   O ....X .. OO     .XX X  O  X    X  OOOOOOOOOOO ",
" OOOOOOOOOOO OO OO O  O  .X..X .. OO   O ..XX  O  XXXXXXXX OOOOOOOOOOO ",
" OOOOOOOOOOO OO OO O O   ...X .. O O X OO ..X O   X  X X   OOOOOOOOOOO ",
" OOOOOOOOOOO OOO  O  O  .X..X .. OO  X  OO  . O O XXXXXXXX OOOOOOOOOOO ",
" OOOOOOOOOOO OOO  O . O ...X .. O O  X  O OO  O   X   X X  OOOOOOOOOOO ",
" OOOOOOOOOOO OO X     O XXX ... OO  X X  OO    O  XXXXXXXX OOOOOOOOOOO ",
" OOOOOOOOOOO O XX OOO      ..  O O  X X      O O X    X    OOOOOOOOOOO ",
" OOOOOOOOOOO O X  OO XXX ..  OOOO  X   X     OO  XXXXXXXXX OOOOOOOOOOO ",
" OOOOOOOOOOO O  X   XXX .. OOOO O  X    XXXX    XX   X     OOOOOOOOOOO ",
" OOOOOOOOOOO O O XX    O  O O OO  O  XXX. O.XXX XXXXXXXX O OOOOOOOOOOO ",
" OOOOOOOOOOO OO XX.X OOOO OOOOO    XX.O XXXX O.X X  X   OO OOOOOOOOOOO ",
" OOOOOOOOOOO OOO ...X OOOO        XO XXX    XX OX XXXX OOO OOOOOOOOOOO ",
" OOOOOOOOOOO OO XX XX OOOO OOO   XO.X         XO.X X  OOOO OOOOOOOOOOO ",
" OOOOOOOOOOO OOO  O  OOOO    OOO O X    XXXX   X OX  OOOOO OOOOOOOOOOO ",
" OOOOOOOOOOO OOOOOOOOOOO      OOO X   XX    X   XO X OOOOO OOOOOOOOOOO ",
" OOOOOOOOOOO OOOOOOOO.OO       OOO   XX OOOO X  X .X OOOOO OOOOO.OOOOO ",
" OOOOOOOOOOO OOOOOOO...OOO      OOO XX OOO OO X  ..X OOOOO OOOO...OOOO ",
" OOOOOOOOOOO OOOOOO.....OOOO     OO X OOO   O   X..X OOOOO OOO.....OOO ",
" OOOOOOOOOOO OOOOO.......OOOO     OO OOOOOOOOO XX..X OOOOO OO.......OO ",
" OOOOOOOOOOO OOOO.........OOOO     O OOOO   OO X..X OOOOOO Oo.......oO ",
" OOOOOOOOOOO OOOo..........OOOO    OO OOOO OOO X..X OOOOOO O.........O ",
" OOOOOOOOOOO OOo...........oOOOO    O OOOO OOO X..X OOOOOO O.........O ",
" OOOOOOOOOOO OOo...........oOOO .   O OOOO OOO ..X  OOOOOO O....O....O ",
" OOOOOOOOOOO Oo.............oO X..     O   O   ..X OOOOOOO OO..oOo..OO ",
" OOOOOOOOOOO O...............O XX..   O   O    .X  OOOOOOO OOOOOOOOOOO ",
" OOOOOOOOOOO O...............OO XX.    OOOOOOO .X OOOOOOOO OO..OOOOOOO ",
" OOOOOOOOOOO O...............OO XX..  O  OOOO  X  OOOOOOOO OO...OOOOOO ",
" OOOOOOOOOOO O.......O.......OO X X.   OO OO O X OOOOOOOOO OOO.....OOO ",
" OOOOOOOOOOO OO.....oOo.....OO XXXX.   OOO  O    OOOOOOOOO OO.......OO ",
" OOOOOOOOOOO OOO...oOOOo...OOO XX X.   O O O O  OOOOOOOOOO OO..OOO..OO ",
" OOOOOOOOOOO OOOOOOOOOOOOOOOO XXXXX.   OO O O  OOOOOOOOOOO OO..OOO..OO ",
" OOOOOOOOOOO                                               OO..OOO..OO ",
" OOOOOOOOOOOOOOOOOOOOOOOOOOOOOOOOOOOOOOOOOOOOOOOOOOOOOOOOOOOO..OOO..OO ",
" OOOOOOOOOOOOOOOOOOOOOOOOOOOOOOOOOOOOOOOOOOOOOOOOOOOOOOOOOOOO..OOO..OO ",
" OOOOOOOOOOOOOOOOOOOOOOOOOOOOOOOOOOOOOOOOOOOOOOOOOOOOOOOOOOOO..OOO..OO ",
" OOOOOOOOOOOOOOOOOOOOOOOOOOOOOOOOOOOOOOOOOOOOOOOOOOOOOOOOOOOO..OOO..OO ",
" OOOOOOOOOOOOOOOOOOOOOOOOOOOOOOOOOOOOOOOOOOOOOOOOOOOOOOOOOOOO..OOO..OO ",
" OOOOOOOOOOOOOOOOOOOOOOOOOOOOOOOOOOOOOOOOOOOOOOOOOOOOOOOOOOOO.......OO ",
" OOOOOOOOOOOOOOOOOOOOOOOOOOOOOOOOOOOOOOOOOOOOOOOOOOOOOOOOOOOOO.....OOO ",
" OOOOOOOOOOOOOOOOOOOOOOOOOOOOOOOOOOOOOOOOOOOOOOOOOOOOOOOOOOOOOOOOOOOOO ",
" OOOOOOOOOOOOOOOOOOOOOOOOOOOOOOOOOOOOOOOOOOOOOOOOOOOOOOOOOOOOOOOOOOOOO ",
"O OOOOOOOOOOOOOOOOOOOOOOOOOOOOOOOOOOOOOOOOOOOOOOOOOOOOOOOOOOOOOOOOOOO O",
"OO                                                                   OO"
};
