/* XPM */
static char *Heart__[] = {
/* columns rows colors chars-per-pixel */
"71 96 2 1",
"  c red",
". c gray100",
/* pixels */
"..                                                                   ..",
". ................................................................... .",
" ..................................................................... ",
" ..................................................................... ",
" ..  ..    ........................................................... ",
" ..  .      .......................................................... ",
" ..  .  ..  .......................................................... ",
" ..  .  ..  .......................................................... ",
" ..  .  ..  .......................................................... ",
" ..  .  ..  .......................................................... ",
" ..  .  ..  .....    ...    ...............    ...    ................ ",
" ..  .  ..  ....      .      .............      .      ............... ",
" ..  .  ..  ...       .       ...........       .       .............. ",
" ..  .  ..  ...               ...........               .............. ",
" ..  .      ...               ...........               .............. ",
" ..  ..    ....               ...........               .............. ",
" ..............               ...........               .............. ",
" ...............             .............             ............... ",
" ...............             .............             ............... ",
" ...   .   ......           ...............           ................ ",
" ..    .    ......         ...    ...    ...         ................. ",
" ..         .......       ...      .      ...       .................. ",
" ..         ........     ...       .       ...     ................... ",
" ..         .........   ....               ....   .................... ",
" ...       ........... .....               ..... ..................... ",
" ....     ..................               ........................... ",
" .....   ...................               ........................... ",
" ...... .....................             ............................ ",
" ............................             ............................ ",
" .............................           ............................. ",
" ..............................         .............................. ",
" ................    ...    ....       ....    ...    ................ ",
" ...............      .      ....     ....      .      ............... ",
" ..............       .       ....   ....       .       .............. ",
" ..............               ..... .....               .............. ",
" ..............               ...........               .............. ",
" ..............               ...........               .............. ",
" ..............               ...........               .............. ",
" ...............             .............             ............... ",
" ...............             .............             ............... ",
" ................           ...............           ................ ",
" .................         .................         ................. ",
" ..................       ...................       .................. ",
" ...................     .....................     ................... ",
" ....................   .......................   .................... ",
" ..................... ......................... ..................... ",
" ..................................................................... ",
" ..................................................................... ",
" ..................................................................... ",
" ..................................................................... ",
" ..................... ......................... ..................... ",
" ....................   .......................   .................... ",
" ...................     .....................     ................... ",
" ..................       ...................       .................. ",
" .................         .................         ................. ",
" ................           ...............           ................ ",
" ...............             .............             ............... ",
" ...............             .............             ............... ",
" ..............               ...........               .............. ",
" ..............               ...........               .............. ",
" ..............               ...........               .............. ",
" ..............               ..... .....               .............. ",
" ..............       .       ....   ....       .       .............. ",
" ...............      .      ....     ....      .      ............... ",
" ................    ...    ....       ....    ...    ................ ",
" ..............................         .............................. ",
" .............................           ............................. ",
" ............................             ............................ ",
" ............................             ..................... ...... ",
" ...........................               ...................   ..... ",
" ...........................               ..................     .... ",
" ..................... .....               ..... ...........       ... ",
" ....................   ....               ....   .........         .. ",
" ...................     ...       .       ...     ........         .. ",
" ..................       ...      .      ...       .......         .. ",
" .................         ...    ...    ...         ......    .    .. ",
" ................           ...............           ......   .   ... ",
" ...............             .............             ............... ",
" ...............             .............             ............... ",
" ..............               ...........               .............. ",
" ..............               ...........               ....    ..  .. ",
" ..............               ...........               ...      .  .. ",
" ..............               ...........               ...  ..  .  .. ",
" ..............       .       ...........       .       ...  ..  .  .. ",
" ...............      .      .............      .      ....  ..  .  .. ",
" ................    ...    ...............    ...    .....  ..  .  .. ",
" ..........................................................  ..  .  .. ",
" ..........................................................  ..  .  .. ",
" ..........................................................  ..  .  .. ",
" ..........................................................  ..  .  .. ",
" ..........................................................      .  .. ",
" ...........................................................    ..  .. ",
" ..................................................................... ",
" ..................................................................... ",
". ................................................................... .",
"..                                                                   .."
};
