/* XPM */
static char *money[] = {
/* columns rows colors chars-per-pixel */
"140 35 170 2",
"   c #FFFF00",
".  c #000000",
"X  c #9F9F00",
"o  c #5F5F00",
"O  c #5E5E00",
"+  c #1F1F00",
"@  c #DFDF00",
"#  c #DEDE00",
"$  c #9E9E00",
"%  c #646400",
"&  c #5D5D00",
"*  c #9A9A00",
"=  c #5C5C00",
"-  c #1E1E00",
";  c #161600",
":  c #414100",
">  c #6C6C00",
",  c #D7D700",
"<  c #BABA00",
"1  c #555500",
"2  c #1A1A00",
"3  c #202000",
"4  c #5B5B00",
"5  c #FEFE00",
"6  c #929200",
"7  c #484800",
"8  c #151500",
"9  c #4F4F00",
"0  c #959500",
"q  c #ECEC00",
"w  c #070700",
"e  c #171700",
"r  c #FCFC00",
"t  c #080800",
"y  c #949400",
"u  c #141400",
"i  c #939300",
"p  c #B8B800",
"a  c #8B8B00",
"s  c #FDFD00",
"d  c #909000",
"f  c #030300",
"g  c #D8D800",
"h  c #EBEB00",
"j  c #464600",
"k  c #BBBB00",
"l  c #616100",
"z  c #9D9D00",
"x  c #DDDD00",
"c  c #505000",
"v  c #9C9C00",
"b  c #B9B900",
"n  c #868600",
"m  c #676700",
"M  c #535300",
"N  c #515100",
"B  c #C5C500",
"V  c #636300",
"C  c #626200",
"Z  c #CCCC00",
"A  c #A6A600",
"S  c #8C8C00",
"D  c #8D8D00",
"F  c #A5A500",
"G  c #010100",
"H  c #787800",
"J  c #E3E300",
"K  c #090900",
"L  c #131300",
"P  c #AFAF00",
"I  c #E2E200",
"U  c #474700",
"Y  c #242400",
"T  c #C4C400",
"R  c #B0B000",
"E  c #BEBE00",
"W  c #252500",
"Q  c #D2D200",
"!  c #2E2E00",
"~  c #111100",
"^  c #FAFA00",
"/  c #F9F900",
"(  c #373700",
")  c #AEAE00",
"_  c #C8C800",
"`  c #C9C900",
"'  c #ADAD00",
"]  c #969600",
"[  c #CECE00",
"{  c #8F8F00",
"}  c #989800",
"|  c #979700",
" . c #B3B300",
".. c #B2B200",
"X. c #A2A200",
"o. c #B7B700",
"O. c #0A0A00",
"+. c #1D1D00",
"@. c #0B0B00",
"#. c #FBFB00",
"$. c #B6B600",
"%. c #919100",
"&. c #3F3F00",
"*. c #F2F200",
"=. c #020200",
"-. c #383800",
";. c #CFCF00",
":. c #404000",
">. c #F3F300",
",. c #0D0D00",
"<. c #5A5A00",
"1. c #F8F800",
"2. c #C0C000",
"3. c #424200",
"4. c #BFBF00",
"5. c #DADA00",
"6. c #DCDC00",
"7. c #F6F600",
"8. c #262600",
"9. c #696900",
"0. c #0C0C00",
"q. c #7E7E00",
"w. c #3A3A00",
"e. c #7F7F00",
"r. c #C7C700",
"t. c #D1D100",
"y. c #ABAB00",
"u. c #AAAA00",
"i. c #E0E000",
"p. c #D0D000",
"a. c #2C2C00",
"s. c #525200",
"d. c #4E4E00",
"f. c #D9D900",
"g. c #040400",
"h. c #F4F400",
"j. c #707000",
"k. c #8E8E00",
"l. c #A3A300",
"z. c #E5E500",
"x. c #333300",
"c. c #343400",
"v. c #E1E100",
"b. c #797900",
"n. c #1C1C00",
"m. c #858500",
"M. c #EAEA00",
"N. c #717100",
"B. c #E9E900",
"V. c #A9A900",
"C. c #050500",
"Z. c #393900",
"A. c #777700",
"S. c #757500",
"D. c #ACAC00",
"F. c #B4B400",
"G. c #F1F100",
"H. c #4B4B00",
"J. c #686800",
"K. c #F0F000",
"L. c #E8E800",
"P. c #595900",
"I. c #6D6D00",
"U. c #282800",
"Y. c #0E0E00",
"T. c #767600",
"R. c #656500",
"E. c #BCBC00",
"W. c #545400",
"Q. c #808000",
/* pixels */
"                                                                                                                                                                                                                                                                                        ",
"                                                                                                                                                                                                                                                                                        ",
"                                                                                                                                                                                                                                                                                        ",
"                                                                                                                                                                                                                                                                                        ",
"                                                                                                                                                                                                                                                                                        ",
"                                                                                                                                                                                                                                                                                        ",
"                                                                                                                                                                                                                                                                                        ",
"        . . . . . . X           X . . . . . .                                                                                                                                                                                                                                           ",
"        . . . . . . o           O . . . . . .                                                                                                                                                                                                                                           ",
"        . . . . . . +           + . . . . . .                                                                                                                                                                                                                                           ",
"        . . . . . . . @       # . . . . . . .                                                                                                                                                                                                                                           ",
"        . . . . + . . X       $ . . + . . . .                                                                                                                                                                                                                                           ",
"        . . . . % . . O       & . . % . . . .             # * = - ; : > ,             . . . .   < 1 2 3 4 @             5 6 7 8 - 9 0 5     q w . . e r           r e . . t q                                                                                                           ",
"        . . . . y u . +       - . 8 i . . . .           p t . . . . . . t a s         . . . . d f . . . . u g         h j . . . . . . 7 h     = . . . k           < . . . l                                                                                                             ",
"        . . . . z 9 . . #   x . . c v . . . .         b t . . . . . . . . . n         . . . . . . . . . . . m         M . . . . . . . . N     B . . . V           C . . . Z                                                                                                             ",
"        . . . . A S . . $   z . . D F . . . .       # t . . G H J J H G . . K #       . . . . L P I U . . . Y       T . . . - R E W . . G Q     ! . . ~ ^       / ~ . . (                                                                                                               ",
"        . . . . ) _ . . &   = . . ` ' . . . .       ] . . . j         j . . . >       . . . . ]     [ . . . ~       O . . . {     } . . . %     | . . .  .      ... . . X.                                                                                                              ",
"        . . . . o.^ O.. -   +.. @.#.$.. . . .       1 . . . d         %.. . . &.      . . . . I     *.. . . =.      -.. . . ;.    x . . . :.    >.,.. . 4       <.. . u 1.                                                                                                              ",
"        . . . . 2.  : . . < . . 3.  4.. . . .       ; . . . 5.        6.. . . u       . . . . 7.    ^ . . . .       u . . . . . . . . . . 8.      9.. . ,.7.  7.0.. . H                                                                                                                 ",
"        . . . . _   q.. . w.. . e.  r.. . . .       8.. . . 5.        g . . . e       . . . . s       . . . .       ,.. . . . . . . . . . 0.      t.. . . y.  u.. . =.i.                                                                                                                ",
"        . . . . t.  < . . . . . k   p.. . . .       o . . . d         { . . . 3.      . . . .         . . . .       a.. . . 5.                      w.. . M   s.. . d.                                                                                                                  ",
"        . . . . f.  >.f . . . g.h.  g . . . .       } . . . j         j . . . j.      . . . .         . . . .       M . . . k.                      l.. . K z.t . . b                                                                                                                   ",
"        . . . . I     x.. . . c.    v.. . . .       , =.. . G H J J b.G . . 0.I       . . . .         . . . .       p . . . n.X.q m.+ o X @         1.u . . 7 . . 8.5                                                                                                                   ",
"        . . . . M.    j.. . . N.    B.. . . .         V.C.. . . . . . . . . S         . . . .         . . . .         Z.. . . . . . . . . A.          S.. . . . . d                                                                                                                     ",
"        . . . . >.    D.. . . '     *.. . . .           F.t . . . . . . K d 5         . . . .         . . . .         G.H.. . . . . . . J.            6.G . . . @.K.                                                                                                                    ",
"        . . . . #.    L.. . . B.    #.. . . .             5.y P.+.8 :.I.f.            . . . .         . . . .           s ] P.U.Y.&.T.) s               U . . . R.                                                                                                                      ",
"                                                                                                                                                      / a.. . . Z                                                                                                                       ",
"                                                                                                                                                M.7.E.W.. . . w.                                                                                                                        ",
"                                                                                                                                                . . . . . . . B                                                                                                                         ",
"                                                                                                                                                . . . . . . Q.                                                                                                                          ",
"                                                                                                                                                ! L w + 9 p                                                                                                                             ",
"                                                                                                                                                                                                                                                                                        ",
"                                                                                                                                                                                                                                                                                        ",
"                                                                                                                                                                                                                                                                                        ",
"                                                                                                                                                                                                                                                                                        "
};
