/* XPM */
static char *ok[] = {
/* columns rows colors chars-per-pixel */
"70 35 256 2",
"   c yellow",
".  c #F2F200",
"X  c #B7B700",
"o  c #898900",
"O  c #5B5B00",
"+  c #2C2C00",
"@  c #0B0B00",
"#  c #2D2D00",
"$  c #585800",
"%  c #838300",
"&  c #B2B200",
"*  c #FDFD00",
"=  c black",
"-  c #B3B300",
";  c #070700",
":  c #212100",
">  c #E0E000",
",  c #BABA00",
"<  c #1C1C00",
"1  c #373700",
"2  c #D5D500",
"3  c #B1B100",
"4  c #060600",
"5  c #222200",
"6  c #E1E100",
"7  c #FBFB00",
"8  c #6B6B00",
"9  c #010100",
"0  c #AFAF00",
"q  c #050500",
"w  c #242400",
"e  c #E3E300",
"r  c #7C7C00",
"t  c #848400",
"y  c #ACAC00",
"u  c #252500",
"i  c #E4E400",
"p  c #C8C800",
"a  c #030300",
"s  c #515100",
"d  c #A9A900",
"f  c #D3D300",
"g  c #F5F500",
"h  c #D6D600",
"j  c #5A5A00",
"k  c #090900",
"l  c #DDDD00",
"z  c #AAAA00",
"x  c #040400",
"c  c #272700",
"v  c #E5E500",
"b  c #FAFA00",
"n  c #151500",
"m  c #191900",
"M  c #474700",
"N  c #A8A800",
"B  c #292900",
"V  c #E7E700",
"C  c #BBBB00",
"Z  c #ABAB00",
"A  c #BEBE00",
"S  c #A6A600",
"D  c #2A2A00",
"F  c #E8E800",
"G  c #6F6F00",
"H  c #494900",
"J  c #505000",
"K  c #8C8C00",
"L  c #A3A300",
"P  c #2B2B00",
"I  c #E9E900",
"U  c #A2A200",
"Y  c #A4A400",
"T  c #646400",
"R  c #A1A100",
"E  c #020200",
"W  c #CACA00",
"Q  c #C9C900",
"!  c #3C3C00",
"~  c #9F9F00",
"^  c #4B4B00",
"/  c #0C0C00",
"(  c #EDED00",
")  c #EFEF00",
"_  c #0F0F00",
"`  c #ECEC00",
"'  c #121200",
"]  c #353500",
"[  c #5F5F00",
"{  c #1A1A00",
"}  c #F1F100",
"|  c #363600",
" . c #C5C500",
".. c #C3C300",
"X. c #3A3A00",
"o. c #F0F000",
"O. c #6C6C00",
"+. c #5E5E00",
"@. c #9E9E00",
"#. c #626200",
"$. c #393900",
"%. c #868600",
"&. c #3E3E00",
"*. c #FEFE00",
"=. c #404000",
"-. c #8A8A00",
";. c #3B3B00",
":. c #313100",
">. c #FCFC00",
",. c #B6B600",
"<. c #9C9C00",
"1. c #A0A000",
"2. c #F3F300",
"3. c #DEDE00",
"4. c #0A0A00",
"5. c #8D8D00",
"6. c #0E0E00",
"7. c #111100",
"8. c #424200",
"9. c #888800",
"0. c #E2E200",
"q. c #464600",
"w. c #D2D200",
"e. c #4D4D00",
"r. c #D8D800",
"t. c #4E4E00",
"y. c #767600",
"u. c #7E7E00",
"i. c #C6C600",
"p. c #AEAE00",
"a. c #F8F800",
"s. c #7B7B00",
"d. c #676700",
"f. c #CDCD00",
"g. c #303000",
"h. c #CFCF00",
"j. c #181800",
"k. c #808000",
"l. c #565600",
"z. c #545400",
"x. c #A7A700",
"c. c #CCCC00",
"v. c black",
"b. c black",
"n. c black",
"m. c black",
"M. c black",
"N. c black",
"B. c black",
"V. c black",
"C. c black",
"Z. c black",
"A. c black",
"S. c black",
"D. c black",
"F. c black",
"G. c black",
"H. c black",
"J. c black",
"K. c black",
"L. c black",
"P. c black",
"I. c black",
"U. c black",
"Y. c black",
"T. c black",
"R. c black",
"E. c black",
"W. c black",
"Q. c black",
"!. c black",
"~. c black",
"^. c black",
"/. c black",
"(. c black",
"). c black",
"_. c black",
"`. c black",
"'. c black",
"]. c black",
"[. c black",
"{. c black",
"}. c black",
"|. c black",
" X c black",
".X c black",
"XX c black",
"oX c black",
"OX c black",
"+X c black",
"@X c black",
"#X c black",
"$X c black",
"%X c black",
"&X c black",
"*X c black",
"=X c black",
"-X c black",
";X c black",
":X c black",
">X c black",
",X c black",
"<X c black",
"1X c black",
"2X c black",
"3X c black",
"4X c black",
"5X c black",
"6X c black",
"7X c black",
"8X c black",
"9X c black",
"0X c black",
"qX c black",
"wX c black",
"eX c black",
"rX c black",
"tX c black",
"yX c black",
"uX c black",
"iX c black",
"pX c black",
"aX c black",
"sX c black",
"dX c black",
"fX c black",
"gX c black",
"hX c black",
"jX c black",
"kX c black",
"lX c black",
"zX c black",
"xX c black",
"cX c black",
"vX c black",
"bX c black",
"nX c black",
"mX c black",
"MX c black",
"NX c black",
"BX c black",
"VX c black",
"CX c black",
"ZX c black",
"AX c black",
"SX c black",
"DX c black",
"FX c black",
"GX c black",
"HX c black",
"JX c black",
"KX c black",
"LX c black",
"PX c black",
"IX c black",
"UX c black",
/* pixels */
"                                                                                                                                            ",
"                                                                                                                                            ",
"                                                                                                                                            ",
"                                                                                                                                            ",
"                                                                                                                                            ",
"                                                                                                                                            ",
"                                  . X o O + @ # $ % & *                 = = = =                   - ; = = = : >                             ",
"                                , < = = = = = = = = = 1 2               = = = =                 3 4 = = = 5 6                               ",
"                            7 8 9 = = = = = = = = = = = 4 % 7           = = = =               0 q = = = w e                                 ",
"                            r = = = = = = = = = = = = = = = t           = = = =             y q = = = u i                                   ",
"                          p a = = = = s d f g h y j = = = = k l         = = = =           z x = = = c v                                     ",
"                        b u = = = n 3               , m = = = M         = = = =         N x = = = B V                                       ",
"                        C = = = = Z                   & = = = = A       = = = =       S a = = = D F                                         ",
"                        G = = = H                       J = = = K       = = = =     L a = = = P I                                           ",
"                        1 = = = U                       Y = = = T       = = = =   R E = = = = W                                             ",
"                        : = = = p                       Q = = = !       = = = = ~ E = = = = = ^                                             ",
"                        / = = = (                       ) = = = n       = = = = 9 = = = = = = = Z                                           ",
"                        _ = = = `                       I = = = '       = = = = = = = ] [ = = = { }                                         ",
"                        | = = =  .                      ..= = = X.      = = = = = = 1 o.o.m = = = O.                                        ",
"                        +.= = = @.                      @.= = = #.      = = = = = $.}     d = = = E W                                       ",
"                        %.= = = &.*.                    =.= = = -.      = = = = ;..         H = = = :.>.                                    ",
"                        ,.= = = = <.                  1.= = = = ,       = = = = 2.          3.4.= = = 5.                                    ",
"                        *.;.= = = 6.L               z 7.= = = 8.        = = = =               9.= = = / 0.                                  ",
"                          f x = = = = q.S w.g 2 d e.= = = = 4 r.        = = = =               7 # = = = t.                                  ",
"                            y.= = = = = = = = = = = = = = = u.          = = = =                 i.9 = = = p.                                ",
"                            a.y.a = = = = = = = = = = = x s.b           = = = =                   d.= = = < 2.                              ",
"                                f.g.= = = = = = = = = :.h.              = = = =                   ) j.= = = G                               ",
"                                  7 p.k.l.P 4.B z.k.p.7                 = = = =                     x.= = = a c.                            ",
"                                                                                                                                            ",
"                                                                                                                                            ",
"                                                                                                                                            ",
"                                                                                                                                            ",
"                                                                                                                                            ",
"                                                                                                                                            ",
"                                                                                                                                            "
};
