/* XPM */
static char *SpadeJ[] = {
/* columns rows colors chars-per-pixel */
"71 96 6 1",
"  c black",
". c red",
"X c yellow",
"o c blue",
"O c cyan",
"+ c gray100",
/* pixels */
"++                                                                   ++",
"+ +++++++++++++++++++++++++++++++++++++++++++++++++++++++++++++++++++ +",
" +++++++++++++++++++++++++++++++++++++++++++++++++++++++++++++++++++++ ",
" +++++++++++++++++++++++++++++++++++++++++++++++++++++++++++++++++++++ ",
" +++++    ++++++++++++++++++++++++++++++++++++++++++++++++++++++++++++ ",
" +++++    ++++++++++++++++++++++++++++++++++++++++++++++++++++++++++++ ",
" ++++++  +++++++++++++++++++++++++++++++++++++++++++++++++++++++++++++ ",
" ++++++  +++++++++++++++++++++++++++++++++++++++++++++++++++++++++++++ ",
" ++++++  +++++++++++++++++++++++++++++++++++++++++++++++++++++++++++++ ",
" ++++++  +++++++++++++++++++++++++++++++++++++++++++++++++++++++++++++ ",
" ++++++  +++++++++++++++++++++++++++++++++++++++++++++++++++++++++++++ ",
" ++++++  +++                                               +++++++++++ ",
" ++  ++  +++ +++  +++ . ... . .. . ... .. ++++++++++++++++ +++++++++++ ",
" ++  ++  +++ ++ XX +++ . .. . .. . .. .. ++++++++ ++++++++ +++++++++++ ",
" ++      +++ + X .X +++ .   .    .   .. ++++++++   +++++++ +++++++++++ ",
" +++    ++++ + X .X ++++ .............. +++++++     ++++++ +++++++++++ ",
" +++++++++++ + X .X ++++                ++++++       +++++ +++++++++++ ",
" +++++++++++ ++ XX +++++ +++++ X X X X ++++++         ++++ +++++++++++ ",
" +++++ +++++ +++  ++++++ +  ++ X X X X +++++           +++ +++++++++++ ",
" ++++   ++++ ++ XX +++++ + +  + X X X X +++             ++ +++++++++++ ",
" +++     +++ + X .X ++++o++++++ X X X X +++             ++ +++++++++++ ",
" ++       ++ ++ XX ++++ +++++++ X X X X ++               + +++++++++++ ",
" +         + +++  ++++ ++++++++ X X X X ++               + +++++++++++ ",
" +         + ++ XX +++  ++  +o+ X X X X ++               + +++++++++++ ",
" +         + + X .X ++++ ++  o+ X X X X ++      + +      + +++++++++++ ",
" ++  + +  ++ + X .X ++++ ++++++ X X X XX  +    ++ ++    ++ +++++++++++ ",
" ++++O O++++ + X .X ++++   +++ XX X X XXXX +++++   +++++++ +++++++++++ ",
" ++++   ++++ ++ XX +++++ +++++ XX XX X X XX +++     ++++++ +++++++++++ ",
" +++++++++++ +     ++++  +++++.  X X X XX X ++++++++++++++ +++++++++++ ",
" +++++++++++ + +++  +    o++.... X  X X  XX ++++++++++++++ +++++++++++ ",
" +++++++++++ ++  ++        .....  XX X XXX  ++++++++++++++ +++++++++++ ",
" +++++++++++ + ++    +                        ++++++++++++ +++++++++++ ",
" +++++++++++ + +   + +                    + +   ++++++++++ +++++++++++ ",
" +++++++++++ +   +    + X X X X X X X X X +   +   ++++++++ +++++++++++ ",
" +++++++++++  .   + + +                   + + +  .  ++++++ +++++++++++ ",
" +++++++++++ .  . +    + ................ +   + ...   ++   +++++++++++ ",
" +++++++++++   .   + + +  .X..X..X..X..X. + + + .   ..  X  +++++++++++ ",
" +++++++++++  .  X +    + ...X X.X.X X... +   +   ..  XXX  +++++++++++ ",
" +++++++++++ .  X X + + +  .X X.XXX.X X.. + + + ..  XX     +++++++++++ ",
" +++++++++++   X X  +     X .X..X X..X... +   +    XXXXX   +++++++++++ ",
" +++++++++++  X X X  +  X      +   +   +  + + +   XX     X +++++++++++ ",
" +++++++++++ X X X     X  X + + + + + + + +      XXXXXX  X +++++++++++ ",
" +++++++++++  X X  .  X  XX  +   +   +    + +   XX X    X  +++++++++++ ",
" +++++++++++ XXX  +. X    X                    XXXXXXX  X  +++++++++++ ",
" +++++++++++ X   .. X  XXXX ++++++++++++++++++ XX X    X . +++++++++++ ",
" +++++++++++    +. X  X   X ................. XXXXXXX  X.. +++++++++++ ",
" +++++++++++   .. X  XXXXX                    X X     X .. +++++++++++ ",
" +++++++++++  X. X    X  X   X  + +++  +  +  XXXXXXX X.... +++++++++++ ",
" +++++++++++ X...X XXXXXXX  +  +  +++ +  X   X  X    X ..  +++++++++++ ",
" +++++++++++ .X X     X X                    XXXXX  X ..   +++++++++++ ",
" +++++++++++ X X  XXXXXXX ................. X   X  X .+  X +++++++++++ ",
" +++++++++++ . X    X XX ++++++++++++++++++ XXXX  X ..  X  +++++++++++ ",
" +++++++++++  X  XXXXXXX                    X    X .+  X X +++++++++++ ",
" +++++++++++  X    X XX   + +    +   +   +  XX  X  .  X X  +++++++++++ ",
" +++++++++++ X  XXXXXX      + + + + + + + + X  X     X X X +++++++++++ ",
" +++++++++++ X     XX   + + +  +   +   +      X  +  X X X  +++++++++++ ",
" +++++++++++   XXXXX    +   + ...X..X X..X. X     +  X X   +++++++++++ ",
" +++++++++++     XX  .. + + + ..X X.XXX.X X.  + + + X X  . +++++++++++ ",
" +++++++++++  XXX  ..   +   + ...X X.X.X X... +    + X  .  +++++++++++ ",
" +++++++++++  X  ..   . + + + .X..X..X..X..X.  + + +   .   +++++++++++ ",
" +++++++++++   ++   ... +   + ................ +    + .  . +++++++++++ ",
" +++++++++++ ++++++  .  + + +                   + + +   .  +++++++++++ ",
" +++++++++++ ++++++++   +   + X X X X X X X X X +    +   + +++++++++++ ",
" +++++++++++ ++++++++++   + +                    + +   + + +++++++++++ ",
" +++++++++++ ++++++++++++                        +    ++ + +++++++++++ ",
" +++++++++++ ++++++++++++++  XXX X XX  .....        ++  ++ +++++++++++ ",
" +++++++++++ ++++++++++++++ XX  X X  X ....++o    +  +++ + +++++++++++ ",
" +++++++++++ ++++++++++++++ X XX X X X  .+++++  ++++     + +++++++++++ ",
" +++++++++++ ++++++     +++ XX X X XX XX +++++ +++++ XX ++ ++++   ++++ ",
" +++++++++++ +++++++   +++++ XXXX X X XX +++   ++++ X. X + ++++O O++++ ",
" +++++++++++ ++    ++ ++    +  XX X X X ++++++ ++++ X. X + ++  + +  ++ ",
" +++++++++++ +      + +      ++ X X X X +o  ++ ++++ X. X + +         + ",
" +++++++++++ +               ++ X X X X +o+  ++  +++ XX ++ +         + ",
" +++++++++++ +               ++ X X X X ++++++++ ++++  +++ +         + ",
" +++++++++++ +               ++ X X X X +++++++ ++++ XX ++ ++       ++ ",
" +++++++++++ ++             +++ X X X X ++++++o++++ X. X + +++     +++ ",
" +++++++++++ ++             +++ X X X X +  + + +++++ XX ++ ++++   ++++ ",
" +++++++++++ +++           +++++ X X X X ++  + ++++++  +++ +++++ +++++ ",
" +++++++++++ ++++         ++++++ X X X X +++++ +++++ XX ++ +++++++++++ ",
" +++++++++++ +++++       ++++++                ++++ X. X + +++++++++++ ",
" +++++++++++ ++++++     +++++++ .............. ++++ X. X + ++++    +++ ",
" +++++++++++ +++++++   ++++++++ ..   .    .   . +++ X. X + +++      ++ ",
" +++++++++++ ++++++++ ++++++++ .. .. . .. . .. . +++ XX ++ +++  ++  ++ ",
" +++++++++++ ++++++++++++++++ .. ... . .. . ... . +++  +++ +++  ++  ++ ",
" +++++++++++                                               +++  ++++++ ",
" +++++++++++++++++++++++++++++++++++++++++++++++++++++++++++++  ++++++ ",
" +++++++++++++++++++++++++++++++++++++++++++++++++++++++++++++  ++++++ ",
" +++++++++++++++++++++++++++++++++++++++++++++++++++++++++++++  ++++++ ",
" +++++++++++++++++++++++++++++++++++++++++++++++++++++++++++++  ++++++ ",
" +++++++++++++++++++++++++++++++++++++++++++++++++++++++++++++  ++++++ ",
" ++++++++++++++++++++++++++++++++++++++++++++++++++++++++++++    +++++ ",
" ++++++++++++++++++++++++++++++++++++++++++++++++++++++++++++    +++++ ",
" +++++++++++++++++++++++++++++++++++++++++++++++++++++++++++++++++++++ ",
" +++++++++++++++++++++++++++++++++++++++++++++++++++++++++++++++++++++ ",
"+ +++++++++++++++++++++++++++++++++++++++++++++++++++++++++++++++++++ +",
"++                                                                   ++"
};
