/* XPM */
static char *SpadeA[] = {
/* columns rows colors chars-per-pixel */
"71 96 2 1",
"  c black",
". c gray100",
/* pixels */
"..                                                                   ..",
". ................................................................... .",
" ..................................................................... ",
" ..................................................................... ",
" ...... .............................................................. ",
" ...... .............................................................. ",
" .....   ............................................................. ",
" .....   ............................................................. ",
" ....  .  ............................................................ ",
" ....  .  ............................................................ ",
" ...  ...  ........................................................... ",
" ...       ........................................................... ",
" ..         .......................................................... ",
" ..  .....  .......................................................... ",
" .    ...    ......................................................... ",
" .    ...    ......................................................... ",
" ..................................................................... ",
" ..................................................................... ",
" ..................................................................... ",
" ...... .............................................................. ",
" .....   ............................................................. ",
" ....     ............................................................ ",
" ...       ........................................................... ",
" ..         .......................................................... ",
" ..         .......................................................... ",
" ..         ........................ ................................. ",
" ...  . .  ........................   ................................ ",
" .....   .........................     ............................... ",
" .....   ........................       .............................. ",
" ...............................    .    ............................. ",
" ..............................    . .    ............................ ",
" .............................    .   .    ........................... ",
" ............................    .     .    .......................... ",
" ...........................    .       .    ......................... ",
" ..........................    .    .    .    ........................ ",
" .........................    .    . .    .    ....................... ",
" ........................    .    .   .    .    ...................... ",
" .......................    .    .  .  .    .    ..................... ",
" ......................    .    .  . .  .    .    .................... ",
" .....................    .    .  .   .  .    .    ................... ",
" ....................    .    .   .   .   .    .    .................. ",
" ...................    .    .     . .     .    .    ................. ",
" ..................    .      .     .     .      .    ................ ",
" ..................   .        .   . .   .        .   ................ ",
" .................    .   .     . .   . .     .   .    ............... ",
" .................   .     .  .  .  .  .  .  .     .   ............... ",
" .................   .     .    . .   . .    .     .   ............... ",
" ................   .    ..    .   . .   .    ..    .   .............. ",
" ................   .   .     .     .     .     .   .   .............. ",
" ................   .   .    .             .    .   .   .............. ",
" ................   .   .   .     .   .     .   .   .   .............. ",
" ................   .    ...     . . . .     ...    .   .............. ",
" ................   .           .   .   .           .   .............. ",
" ................   .          .         .          .   .............. ",
" ................    .        .           .        .    .............. ",
" .................   ..     ..    .   .    ..     ..   ............... ",
" .................     .....     ..   ..     .....     ............... ",
" ..................             ...   ...             ................ ",
" ...................           ...     ...           ................. ",
" .....................       .....     .....       ................... ",
" ................................       .............................. ",
" ................................       .............................. ",
" ...............................         ............................. ",
" ..............................           ............................ ",
" ..................................................................... ",
" ..................................................................... ",
" ..................................................................... ",
" .............................................................   ..... ",
" .............................................................. ...... ",
" ...........................................................  . .  ... ",
" ..........................................................         .. ",
" ..........................................................         .. ",
" ..........................................................         .. ",
" ...........................................................       ... ",
" ............................................................     .... ",
" .............................................................   ..... ",
" .............................................................. ...... ",
" ..................................................................... ",
" ..................................................................... ",
" ..................................................................... ",
" ........................................................    ...    .. ",
" ........................................................    ...    .. ",
" .........................................................  .....  ... ",
" .........................................................         ... ",
" ..........................................................       .... ",
" ..........................................................  ...  .... ",
" ...........................................................  .  ..... ",
" ...........................................................  .  ..... ",
" ............................................................   ...... ",
" ............................................................   ...... ",
" ............................................................. ....... ",
" ............................................................. ....... ",
" ..................................................................... ",
" ..................................................................... ",
". ................................................................... .",
"..                                                                   .."
};
