/* XPM */
static char *SpadeK[] = {
/* columns rows colors chars-per-pixel */
"71 96 5 1",
"  c black",
". c red",
"X c yellow",
"o c cyan",
"O c gray100",
/* pixels */
"OO                                                                   OO",
"O OOOOOOOOOOOOOOOOOOOOOOOOOOOOOOOOOOOOOOOOOOOOOOOOOOOOOOOOOOOOOOOOOOO O",
" OOOOOOOOOOOOOOOOOOOOOOOOOOOOOOOOOOOOOOOOOOOOOOOOOOOOOOOOOOOOOOOOOOOOO ",
" OOOOOOOOOOOOOOOOOOOOOOOOOOOOOOOOOOOOOOOOOOOOOOOOOOOOOOOOOOOOOOOOOOOOO ",
" O    O    OOOOOOOOOOOOOOOOOOOOOOOOOOOOOOOOOOOOOOOOOOOOOOOOOOOOOOOOOOO ",
" O    O    OOOOOOOOOOOOOOOOOOOOOOOOOOOOOOOOOOOOOOOOOOOOOOOOOOOOOOOOOOO ",
" OO  OO  OOOOOOOOOOOOOOOOOOOOOOOOOOOOOOOOOOOOOOOOOOOOOOOOOOOOOOOOOOOOO ",
" OO  O  OOOOOOOOOOOOOOOOOOOOOOOOOOOOOOOOOOOOOOOOOOOOOOOOOOOOOOOOOOOOOO ",
" OO    OOOOOOOOOOOOOOOOOOOOOOOOOOOOOOOOOOOOOOOOOOOOOOOOOOOOOOOOOOOOOOO ",
" OO   OOOOOOOOOOOOOOOOOOOOOOOOOOOOOOOOOOOOOOOOOOOOOOOOOOOOOOOOOOOOOOOO ",
" OO    OOOOOOOOOOOOOOOOOOOOOOOOOOOOOOOOOOOOOOOOOOOOOOOOOOOOOOOOOOOOOOO ",
" OO  O  OOOO                                               OOOOOOOOOOO ",
" OO  OO  OOO OOOOOOOOOOOOOOO XXXXXXXXXXXXXXXXXXXX OOOOOOOO OOOOOOOOOOO ",
" OO  OOO  OO OOOOOOOO OOOOOOO XXXXXXX X X X X X  OOOOOOOOO OOOOOOOOOOO ",
" O    O    O OOOOOOO   OOOOOOO  X X X . . . . . OOOOOOOOOO OOOOOOOOOOO ",
" O    O    O OOOOOO     OOOOOO. . . .......... OOOOOOOOOO  OOOOOOOOOOO ",
" OOOOOOOOOOO OOOOO       OOOOOO .....          OOOOOOOOO   OOOOOOOOOOO ",
" OOOOOOOOOOO OOOO         OOOOO       OOOOOOOO  OOOOOOO X  OOOOOOOOOOO ",
" OOOOO OOOOO OOO           OOOO O O O OOOOOOOO O OOOOOO X  OOOOOOOOOOO ",
" OOOO   OOOO OO             OOO O O O     O    O OOOOOO X  OOOOOOOOOOO ",
" OOO     OOO OO             OOO O O O  O   O    OOOOOOO X  OOOOOOOOOOO ",
" OO       OO O               OO O O O OOOO OOO O OOOOOO X  OOOOOOOOOOO ",
" O         O O               OO O O O OOOO OOO O OOOOOO X  OOOOOOOOOOO ",
" O         O O               OO O O O OOOO OOO O OOOOOO X  OOOOOOOOOOO ",
" O         O O      O O      OO O O O OOO   OO O OOOOOO X  OOOOOOOOOOO ",
" OO  O O  OO OO    OO OO    OOO O O O O  OOO O O OOOOOO X  OOOOOOOOOOO ",
" OOOOo oOOOO OOOOOOO   OOOOOO   O O O O O   OO  O  OOOO X  OOOOOOOOOOO ",
" OOOO   OOOO OOOOOO     OOOO OO O O O OOOOOOOO O OO OOO X  OOOOOOOOOOO ",
" OOOOOOOOOOO OOOOOOOOOOOOOO O O O O O OO OOO O O OO OOO X  OOOOOOOOOOO ",
" OOOOOOOOOOO OOOOOOOOOOOO   O  OO O O  O O O O OO  X  O X  OOOOOOOOOOO ",
" OOOOOOOOOOO OOOOOOOOOO   X  OOO OO O OO O   OO   X  O  X  OOOOOOOOOOO ",
" OOOOOOOOOOO OOOOOOOO  X .X     O  O OO O O X .  X  O . X  OOOOOOOOOOO ",
" OOOOOOOOOOO OOOOOO    X   X  X        O O  X   X  O    X  OOOOOOOOOOO ",
" OOOOOOOOOOO OOOO  X X  X  X .  X X X      X . X  O ... X  OOOOOOOOOOO ",
" OOOOOOOOOOO OO  ..     X . X ..      X X  X   X  O .   X  OOOOOOOOOOO ",
" OOOOOOOOOOO O .XX  X   X   X ...XXXX     X . X  O .... X  OOOOOOOOOOO ",
" OOOOOOOOOOO  X..     X  X  X ...X   XX.. X   X  O .    X  OOOOOOOOOOO ",
" OOOOOOOOOOO .XX.  X X X X . X ..XXXXXX.. X  X  O ..... X  OOOOOOOOOOO ",
" OOOOOOOOOOO ..X     X   X   X           X . X  O .        OOOOOOOOOOO ",
" OOOOOOOOOOO X..  X X XXX X  X  OOO OOO  X   X  O . XXXX   OOOOOOOOOOO ",
" OOOOOOOOOOO XX.    X X   X  X OO OOO OO X  X  O . X   XXX OOOOOOOOOOO ",
" OOOOOOOOOOO .XX  X X XXX X . X O O O OO X  X  O . XX O XX OOOOOOOOOOO ",
" OOOOOOOOOOO ..X    X X   X   X OOO OOO X . X    ..    O   OOOOOOOOOOO ",
" OOOOOOOOOOO X..  X X XXXX X  X O OOO O X   X X   .....    OOOOOOOOOOO ",
" OOOOOOOOOOO .X.    X X    X  X         X  X           OOO OOOOOOOOOOO ",
" OOOOOOOOOOO ..X  X  X XXX X  X XXXXXXXXX  X        OOO    OOOOOOOOOOO ",
" OOOOOOOOOOO   .     X X   X  X         X  X XX   X  O OOO OOOOOOOOOOO ",
" OOOOOOOOOOO OO O  X  X XX X .X   ...   X  X   XX    OO    OOOOOOOOOOO ",
" OOOOOOOOOOO    OO    XX   X  X   ...   X. X XX X  X  O OO OOOOOOOOOOO ",
" OOOOOOOOOOO OOO O  X   XX X  X         X  X   X X     .   OOOOOOOOOOO ",
" OOOOOOOOOOO    OOO        X .X XXXXXXXXX  X XXX X  X  X.. OOOOOOOOOOO ",
" OOOOOOOOOOO OOO      X    X  X         X. X    X X    .X. OOOOOOOOOOO ",
" OOOOOOOOOOO    .....   X X   X O OOO O X  X XXXX X X  ..X OOOOOOOOOOO ",
" OOOOOOOOOOO   O    ..    X . X OOO OOO X   X   X X    X.. OOOOOOOOOOO ",
" OOOOOOOOOOO XX O XX . O  X  X OO O O O X . X XXX X X  XX. OOOOOOOOOOO ",
" OOOOOOOOOOO XXX   X . O  X  X OO OOO OO X  X   X X    .XX OOOOOOOOOOO ",
" OOOOOOOOOOO   XXXX . O  X   X  OOO OOO  X  X XXX X X  ..X OOOOOOOOOOO ",
" OOOOOOOOOOO        . O  X . X           X   X   X     X.. OOOOOOOOOOO ",
" OOOOOOOOOOO  X ..... O  X  X ..XXXXXX.. X . X X X X  .XX. OOOOOOOOOOO ",
" OOOOOOOOOOO  X    . O  X   X ..XX   X... X  X  X     ..X  OOOOOOOOOOO ",
" OOOOOOOOOOO  X .... O  X . X     XXXX... X   X   X  XX. O OOOOOOOOOOO ",
" OOOOOOOOOOO  X   . O  X   X  X X      .. X . X     ..  OO OOOOOOOOOOO ",
" OOOOOOOOOOO  X ... O  X . X      X X X  . X  X  X X  OOOO OOOOOOOOOOO ",
" OOOOOOOOOOO  X    O  X   X  O          X  X   X    OOOOOO OOOOOOOOOOO ",
" OOOOOOOOOOO  X . O  X  . X O O O  O  O     X. X  OOOOOOOO OOOOOOOOOOO ",
" OOOOOOOOOOO  X  O  X   OO   O OO O OO OOO  X   OOOOOOOOOO OOOOOOOOOOO ",
" OOOOOOOOOOO  X O  X  OO O O O O  O O OO  O   OOOOOOOOOOOO OOOOOOOOOOO ",
" OOOOOOOOOOO  X OOO OO O O OOO OO O O O O O OOOOOOOOOOOOOO OOOOOOOOOOO ",
" OOOOOOOOOOO  X OOO OO O OOOOOOOO O O O OO OOOO     OOOOOO OOOO   OOOO ",
" OOOOOOOOOOO  X OOOO  O  OO   O O O O O   OOOOOO   OOOOOOO OOOOo oOOOO ",
" OOOOOOOOOOO  X OOOOOO O O OOO  O O O O OOO    OO OO    OO OO  O O  OO ",
" OOOOOOOOOOO  X OOOOOO O OO   OOO O O O OO      O O      O O         O ",
" OOOOOOOOOOO  X OOOOOO O OOO OOOO O O O OO               O O         O ",
" OOOOOOOOOOO  X OOOOOO O OOO OOOO O O O OO               O O         O ",
" OOOOOOOOOOO  X OOOOOO O OOO OOOO O O O OO               O OO       OO ",
" OOOOOOOOOOO  X OOOOOOO    O   O  O O O OOO             OO OOO     OOO ",
" OOOOOOOOOOO  X OOOOOO O    O     O O O OOO             OO OOOO   OOOO ",
" OOOOOOOOOOO  X OOOOOO O OOOO OOO O O O OOOO           OOO OOOOO OOOOO ",
" OOOOOOOOOOO  X OOOOOOO  OOOOOOOO       OOOOO         OOOO OOOOOOOOOOO ",
" OOOOOOOOOOO   OOOOOOOOO          ..... OOOOOO       OOOOO OOOOOOOOOOO ",
" OOOOOOOOOOO  OOOOOOOOOO .......... . . .OOOOOO     OOOOOO O    O    O ",
" OOOOOOOOOOO OOOOOOOOOO . . . . . X X X  OOOOOOO   OOOOOOO O    O    O ",
" OOOOOOOOOOO OOOOOOOOO  X X X X X XXXXXXX OOOOOOO OOOOOOOO OO  OOO  OO ",
" OOOOOOOOOOO OOOOOOOO XXXXXXXXXXXXXXXXXXXX OOOOOOOOOOOOOOO OOO  OO  OO ",
" OOOOOOOOOOO                                               OOOO  O  OO ",
" OOOOOOOOOOOOOOOOOOOOOOOOOOOOOOOOOOOOOOOOOOOOOOOOOOOOOOOOOOOOOOO    OO ",
" OOOOOOOOOOOOOOOOOOOOOOOOOOOOOOOOOOOOOOOOOOOOOOOOOOOOOOOOOOOOOOOO   OO ",
" OOOOOOOOOOOOOOOOOOOOOOOOOOOOOOOOOOOOOOOOOOOOOOOOOOOOOOOOOOOOOOO    OO ",
" OOOOOOOOOOOOOOOOOOOOOOOOOOOOOOOOOOOOOOOOOOOOOOOOOOOOOOOOOOOOOO  O  OO ",
" OOOOOOOOOOOOOOOOOOOOOOOOOOOOOOOOOOOOOOOOOOOOOOOOOOOOOOOOOOOOO  OO  OO ",
" OOOOOOOOOOOOOOOOOOOOOOOOOOOOOOOOOOOOOOOOOOOOOOOOOOOOOOOOOOO    O    O ",
" OOOOOOOOOOOOOOOOOOOOOOOOOOOOOOOOOOOOOOOOOOOOOOOOOOOOOOOOOOO    O    O ",
" OOOOOOOOOOOOOOOOOOOOOOOOOOOOOOOOOOOOOOOOOOOOOOOOOOOOOOOOOOOOOOOOOOOOO ",
" OOOOOOOOOOOOOOOOOOOOOOOOOOOOOOOOOOOOOOOOOOOOOOOOOOOOOOOOOOOOOOOOOOOOO ",
"O OOOOOOOOOOOOOOOOOOOOOOOOOOOOOOOOOOOOOOOOOOOOOOOOOOOOOOOOOOOOOOOOOOO O",
"OO                                                                   OO"
};
