/* XPM */
static char *SpadeQ[] = {
/* columns rows colors chars-per-pixel */
"71 96 5 1",
"  c black",
". c red",
"X c yellow",
"o c cyan",
"O c gray100",
/* pixels */
"OO                                                                   OO",
"O OOOOOOOOOOOOOOOOOOOOOOOOOOOOOOOOOOOOOOOOOOOOOOOOOOOOOOOOOOOOOOOOOOO O",
" OOOOOOOOOOOOOOOOOOOOOOOOOOOOOOOOOOOOOOOOOOOOOOOOOOOOOOOOOOOOOOOOOOOOO ",
" OOOOOOOOOOOOOOOOOOOOOOOOOOOOOOOOOOOOOOOOOOOOOOOOOOOOOOOOOOOOOOOOOOOOO ",
" OOO     OOOOOOOOOOOOOOOOOOOOOOOOOOOOOOOOOOOOOOOOOOOOOOOOOOOOOOOOOOOOO ",
" OO       OOOOOOOOOOOOOOOOOOOOOOOOOOOOOOOOOOOOOOOOOOOOOOOOOOOOOOOOOOOO ",
" OO  OOO  OOOOOOOOOOOOOOOOOOOOOOOOOOOOOOOOOOOOOOOOOOOOOOOOOOOOOOOOOOOO ",
" OO  OOO  OOOOOOOOOOOOOOOOOOOOOOOOOOOOOOOOOOOOOOOOOOOOOOOOOOOOOOOOOOOO ",
" OO  OOO  OOOOOOOOOOOOOOOOOOOOOOOOOOOOOOOOOOOOOOOOOOOOOOOOOOOOOOOOOOOO ",
" OO  OOO  OOOOOOOOOOOOOOOOOOOOOOOOOOOOOOOOOOOOOOOOOOOOOOOOOOOOOOOOOOOO ",
" OO  OOO  OOOOOOOOOOOOOOOOOOOOOOOOOOOOOOOOOOOOOOOOOOOOOOOOOOOOOOOOOOOO ",
" OO  OOO  OO                                               OOOOOOOOOOO ",
" OO  OOO  OO OOOOOOOOOO  O  O O O. X  XXXX OOOOOOOOOOOOOOO OOOOOOOOOOO ",
" OO  OOO  OO OO OOOOOO     O O  O. XX XXX OOOOOOO OOOOOOOO OOOOOOOOOOO ",
" OO       OO OO OOOOOO  O O  OO O. XXXXXX OOOOOO   OOOOOOO OOOOOOOOOOO ",
" OOO     OOO OO OOOOOO   O OO OO . X  XX OOOOOO     OOOOOO OOOOOOOOOOO ",
" OOOOOO   OO O X OOOOO O  OOOO O . XX XX OOOOO       OOOOO OOOOOOOOOOO ",
" OOOOOOO  OO O X OOOO  O OOOOOO  .. XXXXX OOO         OOOO OOOOOOOOOOO ",
" OOOOO OOOOO O X OOOO .O    O    .. X  XX OO           OOO OOOOOOOOOOO ",
" OOOO   OOOO O X OOOO .O   O   O ... X X OO             OO OOOOOOOOOOO ",
" OOO     OOO  XXX OOO .O OOO OOO O.. XX OOO             OO OOOOOOOOOOO ",
" OO       OO  X X OOO .O OOO OOOO ... X OO               O OOOOOOOOOOO ",
" O         O  XXX OO ..O OOO OOOO O...  OO               O OOOOOOOOOOO ",
" O         O O X OOO .O  OO   OOOO ...  OO               O OOOOOOOOOOO ",
" O         O O X OOO .O  OOOOOOOOO O... OO      O O      O OOOOOOOOOOO ",
" OO  O O  OO      OO O    O   OOO . O... OO    OO OO    OO OOOOOOOOOOO ",
" OOOOo oOOOO  XXX O .O    OO OOO .  O...  OOOOOO   OOOOOOO OOOOOOOOOOO ",
" OOOO   OOOO O   OO .O   X OOOO   X  O...  OOOO     OOOOOO OOOOOOOOOOO ",
" OOOOOOOOOOO  XXX O .O X  X    X X XX O...  OOOOOOOOOOOOOO OOOOOOOOOOO ",
" OOOOOOOOOOO  XXX O    XX  X X X  XX   OOOO  OOOOOOO..OOOO OOOOOOOOOOO ",
" OOOOOOOOOOO O   OO    XXXX     XXX        .  OOOO..  ..OO OOOOOOOOOOO ",
" OOOOOOOOOOO O . O   O  X XXXXXX X   OO  .... XOO.. XX ..O OOOOOOOOOOO ",
" OOOOOOOOOOO O X  X  O  XX X X XX  OO   ...O X  OO..  ..O  OOOOOOOOOOO ",
" OOOOOOOOOOO O X .XX     XXXXXXX  O   ....O X  X  OO..OO . OOOOOOOOOOO ",
" OOOOOOOOOOO   X ..X  O  X X XX  O   ...OO X   XXX O OO X. OOOOOOOOOOO ",
" OOOOOOOOOOO   X ..X      XXXX  O  ....OO X .   XXX  O   X OOOOOOOOOOO ",
" OOOOOOOOOOO   X ..XX  O  XXX  O  ....O.. X        X     X OOOOOOOOOOO ",
" OOOOOOOOOOO   X O..X   O   X O  ...OO... X ...     OOOO X OOOOOOOOOOO ",
" OOOOOOOOOOO   X  ..XX    XX O  ...O...   X        OOOOO X OOOOOOOOOOO ",
" OOOOOOOOOOO   X O ..X   X..X  ...O..     XX .... OOOOOO X OOOOOOOOOOO ",
" OOOOOOOOOOO   X  O..XX  X..X ...O.   OO   X     OO OO  X. OOOOOOOOOOO ",
" OOOOOOOOOOO   X O  ..XX X..X ..O.   OOOO   X .. O       . OOOOOOOOOOO ",
" OOOOOOOOOOO   X  O ...XX XX ..O   .OO  OO   X     X       OOOOOOOOOOO ",
" OOOOOOOOOOO   X O O ...XX   .O   OO     OO   X . XX X   X OOOOOOOOOOO ",
" OOOOOOOOOOO   X  O O ........   OOOOOOOOOOO   X XXX XXXX  OOOOOOOOOOO ",
" OOOOOOOOOOO   X O O O                            XXXXX  X OOOOOOOOOOO ",
" OOOOOOOOOOO   X  O O ...........................      XX  OOOOOOOOOOO ",
" OOOOOOOOOOO   X O O   O   O   O   O   O   O   O   XXXX    OOOOOOOOOOO ",
" OOOOOOOOOOO    XXXX   O   O   O   O   O   O   O       X   OOOOOOOOOOO ",
" OOOOOOOOOOO  XX      ........................... O O  X   OOOOOOOOOOO ",
" OOOOOOOOOOO X  XXXXX                            O O O X   OOOOOOOOOOO ",
" OOOOOOOOOOO  XXXX XXX X   OOOOOOOOOOO   ........ O O  X   OOOOOOOOOOO ",
" OOOOOOOOOOO X   X XX . X   OO     OO   O.   XX... O O X   OOOOOOOOOOO ",
" OOOOOOOOOOO       X     X   OO  OO.   O.. XX XX... O  X   OOOOOOOOOOO ",
" OOOOOOOOOOO .       O .. X   OOOO   .O.. X..X XX..  O X   OOOOOOOOOOO ",
" OOOOOOOOOOO .X  OO OO     X   OO   .O... X..X  XX..O  X   OOOOOOOOOOO ",
" OOOOOOOOOOO X OOOOOO .... XX     ..O...  X..X   X.. O X   OOOOOOOOOOO ",
" OOOOOOOOOOO X OOOOO        X   ...O...  X XX    XX..  X   OOOOOOOOOOO ",
" OOOOOOOOOOO X OOOO     ... X ...OO...    X       X..O X   OOOOOOOOOOO ",
" OOOOOOOOOOO X     X        X ..O....  O  XXX     XX.. X   OOOOOOOOOOO ",
" OOOOOOOOOOO X      XXX   . X OO....  O  XXXX      X.. X   OOOOOOOOOOO ",
" OOOOOOOOOOO .X  O O XXX   X OO...   O  XX X X     X.. X   OOOOOOOOOOO ",
" OOOOOOOOOOO .  O..OO  X  X O....   O  XXXXXXX     XX. X O OOOOOOOOOOO ",
" OOOOOOOOOOO   ..  ..OO  X O...   O   XX X X XX     X  X O OOOOOOOOOOO ",
" OOOOOOOOOOO  .. XX ..OOX ....  O    X XXXXXX X      O . O OOOOOOOOOOO ",
" OOOOOOOOOOO OO..  ..OOOO  .        XXX     XXXX    OO   O OOOOOOOOOOO ",
" OOOOOOOOOOO OOOO..OOOOOOO  O      XX  X X X  XX    O XXX  OOOOOOOOOOO ",
" OOOOOOOOOOO OOOOOOOOOOOOOO  ...  XX X X    X  X O. O XXX  OOOOOOOOOOO ",
" OOOOOOOOOOO OOOOOO     OOOO  ...O  X   OOOO X   O. OO   O OOOO   OOOO ",
" OOOOOOOOOOO OOOOOOO   OOOOOO  ...O  . OOO OO    O. O XXX  OOOOo oOOOO ",
" OOOOOOOOOOO OO    OO OO    OO .... . OOO   O    O OO      OO  O O  OO ",
" OOOOOOOOOOO O      O O      OO ...O OOOOOOOOO  O. OOO X O O         O ",
" OOOOOOOOOOO O               OO  ... OOOO   OO  O. OOO X O O         O ",
" OOOOOOOOOOO O               OO  ...O OOOO OOO O.. OO XXX  O         O ",
" OOOOOOOOOOO O               OO X ... OOOO OOO O. OOO X X  OO       OO ",
" OOOOOOOOOOO OO             OO  XX ..O OOO OOO O. OOO XXX  OOO     OOO ",
" OOOOOOOOOOO OO             O  X X ... O   O   O. OOOO X O OOOO   OOOO ",
" OOOOOOOOOOO OOO           OO XX  X ..    O    O. OOOO X O OOOOO OOOOO ",
" OOOOOOOOOOO OOOO         OOO XXXXX ..  OOOOOO .  OOOO X O OO  OOOOOOO ",
" OOOOOOOOOOO OOOOO       OOOOO XX XX . O OOOO  . OOOOO X O OO   OOOOOO ",
" OOOOOOOOOOO OOOOOO     OOOOOO XX  X . OO OO O   OOOOOO OO OOO     OOO ",
" OOOOOOOOOOO OOOOOOO   OOOOOO XXXXXX .O OO  O O  OOOOOO OO OO       OO ",
" OOOOOOOOOOO OOOOOOOO OOOOOO  XXX XX .O  O O     OOOOOO OO OO  OOO  OO ",
" OOOOOOOOOOO OOOOOOOOOOOOOO  XXXX  X .O O O  O  OOOOOOOOOO OO  OOO  OO ",
" OOOOOOOOOOO                                               OO  OOO  OO ",
" OOOOOOOOOOOOOOOOOOOOOOOOOOOOOOOOOOOOOOOOOOOOOOOOOOOOOOOOOOOO  OOO  OO ",
" OOOOOOOOOOOOOOOOOOOOOOOOOOOOOOOOOOOOOOOOOOOOOOOOOOOOOOOOOOOO  OOO  OO ",
" OOOOOOOOOOOOOOOOOOOOOOOOOOOOOOOOOOOOOOOOOOOOOOOOOOOOOOOOOOOO  OOO  OO ",
" OOOOOOOOOOOOOOOOOOOOOOOOOOOOOOOOOOOOOOOOOOOOOOOOOOOOOOOOOOOO  OOO  OO ",
" OOOOOOOOOOOOOOOOOOOOOOOOOOOOOOOOOOOOOOOOOOOOOOOOOOOOOOOOOOOO  OOO  OO ",
" OOOOOOOOOOOOOOOOOOOOOOOOOOOOOOOOOOOOOOOOOOOOOOOOOOOOOOOOOOOO       OO ",
" OOOOOOOOOOOOOOOOOOOOOOOOOOOOOOOOOOOOOOOOOOOOOOOOOOOOOOOOOOOOO     OOO ",
" OOOOOOOOOOOOOOOOOOOOOOOOOOOOOOOOOOOOOOOOOOOOOOOOOOOOOOOOOOOOOOOOOOOOO ",
" OOOOOOOOOOOOOOOOOOOOOOOOOOOOOOOOOOOOOOOOOOOOOOOOOOOOOOOOOOOOOOOOOOOOO ",
"O OOOOOOOOOOOOOOOOOOOOOOOOOOOOOOOOOOOOOOOOOOOOOOOOOOOOOOOOOOOOOOOOOOO O",
"OO                                                                   OO"
};
